<?xml version="1.0" encoding="UTF-8"?>
<svg width="54px" height="54px" viewBox="0 0 54 54" version="1.1" xmlns="http://www.w3.org/2000/svg" xmlns:xlink="http://www.w3.org/1999/xlink">
    <!-- Generator: Sketch 47.1 (45422) - http://www.bohemiancoding.com/sketch -->
    <title>aac</title>
    <desc>Created with Sketch.</desc>
    <defs></defs>
    <g id="guidelines" stroke="none" stroke-width="1" fill="none" fill-rule="evenodd">
        <g id="aac">
            <path d="M33,6 L44,15 L44,46 L44,46 C44,47.1045695 43.1045695,48 42,48 L12,48 L12,48 C10.8954305,48 10,47.1045695 10,46 L10,8 L10,8 C10,6.8954305 10.8954305,6 12,6 L33,6 Z" id="Fill-1" fill="#EAEAEA"></path>
            <path d="M44,15 L35,15 L35,15 C33.8954305,15 33,14.1045695 33,13 L33,6 L44,15 Z" id="Fill-3" fill="#C6C6C6"></path>
            <polygon id="Fill-5" fill="#606CE8" points="10 39 44 39 44 23 10 23"></polygon>
            <path d="M21.265,32.985 L18.47,32.985 L17.781,35 L16,35 L19.276,25.835 L20.589,25.835 L23.865,35 L21.993,35 L21.265,32.985 Z M18.925,31.555 L20.875,31.555 L20.199,29.527 L19.926,28.097 L19.861,28.097 L19.588,29.54 L18.925,31.555 Z M28.961,32.985 L26.166,32.985 L25.477,35 L23.696,35 L26.972,25.835 L28.285,25.835 L31.561,35 L29.689,35 L28.961,32.985 Z M26.621,31.555 L28.571,31.555 L27.895,29.527 L27.622,28.097 L27.557,28.097 L27.284,29.54 L26.621,31.555 Z M38.1,34.623 C37.8226653,34.8223343 37.4695021,34.9653329 37.0405,35.052 C36.6114979,35.1386671 36.1716689,35.182 35.721,35.182 C35.1749973,35.182 34.6571691,35.0975008 34.1675,34.9285 C33.6778309,34.7594992 33.2466685,34.4865019 32.874,34.1095 C32.5013315,33.7324981 32.2045011,33.2428363 31.9835,32.6405 C31.7624989,32.0381637 31.652,31.3080043 31.652,30.45 C31.652,29.5573289 31.7754988,28.8098363 32.0225,28.2075 C32.2695012,27.6051637 32.5901647,27.1198352 32.9845,26.7515 C33.3788353,26.3831648 33.8186642,26.1188341 34.304,25.9585 C34.7893358,25.7981659 35.2746642,25.718 35.76,25.718 C36.2800026,25.718 36.7198315,25.7526663 37.0795,25.822 C37.4391685,25.8913337 37.7359988,25.9736662 37.97,26.069 L37.619,27.577 C37.4196657,27.4816662 37.1835014,27.4123335 36.9105,27.369 C36.6374986,27.3256664 36.3060019,27.304 35.916,27.304 C35.1966631,27.304 34.6181689,27.5596641 34.1805,28.071 C33.7428311,28.5823359 33.524,29.375328 33.524,30.45 C33.524,30.9180023 33.5759995,31.3448314 33.68,31.7305 C33.7840005,32.1161686 33.9421656,32.4454986 34.1545,32.7185 C34.3668344,32.9915014 34.6311651,33.2038326 34.9475,33.3555 C35.2638349,33.5071674 35.6299979,33.583 36.046,33.583 C36.436002,33.583 36.765332,33.5440004 37.034,33.466 C37.302668,33.3879996 37.5366657,33.2883339 37.736,33.167 L38.1,34.623 Z" id="AAC" fill="#FFFFFF"></path>
        </g>
    </g>
</svg>