<?xml version="1.0" encoding="UTF-8"?>
<svg width="54px" height="54px" viewBox="0 0 54 54" version="1.1" xmlns="http://www.w3.org/2000/svg" xmlns:xlink="http://www.w3.org/1999/xlink">
    <!-- Generator: Sketch 47.1 (45422) - http://www.bohemiancoding.com/sketch -->
    <title>asf</title>
    <desc>Created with Sketch.</desc>
    <defs></defs>
    <g id="guidelines" stroke="none" stroke-width="1" fill="none" fill-rule="evenodd">
        <g id="asf">
            <path d="M33,6 L44,15 L44,46 L44,46 C44,47.1045695 43.1045695,48 42,48 L12,48 L12,48 C10.8954305,48 10,47.1045695 10,46 L10,8 L10,8 C10,6.8954305 10.8954305,6 12,6 L33,6 Z" id="Fill-1" fill="#EAEAEA"></path>
            <path d="M44,15 L35,15 L35,15 C33.8954305,15 33,14.1045695 33,13 L33,6 L44,15 Z" id="Fill-3" fill="#C6C6C6"></path>
            <polygon id="Fill-5" fill="#E94343" points="10 39 44 39 44 23 10 23"></polygon>
            <path d="M21.265,32.985 L18.47,32.985 L17.781,35 L16,35 L19.276,25.835 L20.589,25.835 L23.865,35 L21.993,35 L21.265,32.985 Z M18.925,31.555 L20.875,31.555 L20.199,29.527 L19.926,28.097 L19.861,28.097 L19.588,29.54 L18.925,31.555 Z M28.571,32.556 C28.571,32.2786653 28.4691677,32.0533342 28.2655,31.88 C28.0618323,31.7066658 27.8061682,31.5485007 27.4985,31.4055 C27.1908318,31.2624993 26.8571685,31.1151674 26.4975,30.9635 C26.1378315,30.8118326 25.8041682,30.6255011 25.4965,30.4045 C25.1888318,30.1834989 24.9331677,29.908335 24.7295,29.579 C24.5258323,29.249665 24.424,28.8293359 24.424,28.318 C24.424,27.8759978 24.4976659,27.4925016 24.645,27.1675 C24.7923341,26.8424984 25.0024986,26.5716677 25.2755,26.355 C25.5485014,26.1383323 25.8713315,25.9780005 26.244,25.874 C26.6166685,25.7699995 27.0326644,25.718 27.492,25.718 C28.0206693,25.718 28.5189977,25.7634995 28.987,25.8545 C29.4550023,25.9455005 29.8406651,26.0776658 30.144,26.251 L29.585,27.746 C29.3943324,27.6246661 29.1083352,27.5141672 28.727,27.4145 C28.3456648,27.3148328 27.9340022,27.265 27.492,27.265 C27.0759979,27.265 26.7575011,27.3473325 26.5365,27.512 C26.3154989,27.6766675 26.205,27.8976653 26.205,28.175 C26.205,28.4350013 26.3068323,28.6516658 26.5105,28.825 C26.7141677,28.9983342 26.9698318,29.1586659 27.2775,29.306 C27.5851682,29.4533341 27.9188315,29.6049992 28.2785,29.761 C28.6381685,29.9170008 28.9718318,30.1054989 29.2795,30.3265 C29.5871682,30.5475011 29.8428323,30.8204984 30.0465,31.1455 C30.2501677,31.4705016 30.352,31.8756642 30.352,32.361 C30.352,32.8463358 30.2718341,33.2644982 30.1115,33.6155 C29.9511659,33.9665018 29.7258348,34.2589988 29.4355,34.493 C29.1451652,34.7270012 28.7941687,34.9003328 28.3825,35.013 C27.9708313,35.1256672 27.5180025,35.182 27.024,35.182 C26.3739968,35.182 25.8020025,35.1213339 25.308,35 C24.8139975,34.8786661 24.4500012,34.7573339 24.216,34.636 L24.788,33.115 C24.8833338,33.1670003 25.0068326,33.223333 25.1585,33.284 C25.3101674,33.344667 25.4813324,33.4009997 25.672,33.453 C25.8626676,33.5050003 26.0641656,33.5483332 26.2765,33.583 C26.4888344,33.6176668 26.7076655,33.635 26.933,33.635 C27.4616693,33.635 27.8668319,33.5461676 28.1485,33.3685 C28.4301681,33.1908324 28.571,32.9200018 28.571,32.556 Z M31.535,25.9 L36.93,25.9 L36.93,27.486 L33.316,27.486 L33.316,29.735 L36.644,29.735 L36.644,31.321 L33.316,31.321 L33.316,35 L31.535,35 L31.535,25.9 Z" id="ASF" fill="#FFFFFF"></path>
        </g>
    </g>
</svg>