<?xml version="1.0" encoding="UTF-8"?>
<svg width="54px" height="54px" viewBox="0 0 54 54" version="1.1" xmlns="http://www.w3.org/2000/svg" xmlns:xlink="http://www.w3.org/1999/xlink">
    <!-- Generator: Sketch 47.1 (45422) - http://www.bohemiancoding.com/sketch -->
    <title>bmp</title>
    <desc>Created with Sketch.</desc>
    <defs></defs>
    <g id="guidelines" stroke="none" stroke-width="1" fill="none" fill-rule="evenodd">
        <g id="bmp">
            <path d="M33,6 L44,15 L44,46 L44,46 C44,47.1045695 43.1045695,48 42,48 L12,48 L12,48 C10.8954305,48 10,47.1045695 10,46 L10,8 L10,8 C10,6.8954305 10.8954305,6 12,6 L33,6 Z" id="Fill-1" fill="#EAEAEA"></path>
            <path d="M44,15 L35,15 L35,15 C33.8954305,15 33,14.1045695 33,13 L33,6 L44,15 Z" id="Fill-3" fill="#C6C6C6"></path>
            <polygon id="Fill-5" fill="#60BDE8" points="10 39 44 39 44 23 10 23"></polygon>
            <path d="M21.903,28.019 C21.903,28.2443345 21.8748336,28.4696655 21.8185,28.695 C21.7621664,28.9203345 21.6690007,29.1261657 21.539,29.3125 C21.4089994,29.4988343 21.240001,29.6634993 21.032,29.8065 C20.823999,29.9495007 20.5726681,30.0556663 20.278,30.125 L20.278,30.203 C20.5380013,30.2463335 20.7849988,30.3199995 21.019,30.424 C21.2530012,30.5280005 21.4566658,30.6709991 21.63,30.853 C21.8033342,31.0350009 21.9398328,31.2559987 22.0395,31.516 C22.1391672,31.7760013 22.189,32.0836649 22.189,32.439 C22.189,32.9070023 22.0893343,33.312165 21.89,33.6545 C21.6906657,33.996835 21.4241683,34.2763322 21.0905,34.493 C20.7568317,34.7096678 20.3776688,34.8699995 19.953,34.974 C19.5283312,35.0780005 19.0906689,35.13 18.64,35.13 L18.0745,35.13 C17.8448322,35.13 17.5978347,35.1235001 17.3335,35.1105 C17.0691653,35.0974999 16.8005014,35.0780001 16.5275,35.052 C16.2544986,35.0259999 16.0053345,34.9870003 15.78,34.935 L15.78,25.965 C15.9446675,25.9389999 16.1331656,25.9130001 16.3455,25.887 C16.5578344,25.8609999 16.7853321,25.8393334 17.028,25.822 C17.2706679,25.8046666 17.5198321,25.7916667 17.7755,25.783 C18.0311679,25.7743333 18.2846654,25.77 18.536,25.77 C18.9606688,25.77 19.374498,25.8024997 19.7775,25.8675 C20.180502,25.9325003 20.5401651,26.0473325 20.8565,26.212 C21.1728349,26.3766675 21.4263324,26.6063319 21.617,26.901 C21.8076676,27.1956681 21.903,27.5683311 21.903,28.019 Z M18.653,33.661 C18.8696678,33.661 19.0798323,33.6350003 19.2835,33.583 C19.4871677,33.5309997 19.6669992,33.4508339 19.823,33.3425 C19.9790008,33.2341661 20.1046662,33.0976675 20.2,32.933 C20.2953338,32.7683325 20.343,32.5733345 20.343,32.348 C20.343,32.0619986 20.2866672,31.8366675 20.174,31.672 C20.0613328,31.5073325 19.9140009,31.3795005 19.732,31.2885 C19.5499991,31.1974995 19.3463345,31.1390001 19.121,31.113 C18.8956655,31.0869999 18.6703345,31.074 18.445,31.074 L17.496,31.074 L17.496,33.583 C17.5393336,33.6003334 17.6086662,33.6133333 17.704,33.622 C17.7993338,33.6306667 17.9011661,33.6371666 18.0095,33.6415 C18.1178339,33.6458334 18.2304994,33.6501666 18.3475,33.6545 C18.4645006,33.6588334 18.5663329,33.661 18.653,33.661 Z M18.068,29.722 C18.1893339,29.722 18.3301659,29.7176667 18.4905,29.709 C18.6508341,29.7003333 18.7829995,29.6873334 18.887,29.67 C19.216335,29.5659995 19.5001655,29.410001 19.7385,29.202 C19.9768345,28.993999 20.096,28.7210017 20.096,28.383 C20.096,28.1576655 20.0526671,27.9713341 19.966,27.824 C19.8793329,27.6766659 19.7645007,27.5596671 19.6215,27.473 C19.4784993,27.3863329 19.3160009,27.3256668 19.134,27.291 C18.9519991,27.2563332 18.7613343,27.239 18.562,27.239 C18.3366655,27.239 18.1286676,27.2433333 17.938,27.252 C17.7473324,27.2606667 17.6000005,27.2736666 17.496,27.291 L17.496,29.722 L18.068,29.722 Z M30.522,30.281 L30.717,28.474 L30.639,28.474 L30.08,29.93 L28.143,33.323 L27.571,33.323 L25.53,29.917 L24.958,28.474 L24.893,28.474 L25.153,30.268 L25.153,35 L23.463,35 L23.463,25.9 L25.088,25.9 L27.519,30.06 L27.948,31.1 L28,31.1 L28.39,30.034 L30.691,25.9 L32.303,25.9 L32.303,35 L30.522,35 L30.522,30.281 Z M33.863,25.991 C34.2270018,25.9216663 34.6278311,25.8675002 35.0655,25.8285 C35.5031689,25.7894998 35.9386645,25.77 36.372,25.77 C36.8226689,25.77 37.2754977,25.806833 37.7305,25.8805 C38.1855023,25.954167 38.5949982,26.1014989 38.959,26.3225 C39.3230018,26.5435011 39.6198322,26.8511647 39.8495,27.2455 C40.0791678,27.6398353 40.194,28.1533302 40.194,28.786 C40.194,29.3580029 40.0943343,29.8411647 39.895,30.2355 C39.6956657,30.6298353 39.431335,30.9526654 39.102,31.204 C38.772665,31.4553346 38.3978354,31.6373328 37.9775,31.75 C37.5571646,31.8626672 37.1216689,31.919 36.671,31.919 L36.463,31.919 C36.3676662,31.919 36.2680005,31.9168334 36.164,31.9125 C36.0599995,31.9081666 35.9581672,31.9016667 35.8585,31.893 C35.7588328,31.8843333 35.6873336,31.8756667 35.644,31.867 L35.644,35 L33.863,35 L33.863,25.991 Z M36.515,27.304 C36.3416658,27.304 36.1770008,27.3104999 36.021,27.3235 C35.8649992,27.3365001 35.7393338,27.3516666 35.644,27.369 L35.644,30.32 C35.6786668,30.3286667 35.7306663,30.3373333 35.8,30.346 C35.8693337,30.3546667 35.9429996,30.3611666 36.021,30.3655 C36.0990004,30.3698334 36.174833,30.372 36.2485,30.372 L36.411,30.372 C36.6450012,30.372 36.8768322,30.3503335 37.1065,30.307 C37.3361678,30.2636664 37.5419991,30.1835006 37.724,30.0665 C37.9060009,29.9494994 38.0511661,29.787001 38.1595,29.579 C38.2678339,29.370999 38.322,29.0980017 38.322,28.76 C38.322,28.4739986 38.2700005,28.2378343 38.166,28.0515 C38.0619995,27.8651657 37.9255008,27.7156672 37.7565,27.603 C37.5874992,27.4903328 37.3946678,27.4123335 37.178,27.369 C36.9613322,27.3256664 36.7403345,27.304 36.515,27.304 Z" id="BMP" fill="#FFFFFF"></path>
        </g>
    </g>
</svg>