<?xml version="1.0" encoding="UTF-8"?>
<svg width="54px" height="54px" viewBox="0 0 54 54" version="1.1" xmlns="http://www.w3.org/2000/svg" xmlns:xlink="http://www.w3.org/1999/xlink">
    <!-- Generator: Sketch 47.1 (45422) - http://www.bohemiancoding.com/sketch -->
    <title>doc</title>
    <desc>Created with Sketch.</desc>
    <defs></defs>
    <g id="guidelines" stroke="none" stroke-width="1" fill="none" fill-rule="evenodd">
        <g id="doc">
            <path d="M33,6 L44,15 L44,46 L44,46 C44,47.1045695 43.1045695,48 42,48 L12,48 L12,48 C10.8954305,48 10,47.1045695 10,46 L10,8 L10,8 C10,6.8954305 10.8954305,6 12,6 L33,6 Z" id="Fill-1" fill="#EAEAEA"></path>
            <path d="M44,15 L35,15 L35,15 C33.8954305,15 33,14.1045695 33,13 L33,6 L44,15 Z" id="Fill-3" fill="#C6C6C6"></path>
            <polygon id="Fill-5" fill="#0078AF" points="10 39 44 39 44 23 10 23"></polygon>
            <path d="M15.78,25.9 C15.9620009,25.8739999 16.1678322,25.8523334 16.3975,25.835 C16.6271678,25.8176666 16.8633321,25.8046667 17.106,25.796 C17.3486679,25.7873333 17.5848322,25.7808334 17.8145,25.7765 C18.0441678,25.7721666 18.2499991,25.77 18.432,25.77 C19.238004,25.77 19.9269971,25.8826655 20.499,26.108 C21.0710029,26.3333345 21.5346649,26.6496646 21.89,27.057 C22.2453351,27.4643354 22.5053325,27.9496639 22.67,28.513 C22.8346675,29.0763361 22.917,29.6959966 22.917,30.372 C22.917,30.9873364 22.8390008,31.5809971 22.683,32.153 C22.5269992,32.7250029 22.2670018,33.2319978 21.903,33.674 C21.5389982,34.1160022 21.0601696,34.471332 20.4665,34.74 C19.8728304,35.008668 19.1383377,35.143 18.263,35.143 C18.1243326,35.143 17.9401678,35.1386667 17.7105,35.13 C17.4808322,35.1213333 17.2425012,35.1105001 16.9955,35.0975 C16.7484988,35.0844999 16.5123345,35.0715001 16.287,35.0585 C16.0616655,35.0454999 15.8926672,35.0303334 15.78,35.013 L15.78,25.9 Z M18.575,27.356 C18.3843324,27.356 18.191501,27.3603333 17.9965,27.369 C17.801499,27.3776667 17.6563338,27.3906666 17.561,27.408 L17.561,33.505 C17.5956668,33.5136667 17.6541663,33.5201666 17.7365,33.5245 C17.8188337,33.5288334 17.9076662,33.5331666 18.003,33.5375 C18.0983338,33.5418334 18.1893329,33.5461666 18.276,33.5505 C18.3626671,33.5548334 18.4276665,33.557 18.471,33.557 C18.9736692,33.557 19.3918317,33.4681676 19.7255,33.2905 C20.0591683,33.1128324 20.323499,32.8766681 20.5185,32.582 C20.713501,32.2873319 20.8499996,31.9471686 20.928,31.5615 C21.0060004,31.1758314 21.045,30.7793354 21.045,30.372 C21.045,30.0166649 21.0103337,29.6591685 20.941,29.2995 C20.8716663,28.9398315 20.7438343,28.6170014 20.5575,28.331 C20.3711657,28.0449986 20.1176683,27.8110009 19.797,27.629 C19.4763317,27.4469991 19.0690025,27.356 18.575,27.356 Z M23.905,30.45 C23.905,28.9333258 24.2386633,27.7655041 24.906,26.9465 C25.5733367,26.1274959 26.5266605,25.718 27.766,25.718 C28.4160033,25.718 28.9836642,25.8306655 29.469,26.056 C29.9543358,26.2813345 30.3573317,26.6019979 30.678,27.018 C30.9986683,27.4340021 31.2369992,27.9323304 31.393,28.513 C31.5490008,29.0936696 31.627,29.7393298 31.627,30.45 C31.627,31.9666743 31.29117,33.1344959 30.6195,33.9535 C29.94783,34.7725041 28.9966728,35.182 27.766,35.182 C27.10733,35.182 26.5353358,35.0693345 26.05,34.844 C25.5646642,34.6186655 25.1638349,34.2980021 24.8475,33.882 C24.5311651,33.4659979 24.2950008,32.9676696 24.139,32.387 C23.9829992,31.8063304 23.905,31.1606702 23.905,30.45 Z M25.777,30.45 C25.777,30.9093356 25.8159996,31.3318314 25.894,31.7175 C25.9720004,32.1031686 26.0911659,32.4346653 26.2515,32.712 C26.4118341,32.9893347 26.6176654,33.2059992 26.869,33.362 C27.1203346,33.5180008 27.4193316,33.596 27.766,33.596 C28.3986698,33.596 28.8883316,33.3490025 29.235,32.855 C29.5816684,32.3609975 29.755,31.5593389 29.755,30.45 C29.755,30.0079978 29.718167,29.5963352 29.6445,29.215 C29.570833,28.8336648 29.4560008,28.5000014 29.3,28.214 C29.1439992,27.9279986 28.9403346,27.7048341 28.689,27.5445 C28.4376654,27.3841659 28.1300018,27.304 27.766,27.304 C27.1333302,27.304 26.6436684,27.5574975 26.297,28.0645 C25.9503316,28.5715025 25.777,29.3666612 25.777,30.45 Z M39.063,34.623 C38.7856653,34.8223343 38.4325021,34.9653329 38.0035,35.052 C37.5744979,35.1386671 37.1346689,35.182 36.684,35.182 C36.1379973,35.182 35.6201691,35.0975008 35.1305,34.9285 C34.6408309,34.7594992 34.2096685,34.4865019 33.837,34.1095 C33.4643315,33.7324981 33.1675011,33.2428363 32.9465,32.6405 C32.7254989,32.0381637 32.615,31.3080043 32.615,30.45 C32.615,29.5573289 32.7384988,28.8098363 32.9855,28.2075 C33.2325012,27.6051637 33.5531647,27.1198352 33.9475,26.7515 C34.3418353,26.3831648 34.7816642,26.1188341 35.267,25.9585 C35.7523358,25.7981659 36.2376642,25.718 36.723,25.718 C37.2430026,25.718 37.6828315,25.7526663 38.0425,25.822 C38.4021685,25.8913337 38.6989988,25.9736662 38.933,26.069 L38.582,27.577 C38.3826657,27.4816662 38.1465014,27.4123335 37.8735,27.369 C37.6004986,27.3256664 37.269002,27.304 36.879,27.304 C36.1596631,27.304 35.5811689,27.5596641 35.1435,28.071 C34.7058311,28.5823359 34.487,29.375328 34.487,30.45 C34.487,30.9180023 34.5389995,31.3448314 34.643,31.7305 C34.7470005,32.1161686 34.9051656,32.4454986 35.1175,32.7185 C35.3298344,32.9915014 35.5941651,33.2038326 35.9105,33.3555 C36.2268349,33.5071674 36.5929979,33.583 37.009,33.583 C37.3990019,33.583 37.728332,33.5440004 37.997,33.466 C38.265668,33.3879996 38.4996657,33.2883339 38.699,33.167 L39.063,34.623 Z" id="DOC" fill="#FFFFFF"></path>
        </g>
    </g>
</svg>