<?xml version="1.0" encoding="UTF-8"?>
<svg width="54px" height="54px" viewBox="0 0 54 54" version="1.1" xmlns="http://www.w3.org/2000/svg" xmlns:xlink="http://www.w3.org/1999/xlink">
    <!-- Generator: Sketch 47.1 (45422) - http://www.bohemiancoding.com/sketch -->
    <title>docx</title>
    <desc>Created with Sketch.</desc>
    <defs></defs>
    <g id="guidelines" stroke="none" stroke-width="1" fill="none" fill-rule="evenodd">
        <g id="docx">
            <path d="M33,6 L44,15 L44,46 L44,46 C44,47.1045695 43.1045695,48 42,48 L12,48 L12,48 C10.8954305,48 10,47.1045695 10,46 L10,8 L10,8 C10,6.8954305 10.8954305,6 12,6 L33,6 Z" id="Fill-1" fill="#EAEAEA"></path>
            <path d="M44,15 L35,15 L35,15 C33.8954305,15 33,14.1045695 33,13 L33,6 L44,15 Z" id="Fill-3" fill="#C6C6C6"></path>
            <polygon id="Fill-5" fill="#0078AF" points="10 39 44 39 44 23 10 23"></polygon>
            <path d="M13.72,26.6 C13.8880008,26.5759999 14.0779989,26.5560001 14.29,26.54 C14.5020011,26.5239999 14.7199989,26.512 14.944,26.504 C15.1680011,26.496 15.3859989,26.49 15.598,26.486 C15.8100011,26.482 15.9999992,26.48 16.168,26.48 C16.9120037,26.48 17.5479974,26.583999 18.076,26.792 C18.6040026,27.000001 19.0319984,27.2919981 19.36,27.668 C19.6880016,28.0440019 19.9279992,28.4919974 20.08,29.012 C20.2320008,29.5320026 20.308,30.1039969 20.308,30.728 C20.308,31.2960028 20.2360007,31.8439974 20.092,32.372 C19.9479993,32.9000026 19.7080017,33.367998 19.372,33.776 C19.0359983,34.184002 18.5940027,34.5119988 18.046,34.76 C17.4979973,35.0080012 16.820004,35.132 16.012,35.132 C15.8839994,35.132 15.7140011,35.128 15.502,35.12 C15.2899989,35.112 15.0700011,35.1020001 14.842,35.09 C14.6139989,35.0779999 14.396001,35.0660001 14.188,35.054 C13.979999,35.0419999 13.8240005,35.0280001 13.72,35.012 L13.72,26.6 Z M16.3,27.944 C16.1239991,27.944 15.9460009,27.948 15.766,27.956 C15.5859991,27.964 15.4520004,27.9759999 15.364,27.992 L15.364,33.62 C15.3960002,33.628 15.4499996,33.634 15.526,33.638 C15.6020004,33.642 15.6839996,33.646 15.772,33.65 C15.8600004,33.654 15.9439996,33.658 16.024,33.662 C16.1040004,33.666 16.1639998,33.668 16.204,33.668 C16.6680023,33.668 17.0539985,33.5860008 17.362,33.422 C17.6700015,33.2579992 17.9139991,33.0400014 18.094,32.768 C18.2740009,32.4959986 18.3999996,32.1820018 18.472,31.826 C18.5440004,31.4699982 18.58,31.1040019 18.58,30.728 C18.58,30.3999984 18.5480003,30.0700017 18.484,29.738 C18.4199997,29.4059983 18.3020009,29.1080013 18.13,28.844 C17.9579991,28.5799987 17.7240015,28.3640008 17.428,28.196 C17.1319985,28.0279992 16.7560023,27.944 16.3,27.944 Z M21.22,30.8 C21.22,29.399993 21.5279969,28.3220038 22.144,27.566 C22.7600031,26.8099962 23.6399943,26.432 24.784,26.432 C25.384003,26.432 25.9079978,26.535999 26.356,26.744 C26.8040022,26.952001 27.1759985,27.2479981 27.472,27.632 C27.7680015,28.0160019 27.9879993,28.4759973 28.132,29.012 C28.2760007,29.5480027 28.348,30.1439967 28.348,30.8 C28.348,32.200007 28.0380031,33.2779962 27.418,34.034 C26.7979969,34.7900038 25.9200057,35.168 24.784,35.168 C24.175997,35.168 23.6480022,35.064001 23.2,34.856 C22.7519978,34.647999 22.3820015,34.3520019 22.09,33.968 C21.7979985,33.5839981 21.5800007,33.1240027 21.436,32.588 C21.2919993,32.0519973 21.22,31.4560033 21.22,30.8 Z M22.948,30.8 C22.948,31.2240021 22.9839996,31.6139982 23.056,31.97 C23.1280004,32.3260018 23.2379993,32.6319987 23.386,32.888 C23.5340007,33.1440013 23.7239988,33.3439993 23.956,33.488 C24.1880012,33.6320007 24.4639984,33.704 24.784,33.704 C25.3680029,33.704 25.8199984,33.4760023 26.14,33.02 C26.4600016,32.5639977 26.62,31.8240051 26.62,30.8 C26.62,30.391998 26.5860003,30.0120018 26.518,29.66 C26.4499997,29.3079982 26.3440007,29.0000013 26.2,28.736 C26.0559993,28.4719987 25.8680012,28.2660007 25.636,28.118 C25.4039988,27.9699993 25.1200017,27.896 24.784,27.896 C24.1999971,27.896 23.7480016,28.1299977 23.428,28.598 C23.1079984,29.0660023 22.948,29.799995 22.948,30.8 Z M35.212,34.652 C34.9559987,34.8360009 34.630002,34.9679996 34.234,35.048 C33.837998,35.1280004 33.4320021,35.168 33.016,35.168 C32.5119975,35.168 32.0340023,35.0900008 31.582,34.934 C31.1299977,34.7779992 30.7320017,34.5260017 30.388,34.178 C30.0439983,33.8299983 29.770001,33.3780028 29.566,32.822 C29.361999,32.2659972 29.26,31.592004 29.26,30.8 C29.26,29.9759959 29.3739989,29.2860028 29.602,28.73 C29.8300011,28.1739972 30.1259982,27.7260017 30.49,27.386 C30.8540018,27.0459983 31.2599978,26.8020007 31.708,26.654 C32.1560022,26.5059993 32.6039978,26.432 33.052,26.432 C33.5320024,26.432 33.9379983,26.4639997 34.27,26.528 C34.6020017,26.5920003 34.8759989,26.6679996 35.092,26.756 L34.768,28.148 C34.5839991,28.0599996 34.3660013,27.9960002 34.114,27.956 C33.8619987,27.9159998 33.5560018,27.896 33.196,27.896 C32.5319967,27.896 31.998002,28.1319976 31.594,28.604 C31.189998,29.0760024 30.988,29.807995 30.988,30.8 C30.988,31.2320022 31.0359995,31.6259982 31.132,31.982 C31.2280005,32.3380018 31.373999,32.6419987 31.57,32.894 C31.766001,33.1460013 32.0099985,33.3419993 32.302,33.482 C32.5940015,33.6220007 32.9319981,33.692 33.316,33.692 C33.6760018,33.692 33.9799988,33.6560004 34.228,33.584 C34.4760012,33.5119996 34.6919991,33.4200006 34.876,33.308 L35.212,34.652 Z M37.6,30.728 L35.26,26.6 L37.24,26.6 L38.536,29.024 L38.824,29.876 L39.1,29.024 L40.456,26.6 L42.244,26.6 L39.82,30.644 L42.364,35 L40.408,35 L38.932,32.408 L38.608,31.52 L38.296,32.408 L36.808,35 L35.02,35 L37.6,30.728 Z" id="DOCX" fill="#FFFFFF"></path>
        </g>
    </g>
</svg>