<?xml version="1.0" encoding="UTF-8"?>
<svg width="54px" height="54px" viewBox="0 0 54 54" version="1.1" xmlns="http://www.w3.org/2000/svg" xmlns:xlink="http://www.w3.org/1999/xlink">
    <!-- Generator: Sketch 47.1 (45422) - http://www.bohemiancoding.com/sketch -->
    <title>flac</title>
    <desc>Created with Sketch.</desc>
    <defs></defs>
    <g id="guidelines" stroke="none" stroke-width="1" fill="none" fill-rule="evenodd">
        <g id="flac">
            <path d="M33,6 L44,15 L44,46 L44,46 C44,47.1045695 43.1045695,48 42,48 L12,48 L12,48 C10.8954305,48 10,47.1045695 10,46 L10,8 L10,8 C10,6.8954305 10.8954305,6 12,6 L33,6 Z" id="Fill-1" fill="#EAEAEA"></path>
            <path d="M44,15 L35,15 L35,15 C33.8954305,15 33,14.1045695 33,13 L33,6 L44,15 Z" id="Fill-3" fill="#C6C6C6"></path>
            <polygon id="Fill-5" fill="#606CE8" points="10 39 44 39 44 23 10 23"></polygon>
            <path d="M15.72,26.6 L20.7,26.6 L20.7,28.064 L17.364,28.064 L17.364,30.14 L20.436,30.14 L20.436,31.604 L17.364,31.604 L17.364,35 L15.72,35 L15.72,26.6 Z M27.132,35 L21.816,35 L21.816,26.6 L23.46,26.6 L23.46,33.536 L27.132,33.536 L27.132,35 Z M32.124,33.14 L29.544,33.14 L28.908,35 L27.264,35 L30.288,26.54 L31.5,26.54 L34.524,35 L32.796,35 L32.124,33.14 Z M29.964,31.82 L31.764,31.82 L31.14,29.948 L30.888,28.628 L30.828,28.628 L30.576,29.96 L29.964,31.82 Z M40.932,34.652 C40.6759987,34.8360009 40.350002,34.9679996 39.954,35.048 C39.557998,35.1280004 39.1520021,35.168 38.736,35.168 C38.2319975,35.168 37.7540023,35.0900008 37.302,34.934 C36.8499977,34.7779992 36.4520017,34.5260017 36.108,34.178 C35.7639983,33.8299983 35.490001,33.3780028 35.286,32.822 C35.081999,32.2659972 34.98,31.592004 34.98,30.8 C34.98,29.9759959 35.0939989,29.2860028 35.322,28.73 C35.5500011,28.1739972 35.8459982,27.7260017 36.21,27.386 C36.5740018,27.0459983 36.9799978,26.8020007 37.428,26.654 C37.8760022,26.5059993 38.3239978,26.432 38.772,26.432 C39.2520024,26.432 39.6579983,26.4639997 39.99,26.528 C40.3220017,26.5920003 40.5959989,26.6679996 40.812,26.756 L40.488,28.148 C40.3039991,28.0599996 40.0860013,27.9960002 39.834,27.956 C39.5819987,27.9159998 39.2760018,27.896 38.916,27.896 C38.2519967,27.896 37.718002,28.1319976 37.314,28.604 C36.909998,29.0760024 36.708,29.807995 36.708,30.8 C36.708,31.2320022 36.7559995,31.6259982 36.852,31.982 C36.9480005,32.3380018 37.093999,32.6419987 37.29,32.894 C37.486001,33.1460013 37.7299985,33.3419993 38.022,33.482 C38.3140015,33.6220007 38.6519981,33.692 39.036,33.692 C39.3960018,33.692 39.6999988,33.6560004 39.948,33.584 C40.1960012,33.5119996 40.4119991,33.4200006 40.596,33.308 L40.932,34.652 Z" id="FLAC" fill="#FFFFFF"></path>
        </g>
    </g>
</svg>