<?xml version="1.0" encoding="UTF-8"?>
<svg width="54px" height="54px" viewBox="0 0 54 54" version="1.1" xmlns="http://www.w3.org/2000/svg" xmlns:xlink="http://www.w3.org/1999/xlink">
    <!-- Generator: Sketch 47.1 (45422) - http://www.bohemiancoding.com/sketch -->
    <title>gif</title>
    <desc>Created with Sketch.</desc>
    <defs></defs>
    <g id="guidelines" stroke="none" stroke-width="1" fill="none" fill-rule="evenodd">
        <g id="gif">
            <path d="M33,6 L44,15 L44,46 L44,46 C44,47.1045695 43.1045695,48 42,48 L12,48 L12,48 C10.8954305,48 10,47.1045695 10,46 L10,8 L10,8 C10,6.8954305 10.8954305,6 12,6 L33,6 Z" id="Fill-1" fill="#EAEAEA"></path>
            <path d="M44,15 L35,15 L35,15 C33.8954305,15 33,14.1045695 33,13 L33,6 L44,15 Z" id="Fill-3" fill="#C6C6C6"></path>
            <polygon id="Fill-5" fill="#864297" points="10 39 44 39 44 23 10 23"></polygon>
            <path d="M21.991,30.255 L25.384,30.255 L25.384,34.311 C25.0199982,34.6143348 24.5845025,34.8353326 24.0775,34.974 C23.5704975,35.1126674 23.0700025,35.182 22.576,35.182 C21.9953304,35.182 21.4558358,35.0910009 20.9575,34.909 C20.4591642,34.7269991 20.0280018,34.4431686 19.664,34.0575 C19.2999982,33.6718314 19.014001,33.180003 18.806,32.582 C18.597999,31.983997 18.494,31.2733374 18.494,30.45 C18.494,29.5919957 18.6174988,28.8618363 18.8645,28.2595 C19.1115012,27.6571637 19.436498,27.1675019 19.8395,26.7905 C20.242502,26.4134981 20.6953308,26.1405008 21.198,25.9715 C21.7006692,25.8024992 22.2119974,25.718 22.732,25.718 C23.2520026,25.718 23.7091647,25.7569996 24.1035,25.835 C24.4978353,25.9130004 24.8119988,25.9953329 25.046,26.082 L24.682,27.577 C24.4653323,27.4903329 24.222668,27.4231669 23.954,27.3755 C23.685332,27.3278331 23.3430021,27.304 22.927,27.304 C22.5543315,27.304 22.2120016,27.3603328 21.9,27.473 C21.5879984,27.5856672 21.3171678,27.7698321 21.0875,28.0255 C20.8578322,28.2811679 20.6801673,28.6083313 20.5545,29.007 C20.4288327,29.4056687 20.366,29.8909971 20.366,30.463 C20.366,31.0090027 20.4266661,31.4791647 20.548,31.8735 C20.6693339,32.2678353 20.8383323,32.5928321 21.055,32.8485 C21.2716677,33.1041679 21.5251652,33.2926661 21.8155,33.414 C22.1058348,33.5353339 22.415665,33.596 22.745,33.596 C22.9703345,33.596 23.1913323,33.5678336 23.408,33.5115 C23.6246678,33.4551664 23.8066659,33.3706672 23.954,33.258 L23.954,31.542 L21.991,31.334 L21.991,30.255 Z M26.879,25.9 L28.66,25.9 L28.66,35 L26.879,35 L26.879,25.9 Z M30.402,25.9 L35.797,25.9 L35.797,27.486 L32.183,27.486 L32.183,29.735 L35.511,29.735 L35.511,31.321 L32.183,31.321 L32.183,35 L30.402,35 L30.402,25.9 Z" id="GIF" fill="#FFFFFF"></path>
        </g>
    </g>
</svg>