<?xml version="1.0" encoding="UTF-8"?>
<svg width="26px" height="26px" viewBox="0 0 26 26" version="1.1" xmlns="http://www.w3.org/2000/svg" xmlns:xlink="http://www.w3.org/1999/xlink">
    <!-- Generator: Sketch 47.1 (45422) - http://www.bohemiancoding.com/sketch -->
    <title>Shape</title>
    <desc>Created with Sketch.</desc>
    <defs></defs>
    <g id="Page-1" stroke="none" stroke-width="1" fill="none" fill-rule="evenodd">
        <g id="2.1_А_Руководство" transform="translate(-980.000000, -360.000000)" fill-rule="nonzero" fill="#2AAC4A">
            <g id="Group-9" transform="translate(966.000000, 346.000000)">
                <path d="M24.2631598,14.000018 C23.9060193,14.0003601 23.6217403,14.316212 23.5789498,14.5987017 L23.3009895,17.0896536 C23.0637021,17.1804825 22.8315668,17.272844 22.6060888,17.3783047 L20.649676,15.8174507 C20.3917733,15.6088454 19.9781341,15.6283111 19.7409596,15.8602138 L15.8708971,19.7302764 C15.6302091,19.9657951 15.6056699,20.3878603 15.8174431,20.6496835 L17.3782971,22.6060964 C17.2735685,22.8303564 17.1798831,23.0650507 17.089646,23.3009971 L14.6093849,23.5789574 C14.2767734,23.6155797 13.9980331,23.928551 14.0000105,24.2631673 L14.0000105,29.7368196 C14.0030894,30.0678746 14.2803107,30.374127 14.6093849,30.4103559 L17.089646,30.6883162 C17.1810633,30.9273449 17.2720359,31.1668526 17.3782971,31.3939077 L15.8174431,33.3503034 C15.6115781,33.610748 15.6359222,34.0245581 15.8708971,34.2590369 L19.7409596,38.1290995 C19.9754452,38.3640571 20.3892588,38.388415 20.649676,38.1825362 L22.6167796,36.6110086 C22.8399552,36.7152138 23.0662439,36.8097716 23.3009895,36.8996426 L23.5789498,39.3906116 C23.6155722,39.723206 23.9285435,40.0019531 24.2631598,39.9999689 L29.7368394,39.9999689 C30.0714557,40.00339 30.384427,39.723206 30.4210494,39.3906116 L30.6990097,36.8996426 C30.9337553,36.8097716 31.160044,36.7152138 31.3832196,36.6110086 L33.3503232,38.1825362 C33.6107404,38.388415 34.024554,38.3640571 34.2590396,38.1290995 L38.1291021,34.2590369 C38.3640769,34.0245581 38.3884211,33.610748 38.182556,33.3503034 L36.6217021,31.3939077 C36.7279633,31.1668526 36.8189359,30.9273449 36.9103532,30.6883162 L39.3906142,30.4103559 C39.7196884,30.374127 39.9967695,30.0678746 39.9999887,29.7368196 L39.9999887,24.2631673 C40.0020414,23.928551 39.7232258,23.6155797 39.3906142,23.5789574 L36.9103532,23.3009971 C36.8201161,23.0650473 36.7264307,22.8303564 36.6217021,22.6060964 L38.182556,20.6496835 C38.3943293,20.3878603 38.3697901,19.9657951 38.1291021,19.7302764 L34.2590396,15.8602138 C34.021865,15.6283111 33.6082259,15.6088454 33.3503232,15.8174507 L31.3939104,17.3783047 C31.1684324,17.272844 30.9362971,17.1804825 30.6990097,17.0896536 L30.4210494,14.5987017 C30.3795999,14.2698499 30.0682844,13.9974488 29.7368394,14.000018 L24.2631598,14.000018 Z M24.883225,15.3684379 L29.1167741,15.3684379 L29.3733529,17.6348834 C29.4055792,17.8920677 29.5968843,18.1224891 29.8437472,18.2014948 C30.3025989,18.3499889 30.7508146,18.5539826 31.1907856,18.7787969 C31.423482,18.8974218 31.7243188,18.8669026 31.9284494,18.7039615 L33.7351913,17.2713969 L36.7286099,20.2648154 L35.2960453,22.0715573 C35.1331041,22.275688 35.1025849,22.5765248 35.2212098,22.8092212 C35.4460275,23.2492092 35.639334,23.6867239 35.7878212,24.1455688 C35.8683219,24.3953875 36.104193,24.5875787 36.3651234,24.6159631 L38.6315688,24.8725418 L38.6315688,29.1167543 L36.3651234,29.3733331 C36.104193,29.4017278 35.8683219,29.5939224 35.7878212,29.8437274 C35.6393305,30.3025928 35.4460241,30.7401109 35.2212098,31.1800921 C35.0981376,31.4152551 35.1288449,31.7222943 35.2960453,31.9284467 L36.7286099,33.7244979 L33.7245006,36.7285901 L31.9284494,35.2960255 C31.7243188,35.1330809 31.423482,35.1025651 31.1907856,35.2212071 C30.7508044,35.4460043 30.3025887,35.6393278 29.8437472,35.7878014 C29.5968843,35.8668277 29.4055894,36.0972354 29.3733529,36.3544299 L29.1167741,38.631549 L24.883225,38.631549 L24.6266463,36.3544299 C24.59442,36.0972354 24.4031149,35.8668277 24.156252,35.7878014 C23.6974105,35.6393278 23.2491948,35.4460043 22.8092136,35.2212071 C22.5765172,35.1025651 22.2756804,35.1330809 22.0715498,35.2960255 L20.2754986,36.7285901 L17.2713893,33.7244979 L18.7039539,31.9284467 C18.8711543,31.7222943 18.9018616,31.4152551 18.7787894,31.1800921 C18.5539751,30.7401109 18.3606687,30.3025928 18.212178,29.8437274 C18.1316773,29.5939224 17.8958061,29.4017278 17.6348758,29.3733331 L15.3684304,29.1167543 L15.3684304,24.8725418 L17.6348758,24.6159631 C17.8958061,24.5875684 18.1316773,24.3953875 18.212178,24.1455688 C18.3606721,23.6867205 18.5539717,23.2492058 18.7787894,22.8092212 C18.8974143,22.5765248 18.8668951,22.275688 18.7039539,22.0715573 L17.2713893,20.2648154 L20.2648079,17.2713969 L22.0715498,18.7039615 C22.2756804,18.8669026 22.5765172,18.8974218 22.8092136,18.7787969 C23.2491846,18.5539826 23.6974003,18.3499889 24.156252,18.2014948 C24.4031149,18.1224891 24.5944098,17.8920677 24.6266463,17.6348834 L24.883225,15.3684379 L24.883225,15.3684379 Z M26.9999996,20.8421176 C23.6071906,20.8421176 20.84211,23.6071845 20.84211,26.9999798 C20.84211,30.3927717 23.6071974,33.1578694 26.9999996,33.1578694 C30.3928018,33.1578694 33.1578892,30.3927717 33.1578892,26.9999798 C33.1578892,23.6071845 30.3928086,20.8421176 26.9999996,20.8421176 Z M26.9999996,22.2105375 C29.6532529,22.2105375 31.7894693,24.3467265 31.7894693,26.9999798 C31.7894693,29.6532434 29.6532597,31.7894495 26.9999996,31.7894495 C24.3467394,31.7894495 22.2105299,29.6532434 22.2105299,26.9999798 C22.2105299,24.3467265 24.3467463,22.2105375 26.9999996,22.2105375 Z" id="Shape"></path>
            </g>
        </g>
    </g>
</svg>