<?xml version="1.0" encoding="UTF-8"?>
<svg width="40px" height="54px" viewBox="0 0 40 54" version="1.1" xmlns="http://www.w3.org/2000/svg" xmlns:xlink="http://www.w3.org/1999/xlink">
    <!-- Generator: Sketch 47.1 (45422) - http://www.bohemiancoding.com/sketch -->
    <title>Combined Shape</title>
    <desc>Created with Sketch.</desc>
    <defs></defs>
    <g id="Page-1" stroke="none" stroke-width="1" fill="none" fill-rule="evenodd">
        <g id="3.2_А_Руководство_Орган-управления" transform="translate(-207.000000, -667.000000)" fill-rule="nonzero" fill="#99B0C6">
            <g id="Group-12" transform="translate(180.000000, 560.000000)">
                <path d="M62.2900987,143.817345 L54.6251289,141.491519 C54.0174105,141.30719 53.6093137,140.752344 53.6093137,140.110825 L53.6093137,137.317672 C54.1604031,136.945972 54.6872706,136.527979 55.1815638,136.0593 C57.5863781,133.77943 58.9655214,130.560681 58.9655214,127.228226 L58.9655214,124.818768 L59.4654943,123.807239 C60.014412,122.696702 60.3045733,121.453536 60.3045733,120.212229 L60.3045733,108.267157 C60.3045733,107.567349 59.7437952,107 59.0517179,107 L42.9827607,107 C37.8617558,107 33.6954267,111.213721 33.6954267,116.393354 L33.6954267,120.212397 C33.6954267,121.453367 33.9854209,122.696364 34.5343387,123.807408 L35.0344786,124.818768 L35.0344786,126.857202 C35.0344786,131.177027 37.1564816,135.019893 40.3906863,137.262086 L40.3906863,140.110825 C40.3906863,140.752344 39.9825895,141.30719 39.3748711,141.491519 L31.7099013,143.817345 C28.892814,144.672085 27,147.245259 27,150.220038 L27,159.732843 C27.000167,160.432651 27.5611122,161 28.2530225,161 C28.9450999,161 29.505878,160.432651 29.505878,159.732843 L29.505878,150.220038 C29.505878,148.373029 30.6810564,146.775566 32.4302097,146.244712 L40.0951794,143.918886 C40.5012716,143.795719 40.8742885,143.611389 41.207548,143.379246 L45.4447052,146.593433 C45.9025821,146.940803 46.4511658,147.114488 47.0000835,147.114488 C47.5486672,147.114488 48.0974179,146.940803 48.5552948,146.593433 L52.792619,143.379246 C53.1258786,143.611389 53.4988954,143.795719 53.9049876,143.918886 L61.5699574,146.244712 C63.3191106,146.775397 64.4942891,148.373029 64.4942891,150.220038 L64.4942891,159.732843 C64.4942891,160.432651 65.0550672,161 65.7471445,161 C66.4392219,161 67,160.432651 67,159.732843 L67,150.220038 C67,147.245259 65.107186,144.672254 62.2900987,143.817345 Z M47.0515341,144.56615 C47.0211315,144.589128 46.9788685,144.589297 46.9482988,144.56615 L42.7042927,141.346895 C42.8289101,140.956272 42.8965643,140.540982 42.8965643,140.110994 L42.8965643,138.583309 C43.938773,138.979 45.0489699,139.228376 46.2061073,139.304237 C46.4757217,139.321808 46.7438328,139.330594 47.0109416,139.330594 C48.4288399,139.330594 49.8074821,139.080203 51.1034357,138.6024 L51.1034357,140.110825 C51.1034357,140.540813 51.1710899,140.956103 51.2957073,141.346726 L47.0515341,144.56615 Z M46.3681432,136.77499 C41.4178607,136.450936 37.5403566,132.094449 37.5403566,126.857033 L37.5401895,124.519381 C37.5401895,124.322718 37.4949197,124.12859 37.407888,123.952708 L36.7757806,122.673893 C36.399924,121.913261 36.2013046,121.0619 36.2013046,120.212229 L36.2013046,116.393354 C36.2013046,112.611311 39.2435718,109.534315 42.9829278,109.534315 L57.7990295,109.534315 L57.7990295,120.21206 C57.7990295,121.062069 57.6004101,121.91343 57.2245535,122.673724 L56.5922791,123.952708 C56.5052474,124.12859 56.4599775,124.322718 56.4599775,124.519381 L56.4599775,127.228057 C56.4599775,129.901421 55.3975561,132.380995 53.4679916,134.210095 C51.5402647,136.037843 49.0168467,136.948844 46.3681432,136.77499 Z M47.0000835,148.985151 C47.6921609,148.985151 48.252939,149.552499 48.252939,150.252308 L48.252939,159.732843 C48.252939,160.432651 47.6921609,161 47.0000835,161 C46.3080062,161 45.7472281,160.432651 45.7472281,159.732843 L45.7472281,150.252308 C45.7472281,149.552499 46.3080062,148.985151 47.0000835,148.985151 Z M34.9482821,151.693827 C35.6403595,151.693827 36.2011376,152.261175 36.2011376,152.960984 L36.2011376,159.732843 C36.2011376,160.432651 35.6403595,161 34.9482821,161 C34.2562048,161 33.6954267,160.432651 33.6954267,159.732843 L33.6954267,152.960984 C33.6954267,152.261175 34.2562048,151.693827 34.9482821,151.693827 Z M59.0518849,151.693827 C59.7439623,151.693827 60.3047404,152.261175 60.3047404,152.960984 L60.3047404,159.732843 C60.3047404,160.432651 59.7439623,161 59.0518849,161 C58.3598076,161 57.7990295,160.432651 57.7990295,159.732843 L57.7990295,152.960984 C57.7990295,152.261175 58.3598076,151.693827 59.0518849,151.693827 Z M54.4472235,119.442811 C48.6324707,115.032089 40.2620598,117.780807 39.9084204,117.900089 C39.3967543,118.072591 39.0518014,118.556814 39.0518014,119.102199 L39.0518014,121.810874 C39.0518014,122.510683 39.6125795,123.078032 40.3046569,123.078032 C40.9967342,123.078032 41.5575123,122.510514 41.5575123,121.810705 L41.5575123,120.064731 C43.6509503,119.544521 49.1314412,118.578102 52.9437969,121.470262 C53.4977261,121.890283 54.2826818,121.776577 54.6977946,121.216831 C55.1129073,120.656916 55.0006515,119.862662 54.4472235,119.442811 Z" id="Combined-Shape"></path>
            </g>
        </g>
    </g>
</svg>