<?xml version="1.0" encoding="UTF-8"?>
<svg width="16px" height="16px" viewBox="0 0 16 16" version="1.1" xmlns="http://www.w3.org/2000/svg" xmlns:xlink="http://www.w3.org/1999/xlink">
    <!-- Generator: Sketch 47.1 (45422) - http://www.bohemiancoding.com/sketch -->
    <title>Group 10</title>
    <desc>Created with Sketch.</desc>
    <defs></defs>
    <g id="Page-1" stroke="none" stroke-width="1" fill="none" fill-rule="evenodd">
        <g id="2.1_А_Руководство" transform="translate(-440.000000, -624.000000)">
            <g id="Group-33" transform="translate(180.000000, 426.000000)">
                <g id="Group-39" transform="translate(260.000000, 196.000000)">
                    <g id="Group-10" transform="translate(0.000000, 2.000000)">
                        <rect id="Rectangle-14" x="0" y="0" width="16" height="16"></rect>
                        <path d="M12.6517964,9.91142973 C12.3237594,9.57036173 11.9280858,9.38800854 11.5087395,9.38800854 C11.092775,9.38800854 10.6937196,9.56698482 10.3521553,9.90805281 L9.28349854,10.9717797 C9.19557108,10.924503 9.10764363,10.8806031 9.023098,10.8367033 C8.90135229,10.7759189 8.78637024,10.7185114 8.68829731,10.657727 C7.68727705,10.0228678 6.77756608,9.19552462 5.90505518,8.12504388 C5.48232703,7.59149197 5.19825372,7.14236282 4.99196238,6.68647986 C5.26927205,6.43321154 5.52629076,6.1698125 5.77654582,5.91654418 C5.87123693,5.82199068 5.96592803,5.72406026 6.06061914,5.62950676 C6.77080243,4.92035548 6.77080243,4.00183573 6.06061914,3.29268445 L5.13738086,2.37078778 C5.03254428,2.26610355 4.92432588,2.1580424 4.82287112,2.04998125 C4.61996161,1.84061278 4.40690662,1.62449048 4.18708799,1.42187583 C3.85905094,1.09769239 3.46675922,0.925469936 3.05417655,0.925469936 C2.64159388,0.925469936 2.24253851,1.09769239 1.90435599,1.42187583 C1.90097416,1.42525274 1.90097416,1.42525274 1.89759234,1.42862965 L0.747771775,2.58691008 C0.314898152,3.01915467 0.0680249133,3.54595276 0.0139157104,4.15717363 C-0.067248094,5.1432316 0.223588872,6.06175135 0.446789334,6.66284148 C0.994645014,8.13855153 1.81304671,9.50620042 3.0338856,10.9717797 C4.51512503,12.7379041 6.2973469,14.1325683 8.33320566,15.1152494 C9.11102545,15.4833326 10.1492458,15.9189541 11.3092118,15.9932462 C11.3802302,15.9966231 11.4546303,16 11.5222668,16 C12.3034684,16 12.9595425,15.7197164 13.4735799,15.1625261 C13.4769618,15.1557723 13.4837254,15.1523954 13.4871072,15.1456416 C13.6629622,14.9328962 13.8658717,14.7404123 14.0789266,14.5344207 C14.2243451,14.3959673 14.3731454,14.2507602 14.5185639,14.0987992 C14.8533646,13.7509774 15.0292195,13.3457481 15.0292195,12.930388 C15.0292195,12.5116511 14.8499828,12.1097987 14.5084184,11.7721076 L12.6517964,9.91142973 Z M13.8624898,13.4673169 C13.859108,13.4673169 13.859108,13.4706938 13.8624898,13.4673169 C13.7305987,13.6091471 13.5953256,13.7374697 13.4499072,13.8793 C13.2300885,14.0886685 13.0068881,14.3081677 12.7972149,14.5546822 C12.4556506,14.9193885 12.0532134,15.091611 11.5256486,15.091611 C11.4749213,15.091611 11.4208121,15.091611 11.3700847,15.0882341 C10.3656826,15.0240728 9.43229885,14.6323511 8.73226103,14.2980369 C6.81814798,13.3727634 5.13738086,12.059145 3.74068706,10.394328 C2.58748468,9.00641762 1.81642853,7.72319149 1.30577293,6.34541186 C0.991263188,5.50456106 0.876281132,4.84944035 0.92700851,4.23146566 C0.960826762,3.83636709 1.1130089,3.50880674 1.39370039,3.22852314 L2.54690277,2.07699654 C2.71261221,1.92165864 2.88846712,1.83723587 3.0609402,1.83723587 C3.27399519,1.83723587 3.44646827,1.96555848 3.55468668,2.07361963 C3.5580685,2.07699654 3.56145033,2.08037345 3.56483215,2.08375036 C3.77112349,2.27623428 3.96726935,2.47547202 4.17356069,2.6882174 C4.27839727,2.79627855 4.38661567,2.9043397 4.49483408,3.01577776 L5.41807235,3.93767442 C5.77654582,4.29562697 5.77654582,4.62656423 5.41807235,4.98451679 C5.31999942,5.0824472 5.22530832,5.18037762 5.12723539,5.27493112 C4.84316207,5.56534545 4.57261606,5.83549832 4.27839727,6.09889737 C4.27163362,6.10565119 4.26486997,6.1090281 4.26148814,6.11578192 C3.97065118,6.40619626 4.02476038,6.68985677 4.08563323,6.88234069 C4.08901506,6.89247142 4.09239688,6.90260215 4.09577871,6.91273288 C4.3358883,7.49356155 4.67407081,8.04062111 5.18810824,8.69236491 L5.19149007,8.69574182 C6.12487382,9.84389151 7.10898495,10.7387729 8.19455083,11.4242858 C8.33320566,11.5120855 8.47524232,11.5830006 8.61051533,11.6505388 C8.73226103,11.7113232 8.84724309,11.7687307 8.94531602,11.8295151 C8.95884332,11.8362689 8.97237062,11.8463996 8.98589792,11.8531535 C9.10087998,11.910561 9.20909838,11.9375762 9.32069862,11.9375762 C9.60139011,11.9375762 9.77724502,11.7619769 9.83473604,11.7045694 L10.9913203,10.5496659 C11.1063023,10.4348509 11.2889209,10.2963976 11.5019759,10.2963976 C11.711649,10.2963976 11.8841221,10.4280971 11.9889587,10.5429121 C11.9923405,10.546289 11.9923405,10.546289 11.9957223,10.5496659 L13.859108,12.4103438 C14.207436,12.7547887 14.207436,13.1093643 13.8624898,13.4673169 Z M8.6477154,3.8059749 C8.39746034,3.76545197 8.23513273,3.5256913 8.27909646,3.2791768 C8.32306019,3.03266231 8.55640612,2.86719368 8.80666119,2.90771661 C9.87869977,3.09006979 10.8560472,3.59660642 11.6304852,4.36991901 C12.4049232,5.1432316 12.912197,6.11915883 13.0948155,7.18963957 C13.1353974,7.43953098 12.969688,7.67591474 12.7194329,7.71643767 C12.6923783,7.71981458 12.6687055,7.72319149 12.6416509,7.72319149 C12.4218323,7.72319149 12.2290683,7.56785359 12.1918682,7.34497747 C12.0396861,6.46022683 11.6237216,5.65652205 10.9811748,5.01490898 C10.338628,4.37329592 9.5337536,3.95455897 8.6477154,3.8059749 Z M15.9930397,7.05794005 C16.0370034,7.30445454 15.8679122,7.5408383 15.6210389,7.57798432 C15.5939843,7.58136123 15.5703116,7.58473815 15.543257,7.58473815 C15.3234383,7.58473815 15.1306743,7.42940025 15.0934742,7.20652413 C14.82631,5.63288367 14.0823085,4.19769656 12.9392516,3.05630069 C11.7961947,1.91828173 10.3589189,1.17198443 8.78298841,0.905208471 C8.53273335,0.861308629 8.36702391,0.62830178 8.40760582,0.378410377 C8.45156954,0.131895884 8.68491548,-0.0369496585 8.93178872,0.00695018267 C10.6971015,0.307495249 12.3034684,1.13821532 13.5817983,2.41468762 C14.8601283,3.69115993 15.6920573,5.29519258 15.9930397,7.05794005 Z" id="Combined-Shape" fill="#99B0C6" fill-rule="nonzero"></path>
                    </g>
                </g>
            </g>
        </g>
    </g>
</svg>