<?xml version="1.0" encoding="UTF-8"?>
<svg width="22px" height="26px" viewBox="0 0 22 26" version="1.1" xmlns="http://www.w3.org/2000/svg" xmlns:xlink="http://www.w3.org/1999/xlink">
    <!-- Generator: Sketch 48.1 (47250) - http://www.bohemiancoding.com/sketch -->
    <title>Shape</title>
    <desc>Created with Sketch.</desc>
    <defs></defs>
    <g id="2.7_А_Руководство_Настройка-портлета" stroke="none" stroke-width="1" fill="none" fill-rule="evenodd" transform="translate(-838.000000, -682.000000)">
        <g id="Group-52" transform="translate(822.000000, 668.000000)" fill="#2AAC4A" fill-rule="nonzero" stroke="#FFFFFF">
            <path d="M36.5242815,23.7526531 C37.1585728,24.3795918 37.1585728,25.3885714 36.5242815,26.0155102 C36.2071358,26.3289796 35.7958375,26.4857143 35.3795837,26.4857143 C34.96333,26.4857143 34.5520317,26.3289796 34.234886,26.0155102 L28.6204163,20.4612245 L28.6204163,37.3983673 C28.6204163,38.28 27.8969277,39 27,39 C26.1030723,39 25.3795837,38.284898 25.3795837,37.3983673 L25.3795837,20.4612245 L19.765114,26.0155102 C19.1308226,26.642449 18.1100099,26.642449 17.4757185,26.0155102 C16.8414272,25.3885714 16.8414272,24.3795918 17.4757185,23.7526531 L25.8553023,15.4702041 C26.1575818,15.1665306 26.5688801,15 27,15 C27.4311199,15 27.8424182,15.1665306 28.1446977,15.4702041 L36.5242815,23.7526531 Z" id="Shape" transform="translate(27.000000, 27.000000) scale(1, -1) translate(-27.000000, -27.000000) "></path>
        </g>
    </g>
</svg>