<?xml version="1.0" encoding="UTF-8"?>
<svg width="54px" height="48px" viewBox="0 0 54 48" version="1.1" xmlns="http://www.w3.org/2000/svg" xmlns:xlink="http://www.w3.org/1999/xlink">
    <!-- Generator: Sketch 47.1 (45422) - http://www.bohemiancoding.com/sketch -->
    <title>Shape</title>
    <desc>Created with Sketch.</desc>
    <defs></defs>
    <g id="Page-1" stroke="none" stroke-width="1" fill="none" fill-rule="evenodd">
        <g id="2.1_А_Руководство" transform="translate(-200.000000, -3549.000000)" fill-rule="nonzero" fill="#2AAC4A">
            <g id="Group-16" transform="translate(180.000000, 3473.000000)">
                <g id="Group-5" transform="translate(20.000000, 73.000000)">
                    <path d="M51.3504141,43.2230451 L48.5750039,42.0638403 L48.5750039,41.8189704 C49.3227773,41.3404359 49.9019063,40.6031895 50.1977461,39.7279635 C51.2631914,39.5930598 52.0916484,38.6471961 52.0916484,37.5017234 C52.0916484,36.8266557 51.8026641,36.2215666 51.3480937,35.8098248 L51.3480937,34.5529577 C51.3480937,31.7127301 49.1297695,29.4021202 46.4029805,29.4021202 L46.0616836,29.4021202 C44.8691484,29.4021202 43.7740664,29.8439627 42.9191367,30.5787922 C42.3872578,30.1070688 41.8864922,29.8965839 41.7474844,29.8441824 L38.9746055,28.6859663 L38.9746055,28.4409865 C39.7224844,27.962452 40.3015078,27.2253155 40.5974531,26.3499796 C41.662793,26.215076 42.4913555,25.2692123 42.4913555,24.1237395 C42.4913555,23.4486719 42.2023711,22.8435828 41.7478008,22.431841 L41.7478008,21.1748639 C41.7478008,18.3346364 39.529582,16.0240265 36.8026875,16.0240265 L36.4613906,16.0240265 C35.172457,16.0240265 33.9975352,16.5409009 33.1163437,17.3853671 C32.6645156,17.0316295 32.2676367,16.8654167 32.1478242,16.8202658 L29.3743125,15.6618299 L29.3743125,15.4168501 C30.1220859,14.9383156 30.7012148,14.2010693 30.9971602,13.3258433 C32.0626055,13.1909396 32.8910625,12.2450759 32.8910625,11.0996031 C32.8910625,10.4245355 32.6020781,9.81944642 32.1475078,9.4077046 L32.1475078,8.15083743 C32.1475078,5.31060984 29.9290781,3 27.2023945,3 L26.8610977,3 C24.1343086,3 21.9159844,5.3107197 21.9159844,8.15083743 L21.9159844,9.40056393 C21.4570898,9.81252546 21.1650469,10.4208004 21.1650469,11.0998229 C21.1650469,12.2539743 22.0060547,13.2067589 23.083207,13.3299079 C23.3794688,14.2034861 23.9581758,14.9390846 24.7047891,15.41696 L24.7047891,15.6565568 L21.8554453,16.8187278 C21.7436484,16.8606929 21.3607969,17.0187763 20.9185664,17.3576833 C20.0408555,16.529366 18.8771133,16.0241364 17.6021016,16.0241364 L17.2608047,16.0241364 C14.5340156,16.0241364 12.3156914,18.3347462 12.3156914,21.1749738 L12.3156914,22.4247003 C11.8567969,22.8366618 11.5647539,23.4449368 11.5647539,24.1239592 C11.5647539,25.2781107 12.4057617,26.2308953 13.4829141,26.3540443 C13.7791758,27.2276225 14.3577773,27.963221 15.1044961,28.4410964 L15.1044961,28.6806932 L12.2555742,29.8427543 C12.1251094,29.8916404 11.6365781,30.0945452 11.1112383,30.5515478 C10.2611602,29.8334165 9.17915625,29.4021202 8.00191406,29.4021202 L7.66061719,29.4021202 C4.93382813,29.4021202 2.71550391,31.7126202 2.71550391,34.5529577 L2.71550391,35.8026842 C2.25660938,36.2146457 1.96446094,36.8229206 1.96446094,37.5019431 C1.96446094,38.6560945 2.80546875,39.6088791 3.88262109,39.7320282 C4.17888281,40.6056063 4.75758984,41.3412049 5.50420313,41.8190802 L5.50420313,42.0586771 L2.65285547,43.2217269 C2.35089844,43.3365268 0,44.3307273 0,47.4504296 L0,50.1134588 C0,50.6027592 0.380742187,51 0.850394531,51 L3.12261328,51 C3.59237109,51 3.97300781,50.6035282 3.97300781,50.1142278 C3.97300781,49.6249273 3.59237109,49.2284556 3.12261328,49.2284556 L1.70089453,49.2284556 L1.70089453,47.4505394 C1.70089453,45.5181652 3.07473047,44.9466922 3.223125,44.8907753 C3.23630859,44.8861613 3.24928125,44.8812178 3.26225391,44.8759447 L5.87133984,43.8116558 L7.23779297,45.1981535 C7.39662891,45.3594227 7.60967578,45.449505 7.83116016,45.449505 C7.83558984,45.449505 7.840125,45.449505 7.84455469,45.4493951 C8.07089063,45.4457698 8.28646875,45.3482174 8.44351172,45.1783793 L9.73023047,43.7874874 L12.3299297,44.8733081 C12.3449063,44.8796798 12.3601992,44.8855022 12.3754922,44.8907753 C12.3906797,44.8960484 13.8979336,45.4468684 13.8979336,47.4505394 L13.8979336,49.2284556 L10.0049766,49.2284556 L5.70786328,49.2284556 L5.40516797,49.2284556 C4.93541016,49.2284556 4.55477344,49.6249273 4.55477344,50.1142278 C4.55477344,50.6035282 4.93541016,51 5.40516797,51 L5.70786328,51 L10.0049766,51 L14.7483281,51 C15.2180859,51 15.5987227,50.5981453 15.5987227,50.1089547 L15.5987227,47.4504296 C15.5987227,44.3431411 13.2664922,43.3444365 12.9492422,43.2230451 L10.173832,42.0638403 L10.173832,41.8189704 C10.9216055,41.3404359 11.5007344,40.6031895 11.7966797,39.7279635 C12.8243672,39.5977836 13.6288828,38.712341 13.6846758,37.6217964 L15.3079453,37.6217964 L19.6052695,37.6217964 L21.1710586,37.6217964 C21.2272734,38.7211295 22.0440234,39.612834 23.0833125,39.7318085 C23.3795742,40.6053866 23.9582812,41.3409851 24.7048945,41.8188605 L24.7048945,42.0584573 L21.8535469,43.2215071 C21.5515898,43.3363071 19.2006914,44.3305076 19.2006914,47.4503197 L19.2006914,50.1133489 C19.2006914,50.6026494 19.5813281,50.9998901 20.0510859,50.9998901 L22.3233047,50.9998901 C22.7930625,50.9998901 23.1736992,50.6034184 23.1736992,50.1141179 C23.1736992,49.6248175 22.7930625,49.2283457 22.3233047,49.2283457 L20.9012695,49.2283457 L20.9012695,47.4504296 C20.9012695,45.5180554 22.2751055,44.9465823 22.4235,44.8906654 C22.4366836,44.8860514 22.4497617,44.8811079 22.4626289,44.8758348 L25.0717148,43.8115459 L26.438168,45.1980436 C26.5970039,45.3593128 26.8100508,45.4493951 27.0315352,45.4493951 C27.0359648,45.4493951 27.0405,45.4493951 27.0449297,45.4492852 C27.2712656,45.44566 27.4868437,45.3481075 27.6438867,45.1782695 L28.9307109,43.7873775 L31.5304102,44.8731982 C31.5453867,44.8795699 31.5606797,44.8853923 31.5759727,44.8906654 C31.5911602,44.8959385 33.0984141,45.4467585 33.0984141,47.4504296 L33.0984141,49.2283457 L29.205457,49.2283457 L24.9082383,49.2283457 L24.605543,49.2283457 C24.1357852,49.2283457 23.7551484,49.6248175 23.7551484,50.1141179 C23.7551484,50.6034184 24.1357852,50.9998901 24.605543,50.9998901 L24.9082383,50.9998901 L29.205457,50.9998901 L33.9488086,50.9998901 C34.4185664,50.9998901 34.7992031,50.5980354 34.7992031,50.1088448 L34.7992031,47.4503197 C34.7992031,44.3430312 32.4669727,43.3443266 32.1497227,43.2229353 L29.3743125,42.0637304 L29.3743125,41.8188605 C30.1220859,41.340326 30.7012148,40.6030796 30.9971602,39.7278536 C32.0248477,39.5976738 32.8293633,38.7122311 32.8851563,37.6216866 L34.5084258,37.6216866 L38.8055391,37.6216866 L40.3713281,37.6216866 C40.427543,38.7210197 41.244293,39.6127241 42.283582,39.7316986 C42.5798438,40.6052768 43.1585508,41.3408753 43.9051641,41.8187507 L43.9051641,42.0583475 L41.0538164,43.2213973 C40.7518594,43.3361972 38.40075,44.3303977 38.40075,47.4502099 L38.40075,50.1132391 C38.40075,50.6025395 38.7813867,50.9997803 39.2511445,50.9997803 L41.5233633,50.9997803 C41.9930156,50.9997803 42.3737578,50.6033085 42.3737578,50.1140081 C42.3737578,49.6247076 41.9930156,49.2282358 41.5233633,49.2282358 L40.1015391,49.2282358 L40.1015391,47.4503197 C40.1015391,45.5179455 41.475375,44.9463626 41.6237695,44.8905556 C41.6369531,44.8859416 41.6500312,44.880998 41.6628984,44.8757249 L44.2719844,43.8114361 L45.6384375,45.1979338 C45.7972734,45.359203 46.0103203,45.4492852 46.2318047,45.4492852 C46.2362344,45.4492852 46.2407695,45.4492852 46.2451992,45.4491754 C46.4715352,45.4455501 46.6871133,45.3479976 46.8441562,45.1781596 L48.130875,43.7872676 L50.7305742,44.8730884 C50.7455508,44.8794601 50.7608437,44.8852824 50.7761367,44.8905556 C50.7913242,44.8958287 52.2985781,45.4466487 52.2985781,47.4503197 L52.2985781,49.2282358 L48.4056211,49.2282358 L44.1091406,49.2282358 L43.8065508,49.2282358 C43.336793,49.2282358 42.9561562,49.6247076 42.9561562,50.1140081 C42.9561562,50.6033085 43.336793,50.9997803 43.8065508,50.9997803 L44.1091406,50.9997803 L48.4062539,50.9997803 L53.1496055,50.9997803 C53.6193633,50.9997803 54,50.5979255 54,50.108735 L54,47.4502099 C54,44.3432509 51.6676641,43.3445463 51.3504141,43.2230451 Z M8.47314844,42.5931285 L7.81217578,43.3076346 L7.20520312,42.6917795 L7.20520312,42.3959362 C7.30708594,42.4043952 7.40991797,42.4099978 7.51380469,42.4099978 L8.16454687,42.4099978 C8.26853906,42.4099978 8.37116016,42.4043952 8.47304297,42.3959362 L8.47304297,42.5931285 L8.47314844,42.5931285 Z M10.3141055,38.3996897 C10.314,39.6341461 9.34980469,40.6384534 8.16465234,40.6384534 L7.51391016,40.6384534 C6.32875781,40.6384534 5.36445703,39.6341461 5.36445703,38.3997995 L5.36445703,36.5624511 C6.29669531,36.4435864 7.81470703,36.0983078 9.03666797,35.0991637 C9.32016797,35.564845 9.73149609,36.0455767 10.3141055,36.353614 L10.3141055,38.3996897 Z M11.2463438,34.8430884 C10.4196797,34.5563632 10.1356523,33.3613452 10.1338594,33.3536552 C10.0601367,33.0141989 9.80216016,32.7510928 9.47478516,32.6815537 C9.14751563,32.6116851 8.81107031,32.7481267 8.61532031,33.030238 C7.36372266,34.8326521 4.54517578,34.8530854 4.51627734,34.8530854 L4.51385156,34.8530854 C4.48463672,34.8530854 4.45552734,34.8546234 4.42715625,34.8576993 C4.42357031,34.8580289 4.41998437,34.8589078 4.41650391,34.8593472 L4.41650391,34.5531774 C4.41650391,32.689793 5.87186719,31.1738844 7.66082812,31.1738844 L8.002125,31.1738844 C9.79098047,31.1738844 11.2463438,32.689793 11.2463438,34.5530675 L11.2463438,34.8430884 Z M39.1148789,25.0218157 C39.1147734,26.2561623 38.1505781,27.2604695 36.9654258,27.2604695 L36.3146836,27.2604695 C35.1295312,27.2604695 34.1652305,26.2561623 34.1652305,25.0218157 L34.1652305,23.1819405 C35.0976797,23.0628562 36.6162188,22.7197746 37.8374414,21.7213996 C38.1209414,22.1870809 38.5322695,22.6678125 39.1148789,22.9758499 L39.1148789,25.0218157 Z M37.2740273,29.0180622 L37.2740273,29.2151446 L36.6130547,29.9296507 L36.006082,29.3137957 L36.006082,29.0179524 C36.1079648,29.0264113 36.2107969,29.032014 36.3146836,29.032014 L36.9654258,29.032014 C37.069418,29.0321238 37.1720391,29.0265212 37.2740273,29.0180622 Z M33.2172773,21.1750837 C33.2172773,19.3116992 34.6726406,17.7957907 36.4616016,17.7957907 L36.8028984,17.7957907 C38.5917539,17.7957907 40.0471172,19.3116992 40.0471172,21.1749738 L40.0471172,21.4649947 C39.2204531,21.1782695 38.9364258,19.9832515 38.9347383,19.9755615 C38.8610156,19.6361052 38.6030391,19.3729991 38.2756641,19.30346 C37.9483945,19.2338111 37.6120547,19.370033 37.4161992,19.6521443 C36.1646016,21.4545584 33.3460547,21.4749916 33.3170508,21.4749916 L33.3145195,21.4749916 C33.2853047,21.4749916 33.2561953,21.4765296 33.2277188,21.4796056 C33.2242383,21.4799352 33.2205469,21.480814 33.2170664,21.4812535 L33.2170664,21.1750837 L33.2172773,21.1750837 Z M23.7168633,8.45085528 L23.7144375,8.45085528 C23.6852227,8.45085528 23.6561133,8.45239327 23.6276367,8.45546925 C23.6240508,8.45579882 23.6204648,8.45667767 23.6169844,8.45711709 L23.6169844,8.15094728 C23.6169844,6.28756288 25.0723477,4.7716543 26.8613086,4.7716543 L27.2026055,4.7716543 C28.9914609,4.7716543 30.4468242,6.28756288 30.4468242,8.15083743 L30.4468242,8.44085834 C29.6201602,8.15413312 29.3361328,6.95911511 29.3343398,6.95142516 C29.2606172,6.61196886 29.0026406,6.34886276 28.6752656,6.27932365 C28.3478906,6.20945497 28.0116562,6.34578678 27.8158008,6.62800789 C26.5643086,8.43042199 23.7457617,8.45085528 23.7168633,8.45085528 Z M24.5651484,11.9976793 L24.5651484,10.1580239 L24.565043,10.1580239 C25.4972813,10.0391592 27.015293,9.69618752 28.2372539,8.6972632 C28.5207539,9.16294452 28.932082,9.64367616 29.5146914,9.95171353 L29.5146914,11.9976793 C29.5146914,13.2320259 28.5504961,14.2363332 27.3653438,14.2363332 L26.7146016,14.2363332 C25.5293438,14.2363332 24.5651484,13.2320259 24.5651484,11.9976793 Z M27.6737344,15.9939259 L27.6737344,16.1910083 L27.0127617,16.9055143 L26.4057891,16.2896593 L26.4057891,15.993816 C26.5077773,16.0022749 26.6105039,16.0078776 26.7144961,16.0078776 L27.3652383,16.0078776 C27.469125,16.0079875 27.5717461,16.0023848 27.6737344,15.9939259 Z M22.4236055,18.4883255 C22.4368945,18.4839312 22.4498672,18.4789877 22.4628398,18.4737146 L25.0719258,17.4094257 L26.4383789,18.7959234 C26.5972148,18.9571926 26.8102617,19.0472749 27.0317461,19.0472749 C27.0361758,19.0472749 27.0407109,19.0472749 27.0451406,19.047165 C27.2714766,19.0435398 27.4870547,18.9459873 27.6440977,18.7761493 L28.9309219,17.3852573 L31.5306211,18.471078 C31.5457031,18.4774497 31.5609961,18.4833819 31.5762891,18.4885452 C31.5789258,18.4896437 31.8058945,18.5784077 32.0804297,18.7903207 C31.7209922,19.503948 31.5163828,20.3147981 31.5163828,21.1749738 L31.5163828,22.4247003 C31.3844414,22.5432354 31.2666328,22.6780292 31.1651719,22.8261156 L29.205457,22.8261156 L24.9082383,22.8261156 L22.890832,22.8261156 C22.7915859,22.6809953 22.6762031,22.5487282 22.5473203,22.431841 L22.5473203,21.1747541 C22.5473203,20.3006266 22.3364883,19.4769233 21.966082,18.7550568 C22.221,18.5670925 22.4240273,18.4883255 22.4236055,18.4883255 Z M14.1166758,21.4749916 L14.11425,21.4749916 C14.0850352,21.4749916 14.0559258,21.4765296 14.0275547,21.4796056 C14.0240742,21.4799352 14.0203828,21.480814 14.0169023,21.4812535 L14.0169023,21.1750837 C14.0167969,19.3116992 15.4721602,17.7957907 17.2611211,17.7957907 L17.602418,17.7957907 C19.3912734,17.7957907 20.8466367,19.3116992 20.8466367,21.1749738 L20.8466367,21.4649947 C20.0199727,21.1782695 19.7359453,19.9832515 19.7341523,19.9755615 C19.6604297,19.6361052 19.4024531,19.3729991 19.0752891,19.30346 C18.7478086,19.2338111 18.4115742,19.370033 18.2158242,19.6521443 C16.9641211,21.4545584 14.1455742,21.4749916 14.1166758,21.4749916 Z M14.9648555,25.0218157 L14.9648555,23.1819405 L14.96475,23.1819405 C15.8971992,23.0628562 17.4157383,22.7197746 18.6369609,21.7213996 C18.9204609,22.1870809 19.3317891,22.6678125 19.9143984,22.9758499 L19.9143984,25.0218157 C19.9143984,26.2561623 18.9502031,27.2604695 17.7650508,27.2604695 L17.1143086,27.2604695 C15.9290508,27.2604695 14.9648555,26.2561623 14.9648555,25.0218157 Z M16.8056016,29.0180622 C16.9073789,29.0265212 17.0102109,29.0321238 17.1140977,29.0321238 L17.7648398,29.0321238 C17.868832,29.0321238 17.9714531,29.026631 18.0733359,29.0180622 L18.0733359,29.2151446 L17.4123633,29.9296507 L16.8054961,29.3137957 L16.8054961,29.0180622 L16.8056016,29.0180622 Z M21.9164063,34.5529577 L21.9164063,35.8026842 C21.8993203,35.8181739 21.8828672,35.8344327 21.8662031,35.850252 L19.605375,35.850252 L15.3081562,35.850252 L12.9898477,35.850252 C12.9757148,35.8367396 12.9616875,35.8231175 12.9472383,35.8098248 L12.9472383,34.5529577 C12.9472383,33.5774327 12.6854648,32.6643063 12.2314219,31.8858638 C12.5460352,31.6205605 12.8238398,31.5127914 12.8235234,31.5127914 C12.836707,31.5081774 12.8496797,31.5032339 12.8626523,31.4979608 L15.4717383,30.4336719 L16.8381914,31.8201696 C16.9970273,31.9814388 17.2100742,32.0715211 17.4315586,32.0715211 C17.4359883,32.0715211 17.4405234,32.0715211 17.4449531,32.0714112 C17.6712891,32.067786 17.8869727,31.9702335 18.0439102,31.8003955 L19.3306289,30.4095035 L21.9303281,31.4953242 C21.9453047,31.5016959 21.9522656,31.5044423 21.9675586,31.5098253 C21.97125,31.5112534 22.2778477,31.6287998 22.6117617,31.9231051 C22.1706914,32.6931985 21.9164063,33.5925929 21.9164063,34.5529577 Z M27.6737344,42.5931285 L27.0127617,43.3076346 L26.4057891,42.6917795 L26.4057891,42.3959362 C26.5077773,42.4043952 26.6105039,42.4099978 26.7144961,42.4099978 L27.3652383,42.4099978 C27.4692305,42.4099978 27.5718516,42.4043952 27.6737344,42.3959362 L27.6737344,42.5931285 Z M29.5145859,38.3996897 C29.5144805,39.6341461 28.5502852,40.6384534 27.3651328,40.6384534 L26.7143906,40.6384534 C25.5292383,40.6384534 24.5649375,39.6341461 24.5649375,38.3997995 L24.5649375,36.5624511 C25.4971758,36.4434766 27.0151875,36.0983078 28.2371484,35.0991637 C28.5206484,35.564845 28.9319766,36.0455767 29.5145859,36.353614 L29.5145859,38.3996897 L29.5145859,38.3996897 Z M30.4468242,34.8430884 C29.6201602,34.5563632 29.3361328,33.3613452 29.3343398,33.3536552 C29.2606172,33.0141989 29.0026406,32.7510928 28.6752656,32.6815537 C28.3478906,32.6116851 28.0116562,32.7481267 27.8158008,33.030238 C26.5643086,34.8325422 23.7458672,34.8529755 23.7168633,34.8529755 L23.7144375,34.8529755 C23.6852227,34.8529755 23.6561133,34.8545135 23.6276367,34.8575895 C23.6240508,34.857919 23.6204648,34.8587979 23.6169844,34.8592373 L23.6169844,34.5530675 C23.6169844,32.689793 25.0723477,31.1738844 26.8612031,31.1738844 L27.2025,31.1738844 C28.9913555,31.1738844 30.4467187,32.689793 30.4467187,34.5530675 L30.4467187,34.8430884 L30.4468242,34.8430884 Z M30.3119297,30.551438 C29.4618516,29.8334165 28.3798477,29.4021202 27.2026055,29.4021202 L26.8613086,29.4021202 C25.6689844,29.4021202 24.5740078,29.8438528 23.7190781,30.5784627 C23.1870937,30.1065195 22.6860117,29.8965839 22.5472148,29.8441824 L19.7742305,28.6859663 L19.7742305,28.4409865 C20.5221094,27.962452 21.1011328,27.2253155 21.3970781,26.3499796 C22.3111758,26.234191 23.0499844,25.5215525 23.2416211,24.5977699 L24.9084492,24.5977699 L29.205668,24.5977699 L30.8149102,24.5977699 C31.0081289,25.5300114 31.7583281,26.2481427 32.6836055,26.3539345 C32.9798672,27.2275126 33.5583633,27.9631111 34.3051875,28.4409865 L34.3051875,28.6805833 L31.4563711,29.8425346 C31.3260117,29.8914207 30.837375,30.0944353 30.3119297,30.551438 Z M41.1166758,34.5529577 L41.1166758,35.8026842 C41.0995898,35.8181739 41.0831367,35.8344327 41.0664727,35.850252 L38.80575,35.850252 L34.5086367,35.850252 L32.1903281,35.850252 C32.1761953,35.8367396 32.162168,35.8231175 32.1477187,35.8098248 L32.1477187,34.5529577 C32.1477187,33.5774327 31.8859453,32.6643063 31.4317969,31.8858638 C31.7464102,31.6205605 32.0244258,31.5127914 32.0238984,31.5127914 C32.037082,31.5081774 32.0500547,31.5032339 32.0630273,31.4979608 L34.6721133,30.4336719 L36.0385664,31.8201696 C36.1974023,31.9814388 36.4104492,32.0715211 36.6319336,32.0715211 C36.6363633,32.0715211 36.6408984,32.0715211 36.6453281,32.0714112 C36.8716641,32.067786 37.0873477,31.9702335 37.2442852,31.8003955 L38.5310039,30.4095035 L41.1307031,31.4953242 C41.1456797,31.5016959 41.1609727,31.5075183 41.1762656,31.5127914 C41.1797461,31.5141097 41.4802266,31.6296786 41.8119258,31.9231051 C41.3710664,32.6931985 41.1166758,33.5925929 41.1166758,34.5529577 Z M42.9174492,34.8529755 L42.9150234,34.8529755 C42.8858086,34.8529755 42.8566992,34.8545135 42.8283281,34.8575895 C42.8247422,34.857919 42.8211563,34.8587979 42.8176758,34.8592373 L42.8176758,34.5530675 C42.8175703,32.6896831 44.2729336,31.1737745 46.0618945,31.1737745 L46.4031914,31.1737745 C48.1920469,31.1737745 49.6474102,32.6896831 49.6474102,34.5529577 L49.6474102,34.8430884 C48.8207461,34.5563632 48.5367187,33.3613452 48.5350312,33.3536552 C48.4613086,33.0141989 48.203332,32.7510928 47.875957,32.6815537 C47.548582,32.6116851 47.2122422,32.7481267 47.0164922,33.030238 C45.765,34.8325422 42.9463477,34.8529755 42.9174492,34.8529755 Z M46.8743203,42.5931285 L46.2133477,43.3076346 L45.606375,42.6917795 L45.606375,42.3959362 C45.7082578,42.4043952 45.8110898,42.4099978 45.9149766,42.4099978 L46.5657187,42.4099978 C46.6697109,42.4099978 46.772332,42.4043952 46.8742148,42.3959362 L46.8742148,42.5931285 L46.8743203,42.5931285 Z M46.5658242,40.6384534 L45.915082,40.6384534 C44.7299297,40.6384534 43.7656289,39.6341461 43.7656289,38.3997995 L43.7656289,36.5626708 L43.7655234,36.5626708 C44.6977617,36.4436963 46.2158789,36.0984176 47.4377344,35.0993834 C47.7212344,35.5650647 48.1325625,36.0457964 48.7151719,36.3538338 L48.7151719,38.3997995 C48.7151719,39.6341461 47.7509766,40.6384534 46.5658242,40.6384534 Z" id="Shape"></path>
                </g>
            </g>
        </g>
    </g>
</svg>