<?xml version="1.0" encoding="UTF-8"?>
<svg width="20px" height="16px" viewBox="0 0 20 16" version="1.1" xmlns="http://www.w3.org/2000/svg" xmlns:xlink="http://www.w3.org/1999/xlink">
    <!-- Generator: Sketch 47.1 (45422) - http://www.bohemiancoding.com/sketch -->
    <title>Combined Shape</title>
    <desc>Created with Sketch.</desc>
    <defs></defs>
    <g id="Page-1" stroke="none" stroke-width="1" fill="none" fill-rule="evenodd">
        <g id="2.1_А_Руководство" transform="translate(-460.000000, -553.000000)" fill-rule="nonzero" fill="#2AAC4A">
            <g id="Group-33" transform="translate(180.000000, 426.000000)">
                <g id="Group-5" transform="translate(260.000000, 112.000000)">
                    <g id="Group-5-Copy" transform="translate(20.000000, 14.000000)">
                        <path d="M15.8737864,8.10928164 C15.8737864,7.1463658 15.1116019,6.36297072 14.1747573,6.36297072 C13.2379126,6.36297072 12.4757282,7.1463658 12.4757282,8.10928164 C12.4757282,9.07219748 13.2379126,9.85559256 14.1747573,9.85559256 C15.1116019,9.85559256 15.8737864,9.07219748 15.8737864,8.10928164 Z M13.4466019,8.10928164 C13.4466019,7.69660343 13.7732524,7.36086268 14.1747573,7.36086268 C14.5762621,7.36086268 14.9029126,7.69660343 14.9029126,8.10928164 C14.9029126,8.52195986 14.5762621,8.85770061 14.1747573,8.85770061 C13.7732524,8.85770061 13.4466019,8.52200975 13.4466019,8.10928164 Z M11.2621359,13.3482144 C11.2621359,11.6975015 12.5687379,10.3545385 14.1747573,10.3545385 C15.7807767,10.3545385 17.0873786,11.6975015 17.0873786,13.3482144 C17.0873786,13.6237324 16.8700485,13.8471604 16.6019417,13.8471604 C16.333835,13.8471604 16.1165049,13.6237324 16.1165049,13.3482144 C16.1165049,12.2477392 15.2454369,11.3524305 14.1747573,11.3524305 C13.1040777,11.3524305 12.2330097,12.2477392 12.2330097,13.3482144 C12.2330097,13.6237324 12.0156796,13.8471604 11.7475728,13.8471604 C11.479466,13.8471604 11.2621359,13.6237324 11.2621359,13.3482144 Z M18.5436893,3.21018099 C19.346699,3.21018099 20,3.88166249 20,4.70701892 L20,15.5031621 C20,16.3285185 19.346699,17 18.5436893,17 L1.45631068,17 C0.653300971,17 0,16.3285185 0,15.5031621 L0,4.70701892 C0,3.88166249 0.653300971,3.21018099 1.45631068,3.21018099 L1.54747573,3.21018099 C1.81558252,3.21018099 2.03291262,3.433609 2.03291262,3.70912697 C2.03291262,3.98464494 1.81558252,4.20807295 1.54747573,4.20807295 L1.45631068,4.20807295 C1.18864078,4.20807295 0.970873786,4.43190011 0.970873786,4.70701892 L0.970873786,15.5031621 C0.970873786,15.7782809 1.18864078,16.002108 1.45631068,16.002108 L18.5436893,16.002108 C18.8113592,16.002108 19.0291262,15.7782809 19.0291262,15.5031621 L19.0291262,4.70701892 C19.0291262,4.43190011 18.8113592,4.20807295 18.5436893,4.20807295 L4.46009709,4.20807295 C4.19199029,4.20807295 3.97466019,3.98464494 3.97466019,3.70912697 C3.97466019,3.433609 4.19199029,3.21018099 4.46009709,3.21018099 L5.34466019,3.21018099 L5.34466019,2.95142761 C5.34466019,2.42563834 4.9284466,1.99789195 4.41694175,1.99789195 C3.90543689,1.99789195 3.48927184,2.42563834 3.48927184,2.95142761 L3.48927184,7.264616 C3.48927184,7.51593509 3.68820388,7.72040315 3.93271845,7.72040315 C4.17723301,7.72040315 4.37616505,7.51593509 4.37616505,7.264616 L4.37616505,5.205915 C4.37616505,4.93039704 4.59349515,4.70696903 4.86160194,4.70696903 C5.12970874,4.70696903 5.34703883,4.93039704 5.34703883,5.205915 L5.34703883,7.264616 C5.34703883,8.0662226 4.71257282,8.7182951 3.93271845,8.7182951 C3.15286408,8.7182951 2.51839806,8.06617271 2.51839806,7.264616 L2.51839806,2.95142761 C2.51839806,1.87540072 3.37009709,1 4.41694175,1 C5.46383495,1 6.31553398,1.87540072 6.31553398,2.95142761 L6.31553398,3.21018099 L18.5436893,3.21018099 Z M8.83495146,8.17075179 L6.31791262,8.17075179 C6.04980583,8.17075179 5.83247573,7.94732378 5.83247573,7.67180581 C5.83247573,7.39628784 6.04980583,7.17285983 6.31791262,7.17285983 L8.83495146,7.17285983 C9.10305825,7.17285983 9.32038835,7.39628784 9.32038835,7.67180581 C9.32038835,7.94732378 9.10305825,8.17075179 8.83495146,8.17075179 Z M2.91262136,10.0435954 C2.91262136,9.76807744 3.12995146,9.54464943 3.39805825,9.54464943 L8.83495146,9.54464943 C9.10305825,9.54464943 9.32038835,9.76807744 9.32038835,10.0435954 C9.32038835,10.3191134 9.10305825,10.5425414 8.83495146,10.5425414 L3.39805825,10.5425414 C3.12995146,10.5425414 2.91262136,10.3191134 2.91262136,10.0435954 Z M3.39805825,13.0372713 C3.12995146,13.0372713 2.91262136,12.8138433 2.91262136,12.5383253 C2.91262136,12.2628073 3.12995146,12.0393793 3.39805825,12.0393793 L8.83495146,12.0393793 C9.10305825,12.0393793 9.32038835,12.2628073 9.32038835,12.5383253 C9.32038835,12.8138433 9.10305825,13.0372713 8.83495146,13.0372713 L3.39805825,13.0372713 Z" id="Combined-Shape"></path>
                    </g>
                </g>
            </g>
        </g>
    </g>
</svg>