<?xml version="1.0" encoding="UTF-8"?>
<svg width="16px" height="15px" viewBox="0 0 16 15" version="1.1" xmlns="http://www.w3.org/2000/svg" xmlns:xlink="http://www.w3.org/1999/xlink">
    <!-- Generator: Sketch 47.1 (45422) - http://www.bohemiancoding.com/sketch -->
    <title>Group 11</title>
    <desc>Created with Sketch.</desc>
    <defs></defs>
    <g id="Page-1" stroke="none" stroke-width="1" fill="none" fill-rule="evenodd">
        <g id="2.1_А_Руководство" transform="translate(-440.000000, -655.000000)">
            <g id="Group-33" transform="translate(180.000000, 426.000000)">
                <g id="Group-40" transform="translate(260.000000, 226.000000)">
                    <g id="Group-11" transform="translate(0.000000, 2.000000)">
                        <rect id="Rectangle-14" x="0" y="0" width="16" height="16"></rect>
                        <path d="M15.9877812,6.66883036 C15.98775,6.64468591 15.982375,6.60821839 15.9730312,6.58720959 C15.9484375,6.49771836 15.8937812,6.41597217 15.8119687,6.35890348 L13.5215937,4.76135646 L13.5215937,3.04879409 C13.5215937,2.82177359 13.3380937,2.63764868 13.1118437,2.63764868 L10.476875,2.63764868 L8.23490625,1.07365303 C8.09478125,0.97578964 7.90875,0.975382007 7.7681875,1.07283777 L5.51175,2.63764868 L2.8883125,2.63764868 C2.662,2.63764868 2.4785625,2.82177359 2.4785625,3.04879409 L2.4785625,4.74119428 L0.1770625,6.33726755 C0.06384375,6.41578403 0.00259375,6.54130379 0.00065625,6.66964563 C0.00053125,6.67206007 0,6.67434909 0,6.6768576 L0.01221875,15.5894504 C0.012375,15.6984766 0.0556875,15.8029876 0.13259375,15.879999 C0.20940625,15.9568536 0.31346875,16 0.42196875,16 L0.42253125,16 L15.5908125,15.9790853 C15.8170625,15.9787717 16.0003125,15.7944273 16,15.5673754 L15.9877812,6.66883036 Z M13.5215625,5.76284924 L14.830875,6.67588555 L13.5215625,7.58923543 L13.5215625,5.76284924 Z M8.00046875,1.911528 L9.04140625,2.63761732 L6.95353125,2.63761732 L8.00046875,1.911528 Z M3.2980625,3.4599395 L12.7020625,3.4599395 L12.7020625,8.16092572 L9.5446875,10.3634636 L8.257375,9.36150043 C8.255375,9.35993261 8.25365625,9.35896056 8.25171875,9.35754952 C8.10784375,9.24924444 7.90434375,9.24526217 7.75503125,9.36150043 L6.458375,10.3707069 L3.2980625,8.17911245 L3.2980625,3.4599395 L3.2980625,3.4599395 Z M2.4785625,5.74074296 L2.4785625,7.61084 L1.13025,6.67582284 L2.4785625,5.74074296 Z M0.8205625,7.46108173 L5.77896875,10.8994702 L0.8305625,14.7507915 L0.8205625,7.46108173 Z M1.62109375,15.1760786 L8.00621875,10.2065874 L14.3684375,15.1584877 L1.62109375,15.1760786 Z M10.22325,10.8915998 L15.169375,7.44126447 L15.179375,14.7491609 L10.22325,10.8915998 Z M10.95775,5.01362208 C11.1840625,5.01362208 11.3675,5.197747 11.3675,5.4247675 C11.3675,5.651788 11.1840625,5.83591291 10.95775,5.83591291 L5.40975,5.83591291 C5.1835,5.83591291 5,5.651788 5,5.4247675 C5,5.197747 5.1835,5.01362208 5.40975,5.01362208 L10.95775,5.01362208 Z M10.95775,7.02043313 C11.1840625,7.02043313 11.3675,7.20455804 11.3675,7.43157854 C11.3675,7.65859904 11.1840625,7.84272395 10.95775,7.84272395 L5.40975,7.84272395 C5.1835,7.84272395 5,7.65859904 5,7.43157854 C5,7.20455804 5.1835,7.02043313 5.40975,7.02043313 L10.95775,7.02043313 Z" id="Combined-Shape" fill="#99B0C6" fill-rule="nonzero"></path>
                    </g>
                </g>
            </g>
        </g>
    </g>
</svg>