<?xml version="1.0" encoding="UTF-8"?>
<svg width="16px" height="16px" viewBox="0 0 16 16" version="1.1" xmlns="http://www.w3.org/2000/svg" xmlns:xlink="http://www.w3.org/1999/xlink">
    <!-- Generator: Sketch 47.1 (45422) - http://www.bohemiancoding.com/sketch -->
    <title>Group 12</title>
    <desc>Created with Sketch.</desc>
    <defs></defs>
    <g id="Page-1" stroke="none" stroke-width="1" fill="none" fill-rule="evenodd">
        <g id="2.1_А_Руководство" transform="translate(-649.000000, -624.000000)">
            <g id="Group-33" transform="translate(180.000000, 426.000000)">
                <g id="Group-38" transform="translate(469.000000, 196.000000)">
                    <g id="Group-12" transform="translate(0.000000, 2.000000)">
                        <rect id="Rectangle-14" x="0" y="0" width="16" height="16"></rect>
                        <path d="M14.6705931,3.19370079 L13.9586425,3.19370079 L13.9586425,0.444094488 C13.9586425,0.198425197 13.7601784,0 13.5144609,0 L6.75723045,0 C6.51151298,0 6.31304887,0.198425197 6.31304887,0.444094488 L6.31304887,3.19370079 L1.33254475,3.19370079 C0.598542557,3.19370079 0,3.79212598 0,4.52598425 L0,14.6645669 C0,15.4015748 0.598542557,16 1.33254475,16 L14.6674429,16 C15.4014451,16 15.9999876,15.4015748 15.9999876,14.6677165 L15.9999876,4.52598425 C16.0031378,3.79212598 15.4045953,3.19370079 14.6705931,3.19370079 Z M7.20141203,0.888188976 L13.0702793,0.888188976 L13.0702793,4.92913386 L7.20141203,4.92913386 L7.20141203,0.888188976 L7.20141203,0.888188976 Z M15.1179249,14.6677165 L15.1147747,14.6677165 C15.1147747,14.9133858 14.9163106,15.111811 14.6705931,15.111811 L1.33254475,15.111811 C1.08682727,15.111811 0.888363164,14.9133858 0.888363164,14.6677165 L0.888363164,4.52598425 C0.888363164,4.28031496 1.08682727,4.08188976 1.33254475,4.08188976 L6.31304887,4.08188976 L6.31304887,4.92913386 L6.30359819,4.92913386 C6.05788072,4.92913386 5.85941661,5.12755906 5.85941661,5.37322835 C5.85941661,5.61889764 6.05788072,5.81732283 6.30359819,5.81732283 L13.9712434,5.81732283 C14.2169608,5.81732283 14.415425,5.61889764 14.415425,5.37322835 C14.415425,5.12755906 14.2169608,4.92913386 13.9712434,4.92913386 L13.9617927,4.92913386 L13.9617927,4.08188976 L14.6737433,4.08188976 C14.9194608,4.08188976 15.1179249,4.28031496 15.1179249,4.52598425 L15.1179249,14.6677165 Z M4.74423732,4.92913386 L2.22405813,4.92913386 C1.97834066,4.92913386 1.77987655,5.12755906 1.77987655,5.37322835 L1.77987655,13.8173228 C1.77987655,14.0629921 1.97834066,14.2614173 2.22405813,14.2614173 L4.74423732,14.2614173 C4.98995479,14.2614173 5.1884189,14.0629921 5.1884189,13.8173228 L5.1884189,5.37637795 C5.1884189,5.13070866 4.98995479,4.92913386 4.74423732,4.92913386 Z M4.30005574,13.3732283 L4.29690552,13.3732283 L2.66823972,13.3732283 L2.66823972,5.82047244 L4.30005574,5.82047244 L4.30005574,13.3732283 Z M12.0622076,1.65354331 C12.3079251,1.65354331 12.5063892,1.8519685 12.5063892,2.0976378 C12.5063892,2.34330709 12.3079251,2.54173228 12.0622076,2.54173228 L8.20633348,2.54173228 C7.96061601,2.54173228 7.7621519,2.34330709 7.7621519,2.0976378 C7.7621519,1.8519685 7.96061601,1.65354331 8.20633348,1.65354331 L12.0622076,1.65354331 Z M12.0622076,3.27874016 C12.3079251,3.27874016 12.5095394,3.47716535 12.5063892,3.72283465 C12.5063892,3.96850394 12.3079251,4.16692913 12.0622076,4.16692913 L8.20633348,4.16692913 C7.96061601,4.16692913 7.7621519,3.96850394 7.7621519,3.72283465 C7.7621519,3.47716535 7.96061601,3.27874016 8.20633348,3.27874016 L12.0622076,3.27874016 Z M13.9680932,6.47244094 L6.30359819,6.47244094 C6.05788072,6.47244094 5.85941661,6.67086614 5.85941661,6.91653543 L5.85941661,9.25354331 C5.85941661,9.4992126 6.05788072,9.6976378 6.30359819,9.6976378 L13.9712434,9.6976378 C14.2169608,9.6976378 14.415425,9.4992126 14.415425,9.25354331 L14.415425,6.91653543 C14.4122747,6.67086614 14.2138106,6.47244094 13.9680932,6.47244094 Z M13.5239116,8.81259843 L6.74777978,8.81259843 L6.74777978,7.36377953 L13.5239116,7.36377953 L13.5239116,8.81259843 Z M7.0785533,10.5322835 L6.30359819,10.5322835 C6.05788072,10.5322835 5.85941661,10.7307087 5.85941661,10.976378 C5.85941661,11.2220472 6.05788072,11.4204724 6.30359819,11.4204724 L7.0785533,11.4204724 C7.32427077,11.4204724 7.52273488,11.2220472 7.52273488,10.976378 C7.52273488,10.7307087 7.32427077,10.5322835 7.0785533,10.5322835 Z M9.37506658,10.5322835 L8.60011148,10.5322835 C8.35439401,10.5322835 8.1559299,10.7307087 8.1559299,10.976378 C8.1559299,11.2220472 8.35439401,11.4204724 8.60011148,11.4204724 L9.37506658,11.4204724 C9.62078405,11.4204724 9.81924816,11.2220472 9.81924816,10.976378 C9.81924816,10.7307087 9.62078405,10.5322835 9.37506658,10.5322835 Z M11.6715799,10.5322835 L10.8966248,10.5322835 C10.6509073,10.5322835 10.4524432,10.7307087 10.4524432,10.976378 C10.4524432,11.2220472 10.6509073,11.4204724 10.8966248,11.4204724 L11.6715799,11.4204724 C11.9172973,11.4204724 12.1157614,11.2220472 12.1157614,10.976378 C12.1157614,10.7307087 11.9172973,10.5322835 11.6715799,10.5322835 Z M13.9680932,10.5322835 L13.1931381,10.5322835 C12.9474206,10.5322835 12.7489565,10.7307087 12.7489565,10.976378 C12.7489565,11.2220472 12.9474206,11.4204724 13.1931381,11.4204724 L13.9680932,11.4204724 C14.2138106,11.4204724 14.4122747,11.2220472 14.4122747,10.976378 C14.4122747,10.7307087 14.2138106,10.5322835 13.9680932,10.5322835 Z M7.0785533,11.9370079 L6.30359819,11.9370079 C6.05788072,11.9370079 5.85941661,12.1354331 5.85941661,12.3811024 C5.85941661,12.6267717 6.05788072,12.8251969 6.30359819,12.8251969 L7.0785533,12.8251969 C7.32427077,12.8251969 7.52273488,12.6267717 7.52273488,12.3811024 C7.52273488,12.1354331 7.32427077,11.9370079 7.0785533,11.9370079 Z M9.37506658,11.9370079 L8.60011148,11.9370079 C8.35439401,11.9370079 8.1559299,12.1354331 8.1559299,12.3811024 C8.1559299,12.6267717 8.35439401,12.8251969 8.60011148,12.8251969 L9.37506658,12.8251969 C9.62078405,12.8251969 9.81924816,12.6267717 9.81924816,12.3811024 C9.81924816,12.1354331 9.62078405,11.9370079 9.37506658,11.9370079 Z M11.6715799,11.9370079 L10.8966248,11.9370079 C10.6509073,11.9370079 10.4524432,12.1354331 10.4524432,12.3811024 C10.4524432,12.6267717 10.6509073,12.8251969 10.8966248,12.8251969 L11.6715799,12.8251969 C11.9172973,12.8251969 12.1157614,12.6267717 12.1157614,12.3811024 C12.1157614,12.1354331 11.9172973,11.9370079 11.6715799,11.9370079 Z M13.9680932,11.9370079 L13.1931381,11.9370079 C12.9474206,11.9370079 12.7489565,12.1354331 12.7489565,12.3811024 C12.7489565,12.6267717 12.9474206,12.8251969 13.1931381,12.8251969 L13.9680932,12.8251969 C14.2138106,12.8251969 14.4122747,12.6267717 14.4122747,12.3811024 C14.4122747,12.1354331 14.2138106,11.9370079 13.9680932,11.9370079 Z M7.0785533,13.3417323 L6.30359819,13.3417323 C6.05788072,13.3417323 5.85941661,13.5401575 5.85941661,13.7858268 C5.85941661,14.0314961 6.05788072,14.2299213 6.30359819,14.2299213 L7.0785533,14.2299213 C7.32427077,14.2299213 7.52273488,14.0314961 7.52273488,13.7858268 C7.52273488,13.5401575 7.32427077,13.3417323 7.0785533,13.3417323 Z M9.37506658,13.3417323 L8.60011148,13.3417323 C8.35439401,13.3417323 8.1559299,13.5401575 8.1559299,13.7858268 C8.1559299,14.0314961 8.35439401,14.2299213 8.60011148,14.2299213 L9.37506658,14.2299213 C9.62078405,14.2299213 9.81924816,14.0314961 9.81924816,13.7858268 C9.81924816,13.5401575 9.62078405,13.3417323 9.37506658,13.3417323 Z M11.6715799,13.3417323 L10.8966248,13.3417323 C10.6509073,13.3417323 10.4524432,13.5401575 10.4524432,13.7858268 C10.4524432,14.0314961 10.6509073,14.2299213 10.8966248,14.2299213 L11.6715799,14.2299213 C11.9172973,14.2299213 12.1157614,14.0314961 12.1157614,13.7858268 C12.1157614,13.5401575 11.9172973,13.3417323 11.6715799,13.3417323 Z M13.9680932,13.3417323 L13.1931381,13.3417323 C12.9474206,13.3417323 12.7489565,13.5401575 12.7489565,13.7858268 C12.7489565,14.0314961 12.9474206,14.2299213 13.1931381,14.2299213 L13.9680932,14.2299213 C14.2138106,14.2299213 14.4122747,14.0314961 14.4122747,13.7858268 C14.4122747,13.5401575 14.2138106,13.3417323 13.9680932,13.3417323 Z" id="Combined-Shape" fill="#99B0C6" fill-rule="nonzero"></path>
                    </g>
                </g>
            </g>
        </g>
    </g>
</svg>