<?xml version="1.0" encoding="UTF-8"?>
<svg width="54px" height="54px" viewBox="0 0 54 54" version="1.1" xmlns="http://www.w3.org/2000/svg" xmlns:xlink="http://www.w3.org/1999/xlink">
    <!-- Generator: Sketch 47.1 (45422) - http://www.bohemiancoding.com/sketch -->
    <title>jpeg</title>
    <desc>Created with Sketch.</desc>
    <defs></defs>
    <g id="guidelines" stroke="none" stroke-width="1" fill="none" fill-rule="evenodd">
        <g id="jpeg">
            <path d="M33,6 L44,15 L44,46 L44,46 C44,47.1045695 43.1045695,48 42,48 L12,48 L12,48 C10.8954305,48 10,47.1045695 10,46 L10,8 L10,8 C10,6.8954305 10.8954305,6 12,6 L33,6 Z" id="Fill-1" fill="#EAEAEA"></path>
            <path d="M44,15 L35,15 L35,15 C33.8954305,15 33,14.1045695 33,13 L33,6 L44,15 Z" id="Fill-3" fill="#C6C6C6"></path>
            <polygon id="Fill-5" fill="#60BDE8" points="10 39 44 39 44 23 10 23"></polygon>
            <path d="M16.572,26.6 L18.216,26.6 L18.216,32.744 C18.216,33.0640016 18.1800004,33.3679986 18.108,33.656 C18.0359996,33.9440014 17.9180008,34.1979989 17.754,34.418 C17.5899992,34.6380011 17.3800013,34.8139993 17.124,34.946 C16.8679987,35.0780007 16.5560018,35.144 16.188,35.144 C15.9559988,35.144 15.7040014,35.1200002 15.432,35.072 C15.1599986,35.0239998 14.924001,34.9560004 14.724,34.868 L15.084,33.524 C15.292001,33.6280005 15.5279987,33.68 15.792,33.68 C16.1280017,33.68 16.3419995,33.5560012 16.434,33.308 C16.5260005,33.0599988 16.572,32.732002 16.572,32.324 L16.572,26.6 Z M19.728,26.684 C20.0640017,26.6199997 20.433998,26.5700002 20.838,26.534 C21.242002,26.4979998 21.643998,26.48 22.044,26.48 C22.4600021,26.48 22.8779979,26.5139997 23.298,26.582 C23.7180021,26.6500003 24.0959983,26.785999 24.432,26.99 C24.7680017,27.194001 25.0419989,27.4779982 25.254,27.842 C25.4660011,28.2060018 25.572,28.6799971 25.572,29.264 C25.572,29.7920026 25.4800009,30.2379982 25.296,30.602 C25.1119991,30.9660018 24.8680015,31.2639988 24.564,31.496 C24.2599985,31.7280012 23.9140019,31.8959995 23.526,32 C23.1379981,32.1040005 22.7360021,32.156 22.32,32.156 L22.128,32.156 C22.0399996,32.156 21.9480005,32.154 21.852,32.15 C21.7559995,32.146 21.6620005,32.14 21.57,32.132 C21.4779995,32.124 21.4120002,32.116 21.372,32.108 L21.372,35 L19.728,35 L19.728,26.684 Z M22.176,27.896 C22.0159992,27.896 21.8640007,27.9019999 21.72,27.914 C21.5759993,27.9260001 21.4600004,27.9399999 21.372,27.956 L21.372,30.68 C21.4040002,30.688 21.4519997,30.696 21.516,30.704 C21.5800003,30.712 21.6479996,30.718 21.72,30.722 C21.7920004,30.726 21.8619997,30.728 21.93,30.728 L22.08,30.728 C22.2960011,30.728 22.5099989,30.7080002 22.722,30.668 C22.9340011,30.6279998 23.1239992,30.5540005 23.292,30.446 C23.4600008,30.3379995 23.5939995,30.188001 23.694,29.996 C23.7940005,29.803999 23.844,29.5520016 23.844,29.24 C23.844,28.9759987 23.7960005,28.7580009 23.7,28.586 C23.6039995,28.4139991 23.4780008,28.2760005 23.322,28.172 C23.1659992,28.0679995 22.988001,27.9960002 22.788,27.956 C22.587999,27.9159998 22.384001,27.896 22.176,27.896 Z M26.592,26.6 L31.572,26.6 L31.572,28.064 L28.236,28.064 L28.236,30.02 L31.272,30.02 L31.272,31.484 L28.236,31.484 L28.236,33.536 L31.632,33.536 L31.632,35 L26.592,35 L26.592,26.6 Z M35.82,30.62 L38.952,30.62 L38.952,34.364 C38.6159983,34.6440014 38.2140023,34.8479994 37.746,34.976 C37.2779977,35.1040006 36.8160023,35.168 36.36,35.168 C35.8239973,35.168 35.3260023,35.0840008 34.866,34.916 C34.4059977,34.7479992 34.0080017,34.4860018 33.672,34.13 C33.3359983,33.7739982 33.072001,33.3200028 32.88,32.768 C32.687999,32.2159972 32.592,31.5600038 32.592,30.8 C32.592,30.007996 32.7059989,29.3340028 32.934,28.778 C33.1620011,28.2219972 33.4619981,27.7700017 33.834,27.422 C34.2060019,27.0739983 34.6239977,26.8220008 35.088,26.666 C35.5520023,26.5099992 36.0239976,26.432 36.504,26.432 C36.9840024,26.432 37.4059982,26.4679996 37.77,26.54 C38.1340018,26.6120004 38.4239989,26.6879996 38.64,26.768 L38.304,28.148 C38.103999,28.0679996 37.8800012,28.0060002 37.632,27.962 C37.3839988,27.9179998 37.0680019,27.896 36.684,27.896 C36.3399983,27.896 36.0240014,27.9479995 35.736,28.052 C35.4479986,28.1560005 35.1980011,28.3259988 34.986,28.562 C34.7739989,28.7980012 34.6100006,29.0999982 34.494,29.468 C34.3779994,29.8360018 34.32,30.2839974 34.32,30.812 C34.32,31.3160025 34.3759994,31.7499982 34.488,32.114 C34.6000006,32.4780018 34.755999,32.7779988 34.956,33.014 C35.156001,33.2500012 35.3899987,33.4239994 35.658,33.536 C35.9260013,33.6480006 36.2119985,33.704 36.516,33.704 C36.724001,33.704 36.927999,33.6780003 37.128,33.626 C37.328001,33.5739997 37.4959993,33.4960005 37.632,33.392 L37.632,31.808 L35.82,31.616 L35.82,30.62 Z" id="JPEG" fill="#FFFFFF"></path>
        </g>
    </g>
</svg>