<?xml version="1.0" encoding="UTF-8"?>
<svg width="54px" height="54px" viewBox="0 0 54 54" version="1.1" xmlns="http://www.w3.org/2000/svg" xmlns:xlink="http://www.w3.org/1999/xlink">
    <!-- Generator: Sketch 47.1 (45422) - http://www.bohemiancoding.com/sketch -->
    <title>jpg</title>
    <desc>Created with Sketch.</desc>
    <defs></defs>
    <g id="guidelines" stroke="none" stroke-width="1" fill="none" fill-rule="evenodd">
        <g id="jpg">
            <path d="M33,6 L44,15 L44,46 L44,46 C44,47.1045695 43.1045695,48 42,48 L12,48 L12,48 C10.8954305,48 10,47.1045695 10,46 L10,8 L10,8 C10,6.8954305 10.8954305,6 12,6 L33,6 Z" id="Fill-1" fill="#EAEAEA"></path>
            <path d="M44,15 L35,15 L35,15 C33.8954305,15 33,14.1045695 33,13 L33,6 L44,15 Z" id="Fill-3" fill="#C6C6C6"></path>
            <polygon id="Fill-5" fill="#60BDE8" points="10 39 44 39 44 23 10 23"></polygon>
            <path d="M18.703,25.9 L20.484,25.9 L20.484,32.556 C20.484,32.9026684 20.4450004,33.2319984 20.367,33.544 C20.2889996,33.8560016 20.1611676,34.1311655 19.9835,34.3695 C19.8058324,34.6078345 19.5783347,34.7984993 19.301,34.9415 C19.0236653,35.0845007 18.6856687,35.156 18.287,35.156 C18.0356654,35.156 17.7626681,35.1300003 17.468,35.078 C17.1733319,35.0259997 16.9176677,34.9523338 16.701,34.857 L17.091,33.401 C17.3163345,33.5136672 17.5719986,33.57 17.858,33.57 C18.2220018,33.57 18.4538328,33.435668 18.5535,33.167 C18.6531672,32.898332 18.703,32.5430022 18.703,32.101 L18.703,25.9 Z M22.122,25.991 C22.4860018,25.9216663 22.8868311,25.8675002 23.3245,25.8285 C23.7621689,25.7894998 24.1976645,25.77 24.631,25.77 C25.0816689,25.77 25.5344977,25.806833 25.9895,25.8805 C26.4445023,25.954167 26.8539982,26.1014989 27.218,26.3225 C27.5820018,26.5435011 27.8788322,26.8511647 28.1085,27.2455 C28.3381678,27.6398353 28.453,28.1533302 28.453,28.786 C28.453,29.3580029 28.3533343,29.8411647 28.154,30.2355 C27.9546657,30.6298353 27.690335,30.9526654 27.361,31.204 C27.031665,31.4553346 26.6568354,31.6373328 26.2365,31.75 C25.8161646,31.8626672 25.3806689,31.919 24.93,31.919 L24.722,31.919 C24.6266662,31.919 24.5270005,31.9168334 24.423,31.9125 C24.3189995,31.9081666 24.2171672,31.9016667 24.1175,31.893 C24.0178328,31.8843333 23.9463335,31.8756667 23.903,31.867 L23.903,35 L22.122,35 L22.122,25.991 Z M24.774,27.304 C24.6006658,27.304 24.4360008,27.3104999 24.28,27.3235 C24.1239992,27.3365001 23.9983338,27.3516666 23.903,27.369 L23.903,30.32 C23.9376668,30.3286667 23.9896663,30.3373333 24.059,30.346 C24.1283337,30.3546667 24.2019996,30.3611666 24.28,30.3655 C24.3580004,30.3698334 24.433833,30.372 24.5075,30.372 L24.67,30.372 C24.9040012,30.372 25.1358322,30.3503335 25.3655,30.307 C25.5951678,30.2636664 25.8009991,30.1835006 25.983,30.0665 C26.1650009,29.9494994 26.3101661,29.787001 26.4185,29.579 C26.5268339,29.370999 26.581,29.0980017 26.581,28.76 C26.581,28.4739986 26.5290005,28.2378343 26.425,28.0515 C26.3209995,27.8651657 26.1845008,27.7156672 26.0155,27.603 C25.8464992,27.4903328 25.6536678,27.4123335 25.437,27.369 C25.2203323,27.3256664 24.9993345,27.304 24.774,27.304 Z M32.626,30.255 L36.019,30.255 L36.019,34.311 C35.6549982,34.6143348 35.2195025,34.8353326 34.7125,34.974 C34.2054975,35.1126674 33.7050025,35.182 33.211,35.182 C32.6303304,35.182 32.0908358,35.0910009 31.5925,34.909 C31.0941642,34.7269991 30.6630018,34.4431686 30.299,34.0575 C29.9349982,33.6718314 29.649001,33.180003 29.441,32.582 C29.232999,31.983997 29.129,31.2733374 29.129,30.45 C29.129,29.5919957 29.2524988,28.8618363 29.4995,28.2595 C29.7465012,27.6571637 30.071498,27.1675019 30.4745,26.7905 C30.877502,26.4134981 31.3303308,26.1405008 31.833,25.9715 C32.3356692,25.8024992 32.8469974,25.718 33.367,25.718 C33.8870026,25.718 34.3441647,25.7569996 34.7385,25.835 C35.1328353,25.9130004 35.4469988,25.9953329 35.681,26.082 L35.317,27.577 C35.1003323,27.4903329 34.857668,27.4231669 34.589,27.3755 C34.320332,27.3278331 33.9780021,27.304 33.562,27.304 C33.1893315,27.304 32.8470016,27.3603328 32.535,27.473 C32.2229984,27.5856672 31.9521678,27.7698321 31.7225,28.0255 C31.4928322,28.2811679 31.3151673,28.6083313 31.1895,29.007 C31.0638327,29.4056687 31.001,29.8909971 31.001,30.463 C31.001,31.0090027 31.0616661,31.4791647 31.183,31.8735 C31.3043339,32.2678353 31.4733323,32.5928321 31.69,32.8485 C31.9066678,33.1041679 32.1601652,33.2926661 32.4505,33.414 C32.7408348,33.5353339 33.050665,33.596 33.38,33.596 C33.6053345,33.596 33.8263323,33.5678336 34.043,33.5115 C34.2596678,33.4551664 34.4416659,33.3706672 34.589,33.258 L34.589,31.542 L32.626,31.334 L32.626,30.255 Z" id="JPG" fill="#FFFFFF"></path>
        </g>
    </g>
</svg>