<?xml version="1.0" encoding="UTF-8"?>
<svg width="54px" height="54px" viewBox="0 0 54 54" version="1.1" xmlns="http://www.w3.org/2000/svg" xmlns:xlink="http://www.w3.org/1999/xlink">
    <!-- Generator: Sketch 47.1 (45422) - http://www.bohemiancoding.com/sketch -->
    <title>mp3</title>
    <desc>Created with Sketch.</desc>
    <defs></defs>
    <g id="guidelines" stroke="none" stroke-width="1" fill="none" fill-rule="evenodd">
        <g id="mp3">
            <path d="M33,6 L44,15 L44,46 L44,46 C44,47.1045695 43.1045695,48 42,48 L12,48 L12,48 C10.8954305,48 10,47.1045695 10,46 L10,8 L10,8 C10,6.8954305 10.8954305,6 12,6 L33,6 Z" id="Fill-1" fill="#EAEAEA"></path>
            <path d="M44,15 L35,15 L35,15 C33.8954305,15 33,14.1045695 33,13 L33,6 L44,15 Z" id="Fill-3" fill="#C6C6C6"></path>
            <polygon id="Fill-5" fill="#606CE8" points="10 39 44 39 44 23 10 23"></polygon>
            <path d="M21.839,30.281 L22.034,28.474 L21.956,28.474 L21.397,29.93 L19.46,33.323 L18.888,33.323 L16.847,29.917 L16.275,28.474 L16.21,28.474 L16.47,30.268 L16.47,35 L14.78,35 L14.78,25.9 L16.405,25.9 L18.836,30.06 L19.265,31.1 L19.317,31.1 L19.707,30.034 L22.008,25.9 L23.62,25.9 L23.62,35 L21.839,35 L21.839,30.281 Z M25.18,25.991 C25.5440018,25.9216663 25.9448311,25.8675002 26.3825,25.8285 C26.8201689,25.7894998 27.2556645,25.77 27.689,25.77 C28.1396689,25.77 28.5924977,25.806833 29.0475,25.8805 C29.5025023,25.954167 29.9119982,26.1014989 30.276,26.3225 C30.6400018,26.5435011 30.9368322,26.8511647 31.1665,27.2455 C31.3961678,27.6398353 31.511,28.1533302 31.511,28.786 C31.511,29.3580029 31.4113343,29.8411647 31.212,30.2355 C31.0126657,30.6298353 30.748335,30.9526654 30.419,31.204 C30.089665,31.4553346 29.7148354,31.6373328 29.2945,31.75 C28.8741646,31.8626672 28.4386689,31.919 27.988,31.919 L27.78,31.919 C27.6846662,31.919 27.5850005,31.9168334 27.481,31.9125 C27.3769995,31.9081666 27.2751672,31.9016667 27.1755,31.893 C27.0758328,31.8843333 27.0043335,31.8756667 26.961,31.867 L26.961,35 L25.18,35 L25.18,25.991 Z M27.832,27.304 C27.6586658,27.304 27.4940008,27.3104999 27.338,27.3235 C27.1819992,27.3365001 27.0563338,27.3516666 26.961,27.369 L26.961,30.32 C26.9956668,30.3286667 27.0476663,30.3373333 27.117,30.346 C27.1863337,30.3546667 27.2599996,30.3611666 27.338,30.3655 C27.4160004,30.3698334 27.491833,30.372 27.5655,30.372 L27.728,30.372 C27.9620012,30.372 28.1938322,30.3503335 28.4235,30.307 C28.6531678,30.2636664 28.8589991,30.1835006 29.041,30.0665 C29.2230009,29.9494994 29.3681661,29.787001 29.4765,29.579 C29.5848339,29.370999 29.639,29.0980017 29.639,28.76 C29.639,28.4739986 29.5870005,28.2378343 29.483,28.0515 C29.3789995,27.8651657 29.2425008,27.7156672 29.0735,27.603 C28.9044992,27.4903328 28.7116677,27.4123335 28.495,27.369 C28.2783322,27.3256664 28.0573345,27.304 27.832,27.304 Z M34.969,33.752 C35.506336,33.752 35.9158319,33.6090014 36.1975,33.323 C36.4791681,33.0369986 36.62,32.6903354 36.62,32.283 C36.62,31.7889975 36.4726681,31.4250012 36.178,31.191 C35.8833319,30.9569988 35.4196698,30.84 34.787,30.84 L33.851,30.84 L33.851,29.943 L35.424,27.798 L36.165,27.213 L35.138,27.33 L32.954,27.33 L32.954,25.9 L37.92,25.9 L37.92,26.823 L36.087,29.28 L35.515,29.631 L35.515,29.696 L36.061,29.618 C36.3643349,29.6440001 36.6524986,29.7133328 36.9255,29.826 C37.1985014,29.9386672 37.4368323,30.1011656 37.6405,30.3135 C37.8441677,30.5258344 38.0066661,30.7879984 38.128,31.1 C38.2493339,31.4120016 38.31,31.7716646 38.31,32.179 C38.31,32.6903359 38.2255008,33.1323315 38.0565,33.505 C37.8874992,33.8776685 37.6535015,34.1896654 37.3545,34.441 C37.0554985,34.6923346 36.7066687,34.8786661 36.308,35 C35.9093313,35.1213339 35.4803356,35.182 35.021,35.182 C34.6396648,35.182 34.2453354,35.1473337 33.838,35.078 C33.4306646,35.0086663 33.1013346,34.9090006 32.85,34.779 L33.305,33.375 C33.5303345,33.4876672 33.7794986,33.5786663 34.0525,33.648 C34.3255014,33.7173337 34.6309983,33.752 34.969,33.752 Z" id="MP3" fill="#FFFFFF"></path>
        </g>
    </g>
</svg>