<?xml version="1.0" encoding="UTF-8"?>
<svg width="54px" height="54px" viewBox="0 0 54 54" version="1.1" xmlns="http://www.w3.org/2000/svg" xmlns:xlink="http://www.w3.org/1999/xlink">
    <!-- Generator: Sketch 47.1 (45422) - http://www.bohemiancoding.com/sketch -->
    <title>mpeg</title>
    <desc>Created with Sketch.</desc>
    <defs></defs>
    <g id="guidelines" stroke="none" stroke-width="1" fill="none" fill-rule="evenodd">
        <g id="mpeg">
            <path d="M33,6 L44,15 L44,46 L44,46 C44,47.1045695 43.1045695,48 42,48 L12,48 L12,48 C10.8954305,48 10,47.1045695 10,46 L10,8 L10,8 C10,6.8954305 10.8954305,6 12,6 L33,6 Z" id="Fill-1" fill="#EAEAEA"></path>
            <path d="M44,15 L35,15 L35,15 C33.8954305,15 33,14.1045695 33,13 L33,6 L44,15 Z" id="Fill-3" fill="#C6C6C6"></path>
            <polygon id="Fill-5" fill="#E94343" points="10 39 44 39 44 23 10 23"></polygon>
            <path d="M19.236,30.644 L19.416,28.976 L19.344,28.976 L18.828,30.32 L17.04,33.452 L16.512,33.452 L14.628,30.308 L14.1,28.976 L14.04,28.976 L14.28,30.632 L14.28,35 L12.72,35 L12.72,26.6 L14.22,26.6 L16.464,30.44 L16.86,31.4 L16.908,31.4 L17.268,30.416 L19.392,26.6 L20.88,26.6 L20.88,35 L19.236,35 L19.236,30.644 Z M22.32,26.684 C22.6560017,26.6199997 23.025998,26.5700002 23.43,26.534 C23.834002,26.4979998 24.235998,26.48 24.636,26.48 C25.0520021,26.48 25.4699979,26.5139997 25.89,26.582 C26.3100021,26.6500003 26.6879983,26.785999 27.024,26.99 C27.3600017,27.194001 27.6339989,27.4779982 27.846,27.842 C28.0580011,28.2060018 28.164,28.6799971 28.164,29.264 C28.164,29.7920026 28.0720009,30.2379982 27.888,30.602 C27.7039991,30.9660018 27.4600015,31.2639988 27.156,31.496 C26.8519985,31.7280012 26.5060019,31.8959995 26.118,32 C25.7299981,32.1040005 25.3280021,32.156 24.912,32.156 L24.72,32.156 C24.6319996,32.156 24.5400005,32.154 24.444,32.15 C24.3479995,32.146 24.2540005,32.14 24.162,32.132 C24.0699995,32.124 24.0040002,32.116 23.964,32.108 L23.964,35 L22.32,35 L22.32,26.684 Z M24.768,27.896 C24.6079992,27.896 24.4560007,27.9019999 24.312,27.914 C24.1679993,27.9260001 24.0520004,27.9399999 23.964,27.956 L23.964,30.68 C23.9960002,30.688 24.0439997,30.696 24.108,30.704 C24.1720003,30.712 24.2399996,30.718 24.312,30.722 C24.3840004,30.726 24.4539997,30.728 24.522,30.728 L24.672,30.728 C24.8880011,30.728 25.1019989,30.7080002 25.314,30.668 C25.5260011,30.6279998 25.7159992,30.5540005 25.884,30.446 C26.0520008,30.3379995 26.1859995,30.188001 26.286,29.996 C26.3860005,29.803999 26.436,29.5520016 26.436,29.24 C26.436,28.9759987 26.3880005,28.7580009 26.292,28.586 C26.1959995,28.4139991 26.0700008,28.2760005 25.914,28.172 C25.7579992,28.0679995 25.580001,27.9960002 25.38,27.956 C25.179999,27.9159998 24.976001,27.896 24.768,27.896 Z M29.184,26.6 L34.164,26.6 L34.164,28.064 L30.828,28.064 L30.828,30.02 L33.864,30.02 L33.864,31.484 L30.828,31.484 L30.828,33.536 L34.224,33.536 L34.224,35 L29.184,35 L29.184,26.6 Z M38.412,30.62 L41.544,30.62 L41.544,34.364 C41.2079983,34.6440014 40.8060023,34.8479994 40.338,34.976 C39.8699977,35.1040006 39.4080023,35.168 38.952,35.168 C38.4159973,35.168 37.9180023,35.0840008 37.458,34.916 C36.9979977,34.7479992 36.6000017,34.4860018 36.264,34.13 C35.9279983,33.7739982 35.664001,33.3200028 35.472,32.768 C35.279999,32.2159972 35.184,31.5600038 35.184,30.8 C35.184,30.007996 35.2979989,29.3340028 35.526,28.778 C35.7540011,28.2219972 36.0539981,27.7700017 36.426,27.422 C36.7980019,27.0739983 37.2159977,26.8220008 37.68,26.666 C38.1440023,26.5099992 38.6159976,26.432 39.096,26.432 C39.5760024,26.432 39.9979982,26.4679996 40.362,26.54 C40.7260018,26.6120004 41.0159989,26.6879996 41.232,26.768 L40.896,28.148 C40.695999,28.0679996 40.4720012,28.0060002 40.224,27.962 C39.9759988,27.9179998 39.6600019,27.896 39.276,27.896 C38.9319983,27.896 38.6160014,27.9479995 38.328,28.052 C38.0399986,28.1560005 37.7900011,28.3259988 37.578,28.562 C37.3659989,28.7980012 37.2020006,29.0999982 37.086,29.468 C36.9699994,29.8360018 36.912,30.2839974 36.912,30.812 C36.912,31.3160025 36.9679994,31.7499982 37.08,32.114 C37.1920006,32.4780018 37.347999,32.7779988 37.548,33.014 C37.748001,33.2500012 37.9819987,33.4239994 38.25,33.536 C38.5180013,33.6480006 38.8039985,33.704 39.108,33.704 C39.316001,33.704 39.519999,33.6780003 39.72,33.626 C39.920001,33.5739997 40.0879993,33.4960005 40.224,33.392 L40.224,31.808 L38.412,31.616 L38.412,30.62 Z" id="MPEG" fill="#FFFFFF"></path>
        </g>
    </g>
</svg>