<?xml version="1.0" encoding="UTF-8"?>
<svg width="54px" height="54px" viewBox="0 0 54 54" version="1.1" xmlns="http://www.w3.org/2000/svg" xmlns:xlink="http://www.w3.org/1999/xlink">
    <!-- Generator: Sketch 47.1 (45422) - http://www.bohemiancoding.com/sketch -->
    <title>mpg</title>
    <desc>Created with Sketch.</desc>
    <defs></defs>
    <g id="guidelines" stroke="none" stroke-width="1" fill="none" fill-rule="evenodd">
        <g id="mpg">
            <path d="M33,6 L44,15 L44,46 L44,46 C44,47.1045695 43.1045695,48 42,48 L12,48 L12,48 C10.8954305,48 10,47.1045695 10,46 L10,8 L10,8 C10,6.8954305 10.8954305,6 12,6 L33,6 Z" id="Fill-1" fill="#EAEAEA"></path>
            <path d="M44,15 L35,15 L35,15 C33.8954305,15 33,14.1045695 33,13 L33,6 L44,15 Z" id="Fill-3" fill="#C6C6C6"></path>
            <polygon id="Fill-5" fill="#E94343" points="10 39 44 39 44 23 10 23"></polygon>
            <path d="M21.839,30.281 L22.034,28.474 L21.956,28.474 L21.397,29.93 L19.46,33.323 L18.888,33.323 L16.847,29.917 L16.275,28.474 L16.21,28.474 L16.47,30.268 L16.47,35 L14.78,35 L14.78,25.9 L16.405,25.9 L18.836,30.06 L19.265,31.1 L19.317,31.1 L19.707,30.034 L22.008,25.9 L23.62,25.9 L23.62,35 L21.839,35 L21.839,30.281 Z M25.18,25.991 C25.5440018,25.9216663 25.9448311,25.8675002 26.3825,25.8285 C26.8201689,25.7894998 27.2556645,25.77 27.689,25.77 C28.1396689,25.77 28.5924977,25.806833 29.0475,25.8805 C29.5025023,25.954167 29.9119982,26.1014989 30.276,26.3225 C30.6400018,26.5435011 30.9368322,26.8511647 31.1665,27.2455 C31.3961678,27.6398353 31.511,28.1533302 31.511,28.786 C31.511,29.3580029 31.4113343,29.8411647 31.212,30.2355 C31.0126657,30.6298353 30.748335,30.9526654 30.419,31.204 C30.089665,31.4553346 29.7148354,31.6373328 29.2945,31.75 C28.8741646,31.8626672 28.4386689,31.919 27.988,31.919 L27.78,31.919 C27.6846662,31.919 27.5850005,31.9168334 27.481,31.9125 C27.3769995,31.9081666 27.2751672,31.9016667 27.1755,31.893 C27.0758328,31.8843333 27.0043335,31.8756667 26.961,31.867 L26.961,35 L25.18,35 L25.18,25.991 Z M27.832,27.304 C27.6586658,27.304 27.4940008,27.3104999 27.338,27.3235 C27.1819992,27.3365001 27.0563338,27.3516666 26.961,27.369 L26.961,30.32 C26.9956668,30.3286667 27.0476663,30.3373333 27.117,30.346 C27.1863337,30.3546667 27.2599996,30.3611666 27.338,30.3655 C27.4160004,30.3698334 27.491833,30.372 27.5655,30.372 L27.728,30.372 C27.9620012,30.372 28.1938322,30.3503335 28.4235,30.307 C28.6531678,30.2636664 28.8589991,30.1835006 29.041,30.0665 C29.2230009,29.9494994 29.3681661,29.787001 29.4765,29.579 C29.5848339,29.370999 29.639,29.0980017 29.639,28.76 C29.639,28.4739986 29.5870005,28.2378343 29.483,28.0515 C29.3789995,27.8651657 29.2425008,27.7156672 29.0735,27.603 C28.9044992,27.4903328 28.7116677,27.4123335 28.495,27.369 C28.2783322,27.3256664 28.0573345,27.304 27.832,27.304 Z M35.684,30.255 L39.077,30.255 L39.077,34.311 C38.7129982,34.6143348 38.2775025,34.8353326 37.7705,34.974 C37.2634975,35.1126674 36.7630025,35.182 36.269,35.182 C35.6883304,35.182 35.1488358,35.0910009 34.6505,34.909 C34.1521642,34.7269991 33.7210018,34.4431686 33.357,34.0575 C32.9929982,33.6718314 32.707001,33.180003 32.499,32.582 C32.290999,31.983997 32.187,31.2733374 32.187,30.45 C32.187,29.5919957 32.3104988,28.8618363 32.5575,28.2595 C32.8045012,27.6571637 33.129498,27.1675019 33.5325,26.7905 C33.935502,26.4134981 34.3883308,26.1405008 34.891,25.9715 C35.3936692,25.8024992 35.9049974,25.718 36.425,25.718 C36.9450026,25.718 37.4021647,25.7569996 37.7965,25.835 C38.1908353,25.9130004 38.5049988,25.9953329 38.739,26.082 L38.375,27.577 C38.1583322,27.4903329 37.915668,27.4231669 37.647,27.3755 C37.378332,27.3278331 37.0360021,27.304 36.62,27.304 C36.2473315,27.304 35.9050016,27.3603328 35.593,27.473 C35.2809984,27.5856672 35.0101678,27.7698321 34.7805,28.0255 C34.5508322,28.2811679 34.3731673,28.6083313 34.2475,29.007 C34.1218327,29.4056687 34.059,29.8909971 34.059,30.463 C34.059,31.0090027 34.1196661,31.4791647 34.241,31.8735 C34.3623339,32.2678353 34.5313322,32.5928321 34.748,32.8485 C34.9646677,33.1041679 35.2181652,33.2926661 35.5085,33.414 C35.7988348,33.5353339 36.108665,33.596 36.438,33.596 C36.6633345,33.596 36.8843322,33.5678336 37.101,33.5115 C37.3176677,33.4551664 37.4996659,33.3706672 37.647,33.258 L37.647,31.542 L35.684,31.334 L35.684,30.255 Z" id="MPG" fill="#FFFFFF"></path>
        </g>
    </g>
</svg>