<?xml version="1.0" encoding="UTF-8"?>
<svg width="54px" height="54px" viewBox="0 0 54 54" version="1.1" xmlns="http://www.w3.org/2000/svg" xmlns:xlink="http://www.w3.org/1999/xlink">
    <!-- Generator: Sketch 47.1 (45422) - http://www.bohemiancoding.com/sketch -->
    <title>odp</title>
    <desc>Created with Sketch.</desc>
    <defs></defs>
    <g id="guidelines" stroke="none" stroke-width="1" fill="none" fill-rule="evenodd">
        <g id="odp">
            <path d="M33,6 L44,15 L44,46 L44,46 C44,47.1045695 43.1045695,48 42,48 L12,48 L12,48 C10.8954305,48 10,47.1045695 10,46 L10,8 L10,8 C10,6.8954305 10.8954305,6 12,6 L33,6 Z" id="Fill-1" fill="#EAEAEA"></path>
            <path d="M44,15 L35,15 L35,15 C33.8954305,15 33,14.1045695 33,13 L33,6 L44,15 Z" id="Fill-3" fill="#C6C6C6"></path>
            <polygon id="Fill-5" fill="#A20909" points="10 39 44 39 44 23 10 23"></polygon>
            <path d="M15.494,30.45 C15.494,28.9333258 15.8276633,27.7655041 16.495,26.9465 C17.1623367,26.1274959 18.1156605,25.718 19.355,25.718 C20.0050033,25.718 20.5726642,25.8306655 21.058,26.056 C21.5433358,26.2813345 21.9463317,26.6019979 22.267,27.018 C22.5876683,27.4340021 22.8259992,27.9323304 22.982,28.513 C23.1380008,29.0936696 23.216,29.7393298 23.216,30.45 C23.216,31.9666743 22.88017,33.1344959 22.2085,33.9535 C21.53683,34.7725041 20.5856728,35.182 19.355,35.182 C18.69633,35.182 18.1243358,35.0693345 17.639,34.844 C17.1536642,34.6186655 16.7528349,34.2980021 16.4365,33.882 C16.1201651,33.4659979 15.8840008,32.9676696 15.728,32.387 C15.5719992,31.8063304 15.494,31.1606702 15.494,30.45 Z M17.366,30.45 C17.366,30.9093356 17.4049996,31.3318314 17.483,31.7175 C17.5610004,32.1031686 17.6801659,32.4346653 17.8405,32.712 C18.0008341,32.9893347 18.2066654,33.2059992 18.458,33.362 C18.7093346,33.5180008 19.0083316,33.596 19.355,33.596 C19.9876698,33.596 20.4773316,33.3490025 20.824,32.855 C21.1706684,32.3609975 21.344,31.5593389 21.344,30.45 C21.344,30.0079978 21.307167,29.5963352 21.2335,29.215 C21.159833,28.8336648 21.0450008,28.5000014 20.889,28.214 C20.7329992,27.9279986 20.5293346,27.7048341 20.278,27.5445 C20.0266654,27.3841659 19.7190018,27.304 19.355,27.304 C18.7223302,27.304 18.2326684,27.5574975 17.886,28.0645 C17.5393316,28.5715025 17.366,29.3666612 17.366,30.45 Z M24.49,25.9 C24.6720009,25.8739999 24.8778322,25.8523334 25.1075,25.835 C25.3371678,25.8176666 25.5733321,25.8046667 25.816,25.796 C26.0586679,25.7873333 26.2948322,25.7808334 26.5245,25.7765 C26.7541678,25.7721666 26.9599991,25.77 27.142,25.77 C27.948004,25.77 28.6369971,25.8826655 29.209,26.108 C29.7810029,26.3333345 30.2446649,26.6496646 30.6,27.057 C30.9553351,27.4643354 31.2153325,27.9496639 31.38,28.513 C31.5446675,29.0763361 31.627,29.6959966 31.627,30.372 C31.627,30.9873364 31.5490008,31.5809971 31.393,32.153 C31.2369992,32.7250029 30.9770018,33.2319978 30.613,33.674 C30.2489982,34.1160022 29.7701696,34.471332 29.1765,34.74 C28.5828304,35.008668 27.8483377,35.143 26.973,35.143 C26.8343326,35.143 26.6501678,35.1386667 26.4205,35.13 C26.1908322,35.1213333 25.9525012,35.1105001 25.7055,35.0975 C25.4584988,35.0844999 25.2223345,35.0715001 24.997,35.0585 C24.7716655,35.0454999 24.6026672,35.0303334 24.49,35.013 L24.49,25.9 Z M27.285,27.356 C27.0943324,27.356 26.901501,27.3603333 26.7065,27.369 C26.511499,27.3776667 26.3663338,27.3906666 26.271,27.408 L26.271,33.505 C26.3056668,33.5136667 26.3641663,33.5201666 26.4465,33.5245 C26.5288337,33.5288334 26.6176662,33.5331666 26.713,33.5375 C26.8083338,33.5418334 26.8993329,33.5461666 26.986,33.5505 C27.0726671,33.5548334 27.1376665,33.557 27.181,33.557 C27.6836692,33.557 28.1018317,33.4681676 28.4355,33.2905 C28.7691683,33.1128324 29.033499,32.8766681 29.2285,32.582 C29.423501,32.2873319 29.5599996,31.9471686 29.638,31.5615 C29.7160004,31.1758314 29.755,30.7793354 29.755,30.372 C29.755,30.0166649 29.7203337,29.6591685 29.651,29.2995 C29.5816663,28.9398315 29.4538343,28.6170014 29.2675,28.331 C29.0811657,28.0449986 28.8276683,27.8110009 28.507,27.629 C28.1863317,27.4469991 27.7790025,27.356 27.285,27.356 Z M32.901,25.991 C33.2650018,25.9216663 33.6658311,25.8675002 34.1035,25.8285 C34.5411689,25.7894998 34.9766645,25.77 35.41,25.77 C35.8606689,25.77 36.3134977,25.806833 36.7685,25.8805 C37.2235023,25.954167 37.6329982,26.1014989 37.997,26.3225 C38.3610018,26.5435011 38.6578322,26.8511647 38.8875,27.2455 C39.1171678,27.6398353 39.232,28.1533302 39.232,28.786 C39.232,29.3580029 39.1323343,29.8411647 38.933,30.2355 C38.7336657,30.6298353 38.469335,30.9526654 38.14,31.204 C37.810665,31.4553346 37.4358354,31.6373328 37.0155,31.75 C36.5951646,31.8626672 36.1596689,31.919 35.709,31.919 L35.501,31.919 C35.4056662,31.919 35.3060005,31.9168334 35.202,31.9125 C35.0979995,31.9081666 34.9961672,31.9016667 34.8965,31.893 C34.7968328,31.8843333 34.7253336,31.8756667 34.682,31.867 L34.682,35 L32.901,35 L32.901,25.991 Z M35.553,27.304 C35.3796658,27.304 35.2150008,27.3104999 35.059,27.3235 C34.9029992,27.3365001 34.7773338,27.3516666 34.682,27.369 L34.682,30.32 C34.7166668,30.3286667 34.7686663,30.3373333 34.838,30.346 C34.9073337,30.3546667 34.9809996,30.3611666 35.059,30.3655 C35.1370004,30.3698334 35.212833,30.372 35.2865,30.372 L35.449,30.372 C35.6830012,30.372 35.9148322,30.3503335 36.1445,30.307 C36.3741678,30.2636664 36.5799991,30.1835006 36.762,30.0665 C36.9440009,29.9494994 37.0891661,29.787001 37.1975,29.579 C37.3058339,29.370999 37.36,29.0980017 37.36,28.76 C37.36,28.4739986 37.3080005,28.2378343 37.204,28.0515 C37.0999995,27.8651657 36.9635008,27.7156672 36.7945,27.603 C36.6254992,27.4903328 36.4326678,27.4123335 36.216,27.369 C35.9993323,27.3256664 35.7783345,27.304 35.553,27.304 Z" id="ODP" fill="#FFFFFF"></path>
        </g>
    </g>
</svg>