<?xml version="1.0" encoding="UTF-8"?>
<svg width="54px" height="54px" viewBox="0 0 54 54" version="1.1" xmlns="http://www.w3.org/2000/svg" xmlns:xlink="http://www.w3.org/1999/xlink">
    <!-- Generator: Sketch 47.1 (45422) - http://www.bohemiancoding.com/sketch -->
    <title>ods</title>
    <desc>Created with Sketch.</desc>
    <defs></defs>
    <g id="guidelines" stroke="none" stroke-width="1" fill="none" fill-rule="evenodd">
        <g id="ods">
            <path d="M33,6 L44,15 L44,46 L44,46 C44,47.1045695 43.1045695,48 42,48 L12,48 L12,48 C10.8954305,48 10,47.1045695 10,46 L10,8 L10,8 C10,6.8954305 10.8954305,6 12,6 L33,6 Z" id="Fill-1" fill="#EAEAEA"></path>
            <path d="M44,15 L35,15 L35,15 C33.8954305,15 33,14.1045695 33,13 L33,6 L44,15 Z" id="Fill-3" fill="#C6C6C6"></path>
            <polygon id="Fill-5" fill="#596D7E" points="10 39 44 39 44 23 10 23"></polygon>
            <path d="M15.494,30.45 C15.494,28.9333258 15.8276633,27.7655041 16.495,26.9465 C17.1623367,26.1274959 18.1156605,25.718 19.355,25.718 C20.0050033,25.718 20.5726642,25.8306655 21.058,26.056 C21.5433358,26.2813345 21.9463317,26.6019979 22.267,27.018 C22.5876683,27.4340021 22.8259992,27.9323304 22.982,28.513 C23.1380008,29.0936696 23.216,29.7393298 23.216,30.45 C23.216,31.9666743 22.88017,33.1344959 22.2085,33.9535 C21.53683,34.7725041 20.5856728,35.182 19.355,35.182 C18.69633,35.182 18.1243358,35.0693345 17.639,34.844 C17.1536642,34.6186655 16.7528349,34.2980021 16.4365,33.882 C16.1201651,33.4659979 15.8840008,32.9676696 15.728,32.387 C15.5719992,31.8063304 15.494,31.1606702 15.494,30.45 Z M17.366,30.45 C17.366,30.9093356 17.4049996,31.3318314 17.483,31.7175 C17.5610004,32.1031686 17.6801659,32.4346653 17.8405,32.712 C18.0008341,32.9893347 18.2066654,33.2059992 18.458,33.362 C18.7093346,33.5180008 19.0083316,33.596 19.355,33.596 C19.9876698,33.596 20.4773316,33.3490025 20.824,32.855 C21.1706684,32.3609975 21.344,31.5593389 21.344,30.45 C21.344,30.0079978 21.307167,29.5963352 21.2335,29.215 C21.159833,28.8336648 21.0450008,28.5000014 20.889,28.214 C20.7329992,27.9279986 20.5293346,27.7048341 20.278,27.5445 C20.0266654,27.3841659 19.7190018,27.304 19.355,27.304 C18.7223302,27.304 18.2326684,27.5574975 17.886,28.0645 C17.5393316,28.5715025 17.366,29.3666612 17.366,30.45 Z M24.49,25.9 C24.6720009,25.8739999 24.8778322,25.8523334 25.1075,25.835 C25.3371678,25.8176666 25.5733321,25.8046667 25.816,25.796 C26.0586679,25.7873333 26.2948322,25.7808334 26.5245,25.7765 C26.7541678,25.7721666 26.9599991,25.77 27.142,25.77 C27.948004,25.77 28.6369971,25.8826655 29.209,26.108 C29.7810029,26.3333345 30.2446649,26.6496646 30.6,27.057 C30.9553351,27.4643354 31.2153325,27.9496639 31.38,28.513 C31.5446675,29.0763361 31.627,29.6959966 31.627,30.372 C31.627,30.9873364 31.5490008,31.5809971 31.393,32.153 C31.2369992,32.7250029 30.9770018,33.2319978 30.613,33.674 C30.2489982,34.1160022 29.7701696,34.471332 29.1765,34.74 C28.5828304,35.008668 27.8483377,35.143 26.973,35.143 C26.8343326,35.143 26.6501678,35.1386667 26.4205,35.13 C26.1908322,35.1213333 25.9525012,35.1105001 25.7055,35.0975 C25.4584988,35.0844999 25.2223345,35.0715001 24.997,35.0585 C24.7716655,35.0454999 24.6026672,35.0303334 24.49,35.013 L24.49,25.9 Z M27.285,27.356 C27.0943324,27.356 26.901501,27.3603333 26.7065,27.369 C26.511499,27.3776667 26.3663338,27.3906666 26.271,27.408 L26.271,33.505 C26.3056668,33.5136667 26.3641663,33.5201666 26.4465,33.5245 C26.5288337,33.5288334 26.6176662,33.5331666 26.713,33.5375 C26.8083338,33.5418334 26.8993329,33.5461666 26.986,33.5505 C27.0726671,33.5548334 27.1376665,33.557 27.181,33.557 C27.6836692,33.557 28.1018317,33.4681676 28.4355,33.2905 C28.7691683,33.1128324 29.033499,32.8766681 29.2285,32.582 C29.423501,32.2873319 29.5599996,31.9471686 29.638,31.5615 C29.7160004,31.1758314 29.755,30.7793354 29.755,30.372 C29.755,30.0166649 29.7203337,29.6591685 29.651,29.2995 C29.5816663,28.9398315 29.4538343,28.6170014 29.2675,28.331 C29.0811657,28.0449986 28.8276683,27.8110009 28.507,27.629 C28.1863317,27.4469991 27.7790025,27.356 27.285,27.356 Z M36.827,32.556 C36.827,32.2786653 36.7251677,32.0533342 36.5215,31.88 C36.3178323,31.7066658 36.0621682,31.5485007 35.7545,31.4055 C35.4468318,31.2624993 35.1131685,31.1151674 34.7535,30.9635 C34.3938315,30.8118326 34.0601682,30.6255011 33.7525,30.4045 C33.4448318,30.1834989 33.1891677,29.908335 32.9855,29.579 C32.7818323,29.249665 32.68,28.8293359 32.68,28.318 C32.68,27.8759978 32.7536659,27.4925016 32.901,27.1675 C33.0483341,26.8424984 33.2584986,26.5716677 33.5315,26.355 C33.8045014,26.1383323 34.1273315,25.9780005 34.5,25.874 C34.8726685,25.7699995 35.2886644,25.718 35.748,25.718 C36.2766693,25.718 36.7749977,25.7634995 37.243,25.8545 C37.7110023,25.9455005 38.0966652,26.0776658 38.4,26.251 L37.841,27.746 C37.6503324,27.6246661 37.3643352,27.5141672 36.983,27.4145 C36.6016648,27.3148328 36.1900022,27.265 35.748,27.265 C35.3319979,27.265 35.0135011,27.3473325 34.7925,27.512 C34.5714989,27.6766675 34.461,27.8976653 34.461,28.175 C34.461,28.4350013 34.5628323,28.6516658 34.7665,28.825 C34.9701677,28.9983342 35.2258318,29.1586659 35.5335,29.306 C35.8411682,29.4533341 36.1748315,29.6049992 36.5345,29.761 C36.8941685,29.9170008 37.2278318,30.1054989 37.5355,30.3265 C37.8431682,30.5475011 38.0988323,30.8204984 38.3025,31.1455 C38.5061677,31.4705016 38.608,31.8756642 38.608,32.361 C38.608,32.8463358 38.5278341,33.2644982 38.3675,33.6155 C38.2071659,33.9665018 37.9818348,34.2589988 37.6915,34.493 C37.4011652,34.7270012 37.0501687,34.9003328 36.6385,35.013 C36.2268313,35.1256672 35.7740025,35.182 35.28,35.182 C34.6299968,35.182 34.0580025,35.1213339 33.564,35 C33.0699975,34.8786661 32.7060012,34.7573339 32.472,34.636 L33.044,33.115 C33.1393338,33.1670003 33.2628326,33.223333 33.4145,33.284 C33.5661674,33.344667 33.7373324,33.4009997 33.928,33.453 C34.1186676,33.5050003 34.3201656,33.5483332 34.5325,33.583 C34.7448344,33.6176668 34.9636655,33.635 35.189,33.635 C35.7176693,33.635 36.1228319,33.5461676 36.4045,33.3685 C36.6861681,33.1908324 36.827,32.9200018 36.827,32.556 Z" id="ODS" fill="#FFFFFF"></path>
        </g>
    </g>
</svg>