<?xml version="1.0" encoding="UTF-8"?>
<svg width="54px" height="54px" viewBox="0 0 54 54" version="1.1" xmlns="http://www.w3.org/2000/svg" xmlns:xlink="http://www.w3.org/1999/xlink">
    <!-- Generator: Sketch 47.1 (45422) - http://www.bohemiancoding.com/sketch -->
    <title>ogg</title>
    <desc>Created with Sketch.</desc>
    <defs></defs>
    <g id="guidelines" stroke="none" stroke-width="1" fill="none" fill-rule="evenodd">
        <g id="ogg">
            <path d="M33,6 L44,15 L44,46 L44,46 C44,47.1045695 43.1045695,48 42,48 L12,48 L12,48 C10.8954305,48 10,47.1045695 10,46 L10,8 L10,8 C10,6.8954305 10.8954305,6 12,6 L33,6 Z" id="Fill-1" fill="#EAEAEA"></path>
            <path d="M44,15 L35,15 L35,15 C33.8954305,15 33,14.1045695 33,13 L33,6 L44,15 Z" id="Fill-3" fill="#C6C6C6"></path>
            <polygon id="Fill-5" fill="#606CE8" points="10 39 44 39 44 23 10 23"></polygon>
            <path d="M15.494,30.45 C15.494,28.9333258 15.8276633,27.7655041 16.495,26.9465 C17.1623367,26.1274959 18.1156605,25.718 19.355,25.718 C20.0050033,25.718 20.5726642,25.8306655 21.058,26.056 C21.5433358,26.2813345 21.9463317,26.6019979 22.267,27.018 C22.5876683,27.4340021 22.8259992,27.9323304 22.982,28.513 C23.1380008,29.0936696 23.216,29.7393298 23.216,30.45 C23.216,31.9666743 22.88017,33.1344959 22.2085,33.9535 C21.53683,34.7725041 20.5856728,35.182 19.355,35.182 C18.69633,35.182 18.1243358,35.0693345 17.639,34.844 C17.1536642,34.6186655 16.7528349,34.2980021 16.4365,33.882 C16.1201651,33.4659979 15.8840008,32.9676696 15.728,32.387 C15.5719992,31.8063304 15.494,31.1606702 15.494,30.45 Z M17.366,30.45 C17.366,30.9093356 17.4049996,31.3318314 17.483,31.7175 C17.5610004,32.1031686 17.6801659,32.4346653 17.8405,32.712 C18.0008341,32.9893347 18.2066654,33.2059992 18.458,33.362 C18.7093346,33.5180008 19.0083316,33.596 19.355,33.596 C19.9876698,33.596 20.4773316,33.3490025 20.824,32.855 C21.1706684,32.3609975 21.344,31.5593389 21.344,30.45 C21.344,30.0079978 21.307167,29.5963352 21.2335,29.215 C21.159833,28.8336648 21.0450008,28.5000014 20.889,28.214 C20.7329992,27.9279986 20.5293346,27.7048341 20.278,27.5445 C20.0266654,27.3841659 19.7190018,27.304 19.355,27.304 C18.7223302,27.304 18.2326684,27.5574975 17.886,28.0645 C17.5393316,28.5715025 17.366,29.3666612 17.366,30.45 Z M27.701,30.255 L31.094,30.255 L31.094,34.311 C30.7299982,34.6143348 30.2945025,34.8353326 29.7875,34.974 C29.2804975,35.1126674 28.7800025,35.182 28.286,35.182 C27.7053304,35.182 27.1658358,35.0910009 26.6675,34.909 C26.1691642,34.7269991 25.7380018,34.4431686 25.374,34.0575 C25.0099982,33.6718314 24.724001,33.180003 24.516,32.582 C24.307999,31.983997 24.204,31.2733374 24.204,30.45 C24.204,29.5919957 24.3274988,28.8618363 24.5745,28.2595 C24.8215012,27.6571637 25.146498,27.1675019 25.5495,26.7905 C25.952502,26.4134981 26.4053308,26.1405008 26.908,25.9715 C27.4106692,25.8024992 27.9219974,25.718 28.442,25.718 C28.9620026,25.718 29.4191647,25.7569996 29.8135,25.835 C30.2078353,25.9130004 30.5219988,25.9953329 30.756,26.082 L30.392,27.577 C30.1753323,27.4903329 29.932668,27.4231669 29.664,27.3755 C29.395332,27.3278331 29.0530021,27.304 28.637,27.304 C28.2643315,27.304 27.9220016,27.3603328 27.61,27.473 C27.2979984,27.5856672 27.0271678,27.7698321 26.7975,28.0255 C26.5678322,28.2811679 26.3901673,28.6083313 26.2645,29.007 C26.1388327,29.4056687 26.076,29.8909971 26.076,30.463 C26.076,31.0090027 26.1366661,31.4791647 26.258,31.8735 C26.3793339,32.2678353 26.5483323,32.5928321 26.765,32.8485 C26.9816677,33.1041679 27.2351652,33.2926661 27.5255,33.414 C27.8158348,33.5353339 28.125665,33.596 28.455,33.596 C28.6803345,33.596 28.9013323,33.5678336 29.118,33.5115 C29.3346678,33.4551664 29.5166659,33.3706672 29.664,33.258 L29.664,31.542 L27.701,31.334 L27.701,30.255 Z M35.618,30.255 L39.011,30.255 L39.011,34.311 C38.6469982,34.6143348 38.2115025,34.8353326 37.7045,34.974 C37.1974975,35.1126674 36.6970025,35.182 36.203,35.182 C35.6223304,35.182 35.0828358,35.0910009 34.5845,34.909 C34.0861642,34.7269991 33.6550018,34.4431686 33.291,34.0575 C32.9269982,33.6718314 32.641001,33.180003 32.433,32.582 C32.224999,31.983997 32.121,31.2733374 32.121,30.45 C32.121,29.5919957 32.2444988,28.8618363 32.4915,28.2595 C32.7385012,27.6571637 33.063498,27.1675019 33.4665,26.7905 C33.869502,26.4134981 34.3223308,26.1405008 34.825,25.9715 C35.3276692,25.8024992 35.8389974,25.718 36.359,25.718 C36.8790026,25.718 37.3361647,25.7569996 37.7305,25.835 C38.1248353,25.9130004 38.4389988,25.9953329 38.673,26.082 L38.309,27.577 C38.0923322,27.4903329 37.849668,27.4231669 37.581,27.3755 C37.312332,27.3278331 36.9700021,27.304 36.554,27.304 C36.1813315,27.304 35.8390016,27.3603328 35.527,27.473 C35.2149984,27.5856672 34.9441678,27.7698321 34.7145,28.0255 C34.4848322,28.2811679 34.3071673,28.6083313 34.1815,29.007 C34.0558327,29.4056687 33.993,29.8909971 33.993,30.463 C33.993,31.0090027 34.0536661,31.4791647 34.175,31.8735 C34.2963339,32.2678353 34.4653323,32.5928321 34.682,32.8485 C34.8986678,33.1041679 35.1521652,33.2926661 35.4425,33.414 C35.7328348,33.5353339 36.042665,33.596 36.372,33.596 C36.5973345,33.596 36.8183322,33.5678336 37.035,33.5115 C37.2516678,33.4551664 37.4336659,33.3706672 37.581,33.258 L37.581,31.542 L35.618,31.334 L35.618,30.255 Z" id="OGG" fill="#FFFFFF"></path>
        </g>
    </g>
</svg>