<?xml version="1.0" encoding="UTF-8"?>
<svg width="54px" height="54px" viewBox="0 0 54 54" version="1.1" xmlns="http://www.w3.org/2000/svg" xmlns:xlink="http://www.w3.org/1999/xlink">
    <!-- Generator: Sketch 47.1 (45422) - http://www.bohemiancoding.com/sketch -->
    <title>Combined Shape</title>
    <desc>Created with Sketch.</desc>
    <defs></defs>
    <g id="Page-1" stroke="none" stroke-width="1" fill="none" fill-rule="evenodd">
        <g id="2.1_А_Руководство" transform="translate(-200.000000, -3640.000000)" fill-rule="nonzero" fill="#2AAC4A">
            <g id="Group-16" transform="translate(180.000000, 3473.000000)">
                <g id="Group-7" transform="translate(20.000000, 167.000000)">
                    <path d="M16.2,20.7 L18,20.7 L18,18.9 C18,16.38 19.98,14.4 22.5,14.4 L23.67,14.4 L26.19,21.06 C26.28,21.33 26.64,21.6 27,21.6 C27.36,21.6 27.72,21.33 27.99,21.06 L30.51,14.4 L31.5,14.4 C34.02,14.4 36,16.38 36,18.9 L36,20.7 L37.8,20.7 L37.8,18.9 C37.8,15.39 35.01,12.6 31.5,12.6 L22.5,12.6 C18.99,12.6 16.2,15.39 16.2,18.9 L16.2,20.7 L16.2,20.7 Z M27.09,18.18 L25.65,14.4 L28.53,14.4 L27.09,18.18 Z M26.1,23.4 L27.9,23.4 L27.9,25.2 L26.1,25.2 L26.1,23.4 Z M26.1,27 L27.9,27 L27.9,28.8 L26.1,28.8 L26.1,27 Z M26.1,11.7 C23.58,11.7 21.6,9.72 21.6,7.2 L21.6,4.5 C21.6,1.98 23.58,0 26.1,0 L27.9,0 C30.42,0 32.4,1.98 32.4,4.5 L32.4,7.2 C32.4,9.72 30.42,11.7 27.9,11.7 L26.1,11.7 Z M23.4,4.5 L23.4,7.2 C23.4,8.73 24.57,9.9 26.1,9.9 L27.9,9.9 C29.43,9.9 30.6,8.73 30.6,7.2 L30.6,4.5 C30.6,2.97 29.43,1.8 27.9,1.8 L26.1,1.8 C24.57,1.8 23.4,2.97 23.4,4.5 Z M44.1,35.1 C47.61,35.1 50.4,37.89 50.4,41.4 L50.4,54 L48.6,54 L48.6,41.4 C48.6,38.88 46.62,36.9 44.1,36.9 L35.1,36.9 C32.58,36.9 30.6,38.88 30.6,41.4 L30.6,54 L28.8,54 L28.8,41.4 C28.8,37.89 31.59,35.1 35.1,35.1 L44.1,35.1 Z M33.3,44.1 L35.1,44.1 L35.1,54 L33.3,54 L33.3,44.1 Z M44.1,44.1 L45.9,44.1 L45.9,54 L44.1,54 L44.1,44.1 Z M18.9,35.1 C22.41,35.1 25.2,37.89 25.2,41.4 L25.2,54 L23.4,54 L23.4,41.4 C23.4,38.88 21.42,36.9 18.9,36.9 L9.9,36.9 C7.38,36.9 5.4,38.88 5.4,41.4 L5.4,54 L3.6,54 L3.6,41.4 C3.6,37.89 6.39,35.1 9.9,35.1 L18.9,35.1 Z M9,27 C9,24.48 10.98,22.5 13.5,22.5 L15.3,22.5 C17.82,22.5 19.8,24.48 19.8,27 L19.8,29.7 C19.8,29.97 19.8,30.33 19.71,30.6 L20.7,30.6 L20.7,21.6 L22.5,21.6 L22.5,30.6 L31.5,30.6 L31.5,21.6 L33.3,21.6 L33.3,30.6 L34.29,30.6 C34.2,30.33 34.2,29.97 34.2,29.7 L34.2,27 C34.2,24.48 36.18,22.5 38.7,22.5 L40.5,22.5 C43.02,22.5 45,24.48 45,27 L45,29.7 C45,32.22 43.02,34.2 40.5,34.2 L38.7,34.2 C37.17,34.2 35.91,33.48 35.1,32.4 L18.9,32.4 C18.09,33.48 16.83,34.2 15.3,34.2 L13.5,34.2 C10.98,34.2 9,32.22 9,29.7 L9,27 Z M36,27 L36,29.7 C36,31.23 37.17,32.4 38.7,32.4 L40.5,32.4 C42.03,32.4 43.2,31.23 43.2,29.7 L43.2,27 C43.2,25.47 42.03,24.3 40.5,24.3 L38.7,24.3 C37.17,24.3 36,25.47 36,27 Z M10.8,27 L10.8,29.7 C10.8,31.23 11.97,32.4 13.5,32.4 L15.3,32.4 C16.83,32.4 18,31.23 18,29.7 L18,27 C18,25.47 16.83,24.3 15.3,24.3 L13.5,24.3 C11.97,24.3 10.8,25.47 10.8,27 Z M8.1,44.1 L9.9,44.1 L9.9,54 L8.1,54 L8.1,44.1 Z M18.9,44.1 L20.7,44.1 L20.7,54 L18.9,54 L18.9,44.1 Z M1.8,32.4 L1.8,36 L2.7,36 L2.7,37.8 L0.9,37.8 C0.36,37.8 0,37.44 0,36.9 L0,31.5 C0,30.96 0.36,30.6 0.9,30.6 L6.3,30.6 L6.3,32.4 L1.8,32.4 Z M53.1,30.6 C53.64,30.6 54,30.96 54,31.5 L54,36.9 C54,37.44 53.64,37.8 53.1,37.8 L50.4,37.8 L50.4,36 L52.2,36 L52.2,32.4 L46.8,32.4 L46.8,30.6 L53.1,30.6 Z M25.2,36 L28.8,36 L28.8,37.8 L25.2,37.8 L25.2,36 Z M43.2,3.6 L49.5,3.6 L49.5,5.4 L43.2,5.4 L43.2,3.6 Z M43.2,7.2 L52.2,7.2 L52.2,9 L43.2,9 L43.2,7.2 Z M43.2,10.8 L52.2,10.8 L52.2,12.6 L43.2,12.6 L43.2,10.8 Z M4.5,3.6 L10.8,3.6 L10.8,5.4 L4.5,5.4 L4.5,3.6 Z M1.8,7.2 L10.8,7.2 L10.8,9 L1.8,9 L1.8,7.2 Z M1.8,10.8 L10.8,10.8 L10.8,12.6 L1.8,12.6 L1.8,10.8 Z M43.2,14.4 L45,14.4 L45,16.2 L43.2,16.2 L43.2,14.4 Z M46.8,14.4 L48.6,14.4 L48.6,16.2 L46.8,16.2 L46.8,14.4 Z M50.4,14.4 L52.2,14.4 L52.2,16.2 L50.4,16.2 L50.4,14.4 Z M1.8,14.4 L3.6,14.4 L3.6,16.2 L1.8,16.2 L1.8,14.4 Z M5.4,14.4 L7.2,14.4 L7.2,16.2 L5.4,16.2 L5.4,14.4 Z M9,14.4 L10.8,14.4 L10.8,16.2 L9,16.2 L9,14.4 Z M37.8,5.4 L37.8,10.8 L36,10.8 L36,4.5 C36,3.96 36.36,3.6 36.9,3.6 L40.5,3.6 L40.5,5.4 L37.8,5.4 Z M16.2,10.8 L16.2,5.4 L13.5,5.4 L13.5,3.6 L17.1,3.6 C17.64,3.6 18,3.96 18,4.5 L18,10.8 L16.2,10.8 Z" id="Combined-Shape"></path>
                </g>
            </g>
        </g>
    </g>
</svg>