<?xml version="1.0" encoding="utf-8"?>
<!-- Generator: Adobe Illustrator 16.0.0, SVG Export Plug-In . SVG Version: 6.00 Build 0)  -->
<!DOCTYPE svg PUBLIC "-//W3C//DTD SVG 1.1//EN" "http://www.w3.org/Graphics/SVG/1.1/DTD/svg11.dtd">
<svg version="1.1" id="Layer_1" xmlns="http://www.w3.org/2000/svg" xmlns:xlink="http://www.w3.org/1999/xlink" x="0px" y="0px"
	 width="54px" height="54px" viewBox="0 0 54 54" enable-background="new 0 0 54 54" xml:space="preserve">
<g>
	<g>
		<path fill="#2CAC4A" d="M126.6,52.447c0.504,0,0.913-0.408,0.913-0.912v-8.742c0-0.246-0.099-0.48-0.273-0.652L116.17,31.289
			c-0.17-0.168-0.4-0.262-0.639-0.262h-28.65c-0.504,0-0.912,0.408-0.912,0.913v52.174c0,0.505,0.408,0.913,0.912,0.913H126.6
			c0.504,0,0.913-0.408,0.913-0.913v-6.897c0-0.504-0.409-0.912-0.913-0.912s-0.912,0.408-0.912,0.912v5.984H87.795V32.854h27.363
			l10.529,10.322v8.359C125.688,52.039,126.096,52.447,126.6,52.447z"/>
	</g>
	<g>
		<path fill="#2CAC4A" d="M127.238,42.141L116.17,31.289c-0.262-0.258-0.653-0.333-0.992-0.19c-0.34,0.142-0.56,0.474-0.56,0.842
			v10.853c0,0.504,0.409,0.912,0.913,0.912H126.6c0.371,0,0.705-0.225,0.846-0.567S127.504,42.4,127.238,42.141z M116.443,41.879
			v-7.766l7.922,7.766H116.443z"/>
	</g>
	<g>
		<path fill="#2CAC4A" d="M120.516,56.328H92.967c-0.504,0-0.914,0.409-0.914,0.913c0,0.505,0.41,0.913,0.914,0.913h27.549
			c0.504,0,0.912-0.408,0.912-0.913C121.428,56.737,121.02,56.328,120.516,56.328z"/>
	</g>
	<g>
		<path fill="#2CAC4A" d="M120.516,61.928H92.967c-0.504,0-0.914,0.408-0.914,0.912c0,0.505,0.41,0.914,0.914,0.914h27.549
			c0.504,0,0.912-0.409,0.912-0.914C121.428,62.336,121.02,61.928,120.516,61.928z"/>
	</g>
	<g>
		<path fill="#2CAC4A" d="M111.233,67.527H92.967c-0.504,0-0.913,0.409-0.913,0.914c0,0.504,0.409,0.912,0.913,0.912h18.267
			c0.504,0,0.913-0.408,0.913-0.912C112.146,67.937,111.737,67.527,111.233,67.527z"/>
	</g>
	<g>
		<path fill="#2CAC4A" d="M120.516,73.127H92.967c-0.504,0-0.914,0.408-0.914,0.912c0,0.505,0.41,0.914,0.914,0.914h27.549
			c0.504,0,0.912-0.409,0.912-0.914C121.428,73.535,121.02,73.127,120.516,73.127z"/>
	</g>
	<g>
		<path fill="#2CAC4A" d="M120.516,78.726H92.967c-0.504,0-0.914,0.409-0.914,0.913s0.41,0.913,0.914,0.913h27.549
			c0.504,0,0.912-0.409,0.912-0.913S121.02,78.726,120.516,78.726z"/>
	</g>
	<g>
		<path fill="#2CAC4A" d="M95.24,38.613h-3.215c-0.505,0-0.914,0.408-0.914,0.912v11.828c0,0.504,0.409,0.912,0.914,0.912h3.215
			c0.505,0,0.914-0.408,0.914-0.912V39.525C96.154,39.021,95.745,38.613,95.24,38.613z M94.328,50.439h-1.391v-10h1.391V50.439z"/>
	</g>
	<g>
		<path fill="#2CAC4A" d="M100.674,33.975h-3.216c-0.504,0-0.913,0.409-0.913,0.913v16.466c0,0.504,0.409,0.912,0.913,0.912h3.216
			c0.504,0,0.913-0.408,0.913-0.912V34.888C101.587,34.384,101.178,33.975,100.674,33.975z M99.762,50.439h-1.391V35.801h1.391
			V50.439z"/>
	</g>
	<g>
		<path fill="#2CAC4A" d="M106.107,40.932h-3.217c-0.504,0-0.912,0.409-0.912,0.914v9.508c0,0.504,0.408,0.912,0.912,0.912h3.217
			c0.504,0,0.913-0.408,0.913-0.912v-9.508C107.021,41.341,106.611,40.932,106.107,40.932z M105.194,50.439h-1.39v-7.682h1.39
			V50.439z"/>
	</g>
	<g>
		<path fill="#2CAC4A" d="M111.541,36.912h-3.217c-0.504,0-0.912,0.409-0.912,0.913v13.528c0,0.504,0.408,0.912,0.912,0.912h3.217
			c0.504,0,0.912-0.408,0.912-0.912V37.825C112.453,37.321,112.045,36.912,111.541,36.912z M110.628,50.439h-1.39V38.738h1.39
			V50.439z"/>
	</g>
	<g>
		<path fill="#2CAC4A" d="M134.082,77.418c-0.112-0.214-0.305-0.375-0.536-0.447l-21.397-6.689c-0.231-0.072-0.482-0.05-0.697,0.063
			c-0.214,0.113-0.375,0.306-0.447,0.537l-0.334,1.07c-0.15,0.482,0.117,0.994,0.598,1.145l21.398,6.689
			c0.091,0.027,0.183,0.041,0.273,0.041c0.389,0,0.748-0.25,0.87-0.641l0.335-1.071C134.217,77.883,134.194,77.633,134.082,77.418z"
			/>
	</g>
	<g>
		<path fill="#2CAC4A" d="M133.348,53.58c-0.881-1.479-2.361-2.517-4.063-2.85c-2.641-0.516-5.408,0.861-6.58,3.273
			c-0.733,1.508-0.824,3.195-0.258,4.75c0.523,1.434,0.584,2.882,0.176,4.188l-1.154,3.695c-0.15,0.48,0.117,0.993,0.599,1.144
			l4.75,1.485c0.089,0.027,0.181,0.041,0.272,0.041c0.146,0,0.291-0.035,0.424-0.104c0.214-0.113,0.375-0.306,0.447-0.537
			l1.156-3.697c0.412-1.318,1.284-2.486,2.455-3.289c1.131-0.775,1.945-1.877,2.355-3.188
			C134.441,56.85,134.23,55.059,133.348,53.58z M132.186,57.947c-0.287,0.916-0.855,1.686-1.645,2.227
			c-1.508,1.032-2.633,2.541-3.167,4.25l-0.884,2.826l-3.007-0.94l0.882-2.823c0.529-1.692,0.459-3.545-0.202-5.357
			c-0.396-1.087-0.331-2.269,0.185-3.328c0.816-1.68,2.744-2.638,4.586-2.278c1.211,0.237,2.222,0.944,2.846,1.991
			C132.396,55.549,132.544,56.799,132.186,57.947z"/>
	</g>
	<g>
		<path fill="#2CAC4A" d="M127.921,67.697l-5.868-1.834l0,0c-1.354-0.424-2.799,0.333-3.223,1.687
			c-0.072,0.231-0.049,0.481,0.063,0.696s0.306,0.375,0.536,0.447l9.035,2.824c0.09,0.029,0.182,0.043,0.272,0.043
			c0.389,0,0.749-0.25,0.871-0.641C130.031,69.566,129.274,68.12,127.921,67.697z"/>
	</g>
	<g>
		<path fill="#2CAC4A" d="M136.928,72.531c-0.113-0.215-0.306-0.376-0.537-0.448l-23.798-7.438c-0.481-0.15-0.993,0.117-1.144,0.598
			l-1.645,5.264c-0.15,0.48,0.117,0.992,0.599,1.144l23.798,7.438c0.09,0.029,0.182,0.043,0.272,0.043
			c0.389,0,0.749-0.251,0.871-0.641l1.646-5.264C137.063,72.996,137.039,72.746,136.928,72.531z M133.875,77.073l-22.056-6.895
			l1.101-3.521l22.055,6.895L133.875,77.073z"/>
	</g>
	<g>
		<path fill="#2CAC4A" d="M103.519,79.292c-0.015-0.042-0.067-0.09-0.156-0.144c-0.089-0.053-0.171-0.082-0.245-0.086
			c-0.076-0.004-0.154,0.014-0.236,0.053l-0.154,0.073l0.514,0.311l0.176-0.083C103.5,79.375,103.534,79.334,103.519,79.292z"/>
	</g>
	<g>
		<path fill="#2CAC4A" d="M102.641,79.709c-0.016-0.041-0.068-0.09-0.156-0.143c-0.09-0.054-0.171-0.082-0.246-0.086
			c-0.076-0.004-0.154,0.014-0.236,0.053l-0.154,0.072l0.514,0.311l0.176-0.083C102.621,79.793,102.655,79.752,102.641,79.709z"/>
	</g>
	<g>
		<polygon fill="#2CAC4A" points="101.16,80.004 101.525,80.4 101.853,80.246 		"/>
	</g>
</g>
<g>
	<g>
		<path fill="#2CAC4A" d="M36.304,30.303l-4.597-2.043c-0.324-0.145-0.534-0.467-0.534-0.823v-1.262
			c1.544-1.23,2.536-3.125,2.536-5.248V19.15c0.51-0.281,0.846-0.824,0.846-1.433v-0.172c0-3.699-3.01-6.709-6.709-6.709h-1.691
			c-3.699,0-6.708,3.01-6.708,6.709v1.565c0,0.535,0.23,1.019,0.631,1.329c0.068,0.052,0.14,0.099,0.214,0.139v0.349
			c0,2.123,0.992,4.018,2.537,5.248v1.262c0,0.355-0.21,0.678-0.535,0.823l-4.597,2.043c-1.505,0.668-2.478,2.166-2.478,3.813V44.6
			c0,0.437,0.354,0.791,0.791,0.791S16.8,45.036,16.8,44.6V34.115c0-0.092,0.007-0.182,0.016-0.271l2.118,2.117
			c0.33,0.33,0.511,0.769,0.511,1.234V44.6c0,0.437,0.354,0.791,0.791,0.791c0.437,0,0.791-0.354,0.791-0.791v-7.404
			c0-0.889-0.346-1.725-0.975-2.353l-2.525-2.525c0.227-0.235,0.5-0.432,0.811-0.569l4.519-2.009l3.351,3.352V44.6
			c0,0.437,0.354,0.791,0.791,0.791c0.438,0,0.791-0.354,0.791-0.791V33.091l3.352-3.351l4.52,2.008
			c0.311,0.138,0.583,0.334,0.811,0.57l-2.525,2.524c-0.629,0.628-0.975,1.464-0.975,2.353V44.6c0,0.437,0.354,0.791,0.791,0.791
			c0.438,0,0.791-0.354,0.791-0.791v-7.404c0-0.466,0.182-0.904,0.512-1.234l2.117-2.117c0.01,0.09,0.017,0.18,0.017,0.271V44.6
			c0,0.437,0.354,0.791,0.791,0.791s0.791-0.354,0.791-0.791V34.115C38.781,32.469,37.809,30.971,36.304,30.303z M27,31.645
			l-2.94-2.94c0.224-0.376,0.35-0.812,0.35-1.267v-0.322c0.798,0.335,1.673,0.521,2.591,0.521s1.793-0.186,2.591-0.521v0.322
			c0,0.456,0.126,0.891,0.351,1.267L27,31.645z M27,26.054c-2.827,0-5.127-2.3-5.127-5.127v-0.355
			c0.494-0.196,0.975-0.507,1.437-0.933c0.321-0.296,0.341-0.797,0.045-1.118c-0.296-0.321-0.797-0.341-1.118-0.045
			c-0.396,0.365-0.791,0.601-1.174,0.701c-0.009,0.002-0.016,0.003-0.021,0.004c-0.006-0.011-0.014-0.034-0.014-0.071v-1.565
			c0-2.827,2.3-5.127,5.127-5.127h1.691c2.827,0,5.127,2.3,5.127,5.127v0.173c0,0.025-0.016,0.048-0.035,0.052
			c-4.737,0.936-7.113-0.828-7.914-1.629c-0.309-0.309-0.81-0.309-1.119,0c-0.309,0.309-0.309,0.81,0,1.119
			c2.457,2.457,6.041,2.501,8.223,2.239v1.429C32.127,23.754,29.827,26.054,27,26.054z"/>
	</g>
</g>
<g>
	<g>
		<path fill="#2CAC4A" d="M14.264,26v-1.691c0-2.063-1.072-3.88-2.688-4.926c0.1-0.32,0.152-0.655,0.152-0.992
			c0-1.835-1.493-3.328-3.328-3.328c-1.834,0-3.327,1.493-3.327,3.328c0,0.341,0.052,0.673,0.152,0.993
			c-1.616,1.045-2.688,2.862-2.688,4.925V26c0,1.999,1.005,3.765,2.537,4.825v1.739c0,0.343-0.191,0.651-0.498,0.806l-2.736,1.367
			C0.705,35.304,0,36.444,0,37.713V44.6c0,0.438,0.354,0.791,0.791,0.791s0.791-0.354,0.791-0.791v-6.545l1.289,1.289
			c0.33,0.329,0.511,0.768,0.511,1.234V44.6c0,0.438,0.354,0.791,0.791,0.791s0.791-0.354,0.791-0.791v-4.021
			c0-0.889-0.346-1.725-0.975-2.354l-1.793-1.793c-0.009-0.009-0.018-0.017-0.027-0.024c0.113-0.1,0.239-0.187,0.378-0.256
			l2.736-1.368c0.14-0.07,0.271-0.152,0.393-0.244l1.934,1.934V44.6c0,0.438,0.354,0.791,0.791,0.791
			c0.437,0,0.791-0.354,0.791-0.791v-8.127l1.934-1.934c0.122,0.092,0.252,0.174,0.393,0.244l0.754,0.377
			c0.113,0.058,0.234,0.084,0.353,0.084c0.29,0,0.57-0.16,0.708-0.438c0.196-0.391,0.037-0.865-0.354-1.061l-0.754-0.377
			c-0.307-0.154-0.498-0.463-0.498-0.805v-1.74C13.258,29.766,14.264,27.998,14.264,26z M8.4,16.645
			c0.962,0,1.746,0.783,1.746,1.746c0,0.106-0.01,0.21-0.028,0.312c-0.543-0.167-1.12-0.257-1.718-0.257
			c-0.597,0-1.172,0.09-1.715,0.256c-0.019-0.102-0.03-0.205-0.03-0.311C6.655,17.428,7.438,16.645,8.4,16.645z M8.4,20.027
			c2.361,0,4.282,1.921,4.282,4.282v0.287c-3.293,1.008-5.256-1.497-5.34-1.606c-0.137-0.184-0.348-0.298-0.577-0.314
			c-0.229-0.016-0.453,0.067-0.615,0.229c-0.755,0.755-1.495,1.12-2.029,1.295C4.18,21.889,6.076,20.027,8.4,20.027z M8.4,35.026
			l-1.828-1.828c0.053-0.204,0.083-0.417,0.083-0.635v-0.966c0.551,0.173,1.138,0.266,1.745,0.266s1.194-0.093,1.746-0.266v0.966
			c0,0.218,0.029,0.431,0.083,0.635L8.4,35.026z M8.4,30.281c-2.361,0-4.282-1.921-4.282-4.282v-0.164
			c0.631-0.145,1.566-0.481,2.542-1.266c0.345,0.326,0.838,0.725,1.467,1.068c0.743,0.405,1.77,0.78,3.023,0.78
			c0.477,0,0.986-0.056,1.525-0.183C12.552,28.486,10.682,30.281,8.4,30.281z"/>
	</g>
</g>
<g>
	<g>
		<path fill="#2CAC4A" d="M52.16,33.045l-4.426-2.213c-0.307-0.153-0.498-0.462-0.498-0.805v-1.121
			c1.037-0.92,1.691-2.261,1.691-3.752v-0.9c0.018,0,0.036,0,0.055,0c0.437,0,0.791-0.354,0.791-0.791v-1.691
			c0-2.767-2.252-5.019-5.02-5.019h-1.689c-2.768,0-5.02,2.251-5.02,5.019v1.691c0,0.437,0.354,0.791,0.791,0.791
			c0.007,0,0.025,0,0.055-0.001v0.901c0,1.491,0.654,2.832,1.691,3.752v1.121c0,0.344-0.191,0.651-0.498,0.805
			c-0.391,0.195-0.549,0.671-0.354,1.062c0.139,0.276,0.418,0.438,0.708,0.438c0.119,0,0.239-0.026,0.354-0.084
			c0.14-0.069,0.271-0.153,0.392-0.245l1.935,1.935V44.6c0,0.438,0.354,0.791,0.791,0.791S44.7,45.037,44.7,44.6V33.937l1.935-1.935
			c0.121,0.092,0.252,0.176,0.392,0.245l4.284,2.142l-1.3,1.3c-0.628,0.628-0.975,1.464-0.975,2.353V44.6
			c0,0.437,0.354,0.791,0.791,0.791s0.791-0.354,0.791-0.791v-6.559c0-0.467,0.182-0.904,0.511-1.234l1.231-1.23
			c0.037,0.143,0.058,0.293,0.058,0.445V44.6c0,0.437,0.354,0.791,0.791,0.791S54,45.036,54,44.6v-8.578
			C54,34.754,53.295,33.613,52.16,33.045z M39.627,22.51v-0.737l0,0c0-1.895,1.542-3.437,3.438-3.437h1.689
			c1.896,0,3.438,1.542,3.438,3.437v0.878c-3.439-0.186-5.514-1.523-5.534-1.537c-0.134-0.089-0.286-0.133-0.438-0.133
			c-0.205,0-0.406,0.079-0.561,0.231C40.902,21.97,40.16,22.334,39.627,22.51z M43.909,32.49l-1.828-1.828
			c0.054-0.204,0.083-0.416,0.083-0.635v-0.168c0.543,0.201,1.131,0.313,1.745,0.313c0.613,0,1.202-0.111,1.745-0.313v0.168
			c0,0.219,0.029,0.431,0.082,0.635L43.909,32.49z M43.909,28.59c-1.896,0-3.437-1.541-3.437-3.436v-1.275l0,0
			c0.555-0.221,1.199-0.573,1.856-1.133c0.831,0.432,2.569,1.179,5.017,1.426v0.982C47.346,27.049,45.804,28.59,43.909,28.59z"/>
	</g>
</g>
</svg>
