<?xml version="1.0" encoding="UTF-8"?>
<svg width="54px" height="54px" viewBox="0 0 54 54" version="1.1" xmlns="http://www.w3.org/2000/svg" xmlns:xlink="http://www.w3.org/1999/xlink">
    <!-- Generator: Sketch 47.1 (45422) - http://www.bohemiancoding.com/sketch -->
    <title>pdf</title>
    <desc>Created with Sketch.</desc>
    <defs></defs>
    <g id="guidelines" stroke="none" stroke-width="1" fill="none" fill-rule="evenodd">
        <g id="pdf">
            <path d="M33,6 L44,15 L44,46 L44,46 C44,47.1045695 43.1045695,48 42,48 L12,48 L12,48 C10.8954305,48 10,47.1045695 10,46 L10,8 L10,8 C10,6.8954305 10.8954305,6 12,6 L33,6 Z" id="Fill-1" fill="#EAEAEA"></path>
            <path d="M44,15 L35,15 L35,15 C33.8954305,15 33,14.1045695 33,13 L33,6 L44,15 Z" id="Fill-3" fill="#C6C6C6"></path>
            <polygon id="Fill-5" fill="#A20909" points="10 39 44 39 44 23 10 23"></polygon>
            <path d="M16.78,25.991 C17.1440018,25.9216663 17.5448311,25.8675002 17.9825,25.8285 C18.4201689,25.7894998 18.8556645,25.77 19.289,25.77 C19.7396689,25.77 20.1924977,25.806833 20.6475,25.8805 C21.1025023,25.954167 21.5119982,26.1014989 21.876,26.3225 C22.2400018,26.5435011 22.5368322,26.8511647 22.7665,27.2455 C22.9961678,27.6398353 23.111,28.1533302 23.111,28.786 C23.111,29.3580029 23.0113343,29.8411647 22.812,30.2355 C22.6126657,30.6298353 22.348335,30.9526654 22.019,31.204 C21.689665,31.4553346 21.3148354,31.6373328 20.8945,31.75 C20.4741646,31.8626672 20.0386689,31.919 19.588,31.919 L19.38,31.919 C19.2846662,31.919 19.1850005,31.9168334 19.081,31.9125 C18.9769995,31.9081666 18.8751672,31.9016667 18.7755,31.893 C18.6758328,31.8843333 18.6043335,31.8756667 18.561,31.867 L18.561,35 L16.78,35 L16.78,25.991 Z M19.432,27.304 C19.2586658,27.304 19.0940008,27.3104999 18.938,27.3235 C18.7819992,27.3365001 18.6563338,27.3516666 18.561,27.369 L18.561,30.32 C18.5956668,30.3286667 18.6476663,30.3373333 18.717,30.346 C18.7863337,30.3546667 18.8599996,30.3611666 18.938,30.3655 C19.0160004,30.3698334 19.091833,30.372 19.1655,30.372 L19.328,30.372 C19.5620012,30.372 19.7938322,30.3503335 20.0235,30.307 C20.2531678,30.2636664 20.4589991,30.1835006 20.641,30.0665 C20.8230009,29.9494994 20.9681661,29.787001 21.0765,29.579 C21.1848339,29.370999 21.239,29.0980017 21.239,28.76 C21.239,28.4739986 21.1870005,28.2378343 21.083,28.0515 C20.9789995,27.8651657 20.8425008,27.7156672 20.6735,27.603 C20.5044992,27.4903328 20.3116678,27.4123335 20.095,27.369 C19.8783322,27.3256664 19.6573345,27.304 19.432,27.304 Z M24.216,25.9 C24.3980009,25.8739999 24.6038322,25.8523334 24.8335,25.835 C25.0631678,25.8176666 25.2993321,25.8046667 25.542,25.796 C25.7846679,25.7873333 26.0208322,25.7808334 26.2505,25.7765 C26.4801678,25.7721666 26.6859991,25.77 26.868,25.77 C27.674004,25.77 28.3629971,25.8826655 28.935,26.108 C29.5070029,26.3333345 29.9706649,26.6496646 30.326,27.057 C30.6813351,27.4643354 30.9413325,27.9496639 31.106,28.513 C31.2706675,29.0763361 31.353,29.6959966 31.353,30.372 C31.353,30.9873364 31.2750008,31.5809971 31.119,32.153 C30.9629992,32.7250029 30.7030018,33.2319978 30.339,33.674 C29.9749982,34.1160022 29.4961696,34.471332 28.9025,34.74 C28.3088304,35.008668 27.5743377,35.143 26.699,35.143 C26.5603326,35.143 26.3761678,35.1386667 26.1465,35.13 C25.9168322,35.1213333 25.6785012,35.1105001 25.4315,35.0975 C25.1844988,35.0844999 24.9483345,35.0715001 24.723,35.0585 C24.4976655,35.0454999 24.3286672,35.0303334 24.216,35.013 L24.216,25.9 Z M27.011,27.356 C26.8203324,27.356 26.627501,27.3603333 26.4325,27.369 C26.237499,27.3776667 26.0923338,27.3906666 25.997,27.408 L25.997,33.505 C26.0316668,33.5136667 26.0901663,33.5201666 26.1725,33.5245 C26.2548337,33.5288334 26.3436662,33.5331666 26.439,33.5375 C26.5343338,33.5418334 26.6253329,33.5461666 26.712,33.5505 C26.7986671,33.5548334 26.8636665,33.557 26.907,33.557 C27.4096692,33.557 27.8278317,33.4681676 28.1615,33.2905 C28.4951683,33.1128324 28.759499,32.8766681 28.9545,32.582 C29.149501,32.2873319 29.2859996,31.9471686 29.364,31.5615 C29.4420004,31.1758314 29.481,30.7793354 29.481,30.372 C29.481,30.0166649 29.4463337,29.6591685 29.377,29.2995 C29.3076663,28.9398315 29.1798343,28.6170014 28.9935,28.331 C28.8071657,28.0449986 28.5536683,27.8110009 28.233,27.629 C27.9123317,27.4469991 27.5050025,27.356 27.011,27.356 Z M32.627,25.9 L38.022,25.9 L38.022,27.486 L34.408,27.486 L34.408,29.735 L37.736,29.735 L37.736,31.321 L34.408,31.321 L34.408,35 L32.627,35 L32.627,25.9 Z" id="PDF" fill="#FFFFFF"></path>
        </g>
    </g>
</svg>