<svg width="20px" height="20px" viewBox="0 0 20 20" version="1.1" xmlns="http://www.w3.org/2000/svg" xmlns:xlink="http://www.w3.org/1999/xlink">   
    <g id="plus" fill="currentColor" transform="translate(0.000000, 0.000000)">
        <path d="M19,9 L11,9 L11,1 C11,0.571794275 10.4278179,0 9.99961213,0 C9.57140641,0 9,0.571794275 9,1 L9,9 L1,9 C0.571794275,9 0,9.57218214 0,10.0003879 C0,10.4285936 0.571794275,11 1,11 L9,11 L9,19 C9,19.4282057 9.57140641,20 9.99961213,20 C10.4278179,20 11,19.4282057 11,19 L11,11 L19,11 C19.4282057,11 20,10.4285936 20,10.0003879 C20,9.57218214 19.4285936,9 19,9 Z"></path>
    </g>        
</svg>
