<?xml version="1.0" encoding="UTF-8"?>
<svg width="54px" height="54px" viewBox="0 0 54 54" version="1.1" xmlns="http://www.w3.org/2000/svg" xmlns:xlink="http://www.w3.org/1999/xlink">
    <!-- Generator: Sketch 47.1 (45422) - http://www.bohemiancoding.com/sketch -->
    <title>png</title>
    <desc>Created with Sketch.</desc>
    <defs></defs>
    <g id="guidelines" stroke="none" stroke-width="1" fill="none" fill-rule="evenodd">
        <g id="png">
            <path d="M33,6 L44,15 L44,46 L44,46 C44,47.1045695 43.1045695,48 42,48 L12,48 L12,48 C10.8954305,48 10,47.1045695 10,46 L10,8 L10,8 C10,6.8954305 10.8954305,6 12,6 L33,6 Z" id="Fill-1" fill="#EAEAEA"></path>
            <path d="M44,15 L35,15 L35,15 C33.8954305,15 33,14.1045695 33,13 L33,6 L44,15 Z" id="Fill-3" fill="#C6C6C6"></path>
            <polygon id="Fill-5" fill="#864297" points="10 39 44 39 44 23 10 23"></polygon>
            <path d="M15.78,25.991 C16.1440018,25.9216663 16.5448311,25.8675002 16.9825,25.8285 C17.4201689,25.7894998 17.8556645,25.77 18.289,25.77 C18.7396689,25.77 19.1924977,25.806833 19.6475,25.8805 C20.1025023,25.954167 20.5119982,26.1014989 20.876,26.3225 C21.2400018,26.5435011 21.5368322,26.8511647 21.7665,27.2455 C21.9961678,27.6398353 22.111,28.1533302 22.111,28.786 C22.111,29.3580029 22.0113343,29.8411647 21.812,30.2355 C21.6126657,30.6298353 21.348335,30.9526654 21.019,31.204 C20.689665,31.4553346 20.3148354,31.6373328 19.8945,31.75 C19.4741646,31.8626672 19.0386689,31.919 18.588,31.919 L18.38,31.919 C18.2846662,31.919 18.1850005,31.9168334 18.081,31.9125 C17.9769995,31.9081666 17.8751672,31.9016667 17.7755,31.893 C17.6758328,31.8843333 17.6043335,31.8756667 17.561,31.867 L17.561,35 L15.78,35 L15.78,25.991 Z M18.432,27.304 C18.2586658,27.304 18.0940008,27.3104999 17.938,27.3235 C17.7819992,27.3365001 17.6563338,27.3516666 17.561,27.369 L17.561,30.32 C17.5956668,30.3286667 17.6476663,30.3373333 17.717,30.346 C17.7863337,30.3546667 17.8599996,30.3611666 17.938,30.3655 C18.0160004,30.3698334 18.091833,30.372 18.1655,30.372 L18.328,30.372 C18.5620012,30.372 18.7938322,30.3503335 19.0235,30.307 C19.2531678,30.2636664 19.4589991,30.1835006 19.641,30.0665 C19.8230009,29.9494994 19.9681661,29.787001 20.0765,29.579 C20.1848339,29.370999 20.239,29.0980017 20.239,28.76 C20.239,28.4739986 20.1870005,28.2378343 20.083,28.0515 C19.9789995,27.8651657 19.8425008,27.7156672 19.6735,27.603 C19.5044992,27.4903328 19.3116678,27.4123335 19.095,27.369 C18.8783322,27.3256664 18.6573345,27.304 18.432,27.304 Z M25.478,30.255 L24.763,28.825 L24.698,28.825 L24.906,30.255 L24.906,35 L23.216,35 L23.216,25.835 L24.516,25.835 L27.961,30.684 L28.65,32.075 L28.715,32.075 L28.507,30.684 L28.507,25.9 L30.197,25.9 L30.197,35.065 L28.897,35.065 L25.478,30.255 Z M34.968,30.255 L38.361,30.255 L38.361,34.311 C37.9969982,34.6143348 37.5615025,34.8353326 37.0545,34.974 C36.5474975,35.1126674 36.0470025,35.182 35.553,35.182 C34.9723304,35.182 34.4328358,35.0910009 33.9345,34.909 C33.4361642,34.7269991 33.0050018,34.4431686 32.641,34.0575 C32.2769982,33.6718314 31.991001,33.180003 31.783,32.582 C31.574999,31.983997 31.471,31.2733374 31.471,30.45 C31.471,29.5919957 31.5944988,28.8618363 31.8415,28.2595 C32.0885012,27.6571637 32.413498,27.1675019 32.8165,26.7905 C33.219502,26.4134981 33.6723308,26.1405008 34.175,25.9715 C34.6776692,25.8024992 35.1889974,25.718 35.709,25.718 C36.2290026,25.718 36.6861647,25.7569996 37.0805,25.835 C37.4748353,25.9130004 37.7889988,25.9953329 38.023,26.082 L37.659,27.577 C37.4423322,27.4903329 37.199668,27.4231669 36.931,27.3755 C36.662332,27.3278331 36.3200021,27.304 35.904,27.304 C35.5313315,27.304 35.1890016,27.3603328 34.877,27.473 C34.5649984,27.5856672 34.2941678,27.7698321 34.0645,28.0255 C33.8348322,28.2811679 33.6571673,28.6083313 33.5315,29.007 C33.4058327,29.4056687 33.343,29.8909971 33.343,30.463 C33.343,31.0090027 33.4036661,31.4791647 33.525,31.8735 C33.6463339,32.2678353 33.8153322,32.5928321 34.032,32.8485 C34.2486677,33.1041679 34.5021652,33.2926661 34.7925,33.414 C35.0828348,33.5353339 35.392665,33.596 35.722,33.596 C35.9473345,33.596 36.1683323,33.5678336 36.385,33.5115 C36.6016677,33.4551664 36.7836659,33.3706672 36.931,33.258 L36.931,31.542 L34.968,31.334 L34.968,30.255 Z" id="PNG" fill="#FFFFFF"></path>
        </g>
    </g>
</svg>