<?xml version="1.0" encoding="UTF-8"?>
<svg width="54px" height="54px" viewBox="0 0 54 54" version="1.1" xmlns="http://www.w3.org/2000/svg" xmlns:xlink="http://www.w3.org/1999/xlink">
    <!-- Generator: Sketch 47.1 (45422) - http://www.bohemiancoding.com/sketch -->
    <title>ppt</title>
    <desc>Created with Sketch.</desc>
    <defs></defs>
    <g id="guidelines" stroke="none" stroke-width="1" fill="none" fill-rule="evenodd">
        <g id="ppt">
            <path d="M33,6 L44,15 L44,46 L44,46 C44,47.1045695 43.1045695,48 42,48 L12,48 L12,48 C10.8954305,48 10,47.1045695 10,46 L10,8 L10,8 C10,6.8954305 10.8954305,6 12,6 L33,6 Z" id="Fill-1" fill="#EAEAEA"></path>
            <path d="M44,15 L35,15 L35,15 C33.8954305,15 33,14.1045695 33,13 L33,6 L44,15 Z" id="Fill-3" fill="#C6C6C6"></path>
            <polygon id="Fill-5" fill="#D04800" points="10 39 44 39 44 23 10 23"></polygon>
            <path d="M16.78,25.991 C17.1440018,25.9216663 17.5448311,25.8675002 17.9825,25.8285 C18.4201689,25.7894998 18.8556645,25.77 19.289,25.77 C19.7396689,25.77 20.1924977,25.806833 20.6475,25.8805 C21.1025023,25.954167 21.5119982,26.1014989 21.876,26.3225 C22.2400018,26.5435011 22.5368322,26.8511647 22.7665,27.2455 C22.9961678,27.6398353 23.111,28.1533302 23.111,28.786 C23.111,29.3580029 23.0113343,29.8411647 22.812,30.2355 C22.6126657,30.6298353 22.348335,30.9526654 22.019,31.204 C21.689665,31.4553346 21.3148354,31.6373328 20.8945,31.75 C20.4741646,31.8626672 20.0386689,31.919 19.588,31.919 L19.38,31.919 C19.2846662,31.919 19.1850005,31.9168334 19.081,31.9125 C18.9769995,31.9081666 18.8751672,31.9016667 18.7755,31.893 C18.6758328,31.8843333 18.6043335,31.8756667 18.561,31.867 L18.561,35 L16.78,35 L16.78,25.991 Z M19.432,27.304 C19.2586658,27.304 19.0940008,27.3104999 18.938,27.3235 C18.7819992,27.3365001 18.6563338,27.3516666 18.561,27.369 L18.561,30.32 C18.5956668,30.3286667 18.6476663,30.3373333 18.717,30.346 C18.7863337,30.3546667 18.8599996,30.3611666 18.938,30.3655 C19.0160004,30.3698334 19.091833,30.372 19.1655,30.372 L19.328,30.372 C19.5620012,30.372 19.7938322,30.3503335 20.0235,30.307 C20.2531678,30.2636664 20.4589991,30.1835006 20.641,30.0665 C20.8230009,29.9494994 20.9681661,29.787001 21.0765,29.579 C21.1848339,29.370999 21.239,29.0980017 21.239,28.76 C21.239,28.4739986 21.1870005,28.2378343 21.083,28.0515 C20.9789995,27.8651657 20.8425008,27.7156672 20.6735,27.603 C20.5044992,27.4903328 20.3116678,27.4123335 20.095,27.369 C19.8783322,27.3256664 19.6573345,27.304 19.432,27.304 Z M24.216,25.991 C24.5800018,25.9216663 24.9808311,25.8675002 25.4185,25.8285 C25.8561689,25.7894998 26.2916645,25.77 26.725,25.77 C27.1756689,25.77 27.6284977,25.806833 28.0835,25.8805 C28.5385023,25.954167 28.9479982,26.1014989 29.312,26.3225 C29.6760018,26.5435011 29.9728322,26.8511647 30.2025,27.2455 C30.4321678,27.6398353 30.547,28.1533302 30.547,28.786 C30.547,29.3580029 30.4473343,29.8411647 30.248,30.2355 C30.0486657,30.6298353 29.784335,30.9526654 29.455,31.204 C29.125665,31.4553346 28.7508354,31.6373328 28.3305,31.75 C27.9101646,31.8626672 27.4746689,31.919 27.024,31.919 L26.816,31.919 C26.7206662,31.919 26.6210005,31.9168334 26.517,31.9125 C26.4129995,31.9081666 26.3111672,31.9016667 26.2115,31.893 C26.1118328,31.8843333 26.0403335,31.8756667 25.997,31.867 L25.997,35 L24.216,35 L24.216,25.991 Z M26.868,27.304 C26.6946658,27.304 26.5300008,27.3104999 26.374,27.3235 C26.2179992,27.3365001 26.0923338,27.3516666 25.997,27.369 L25.997,30.32 C26.0316668,30.3286667 26.0836663,30.3373333 26.153,30.346 C26.2223337,30.3546667 26.2959996,30.3611666 26.374,30.3655 C26.4520004,30.3698334 26.527833,30.372 26.6015,30.372 L26.764,30.372 C26.9980012,30.372 27.2298322,30.3503335 27.4595,30.307 C27.6891678,30.2636664 27.8949991,30.1835006 28.077,30.0665 C28.2590009,29.9494994 28.4041661,29.787001 28.5125,29.579 C28.6208339,29.370999 28.675,29.0980017 28.675,28.76 C28.675,28.4739986 28.6230005,28.2378343 28.519,28.0515 C28.4149995,27.8651657 28.2785008,27.7156672 28.1095,27.603 C27.9404992,27.4903328 27.7476678,27.4123335 27.531,27.369 C27.3143322,27.3256664 27.0933345,27.304 26.868,27.304 Z M38.009,27.486 L35.357,27.486 L35.357,35 L33.576,35 L33.576,27.486 L30.911,27.486 L30.911,25.9 L38.009,25.9 L38.009,27.486 Z" id="PPT" fill="#FFFFFF"></path>
        </g>
    </g>
</svg>