<?xml version="1.0" encoding="UTF-8"?>
<svg width="54px" height="54px" viewBox="0 0 54 54" version="1.1" xmlns="http://www.w3.org/2000/svg" xmlns:xlink="http://www.w3.org/1999/xlink">
    <!-- Generator: Sketch 47.1 (45422) - http://www.bohemiancoding.com/sketch -->
    <title>pptx</title>
    <desc>Created with Sketch.</desc>
    <defs></defs>
    <g id="guidelines" stroke="none" stroke-width="1" fill="none" fill-rule="evenodd">
        <g id="pptx">
            <path d="M33,6 L44,15 L44,46 L44,46 C44,47.1045695 43.1045695,48 42,48 L12,48 L12,48 C10.8954305,48 10,47.1045695 10,46 L10,8 L10,8 C10,6.8954305 10.8954305,6 12,6 L33,6 Z" id="Fill-1" fill="#EAEAEA"></path>
            <path d="M44,15 L35,15 L35,15 C33.8954305,15 33,14.1045695 33,13 L33,6 L44,15 Z" id="Fill-3" fill="#C6C6C6"></path>
            <polygon id="Fill-5" fill="#D04800" points="10 39 44 39 44 23 10 23"></polygon>
            <path d="M14.72,26.684 C15.0560017,26.6199997 15.425998,26.5700002 15.83,26.534 C16.234002,26.4979998 16.635998,26.48 17.036,26.48 C17.4520021,26.48 17.8699979,26.5139997 18.29,26.582 C18.7100021,26.6500003 19.0879983,26.785999 19.424,26.99 C19.7600017,27.194001 20.0339989,27.4779982 20.246,27.842 C20.4580011,28.2060018 20.564,28.6799971 20.564,29.264 C20.564,29.7920026 20.4720009,30.2379982 20.288,30.602 C20.1039991,30.9660018 19.8600015,31.2639988 19.556,31.496 C19.2519985,31.7280012 18.9060019,31.8959995 18.518,32 C18.1299981,32.1040005 17.7280021,32.156 17.312,32.156 L17.12,32.156 C17.0319996,32.156 16.9400005,32.154 16.844,32.15 C16.7479995,32.146 16.6540005,32.14 16.562,32.132 C16.4699995,32.124 16.4040002,32.116 16.364,32.108 L16.364,35 L14.72,35 L14.72,26.684 Z M17.168,27.896 C17.0079992,27.896 16.8560007,27.9019999 16.712,27.914 C16.5679993,27.9260001 16.4520004,27.9399999 16.364,27.956 L16.364,30.68 C16.3960002,30.688 16.4439997,30.696 16.508,30.704 C16.5720003,30.712 16.6399996,30.718 16.712,30.722 C16.7840004,30.726 16.8539997,30.728 16.922,30.728 L17.072,30.728 C17.2880011,30.728 17.5019989,30.7080002 17.714,30.668 C17.9260011,30.6279998 18.1159992,30.5540005 18.284,30.446 C18.4520008,30.3379995 18.5859995,30.188001 18.686,29.996 C18.7860005,29.803999 18.836,29.5520016 18.836,29.24 C18.836,28.9759987 18.7880005,28.7580009 18.692,28.586 C18.5959995,28.4139991 18.4700008,28.2760005 18.314,28.172 C18.1579992,28.0679995 17.980001,27.9960002 17.78,27.956 C17.579999,27.9159998 17.376001,27.896 17.168,27.896 Z M21.584,26.684 C21.9200017,26.6199997 22.289998,26.5700002 22.694,26.534 C23.098002,26.4979998 23.499998,26.48 23.9,26.48 C24.3160021,26.48 24.7339979,26.5139997 25.154,26.582 C25.5740021,26.6500003 25.9519983,26.785999 26.288,26.99 C26.6240017,27.194001 26.8979989,27.4779982 27.11,27.842 C27.3220011,28.2060018 27.428,28.6799971 27.428,29.264 C27.428,29.7920026 27.3360009,30.2379982 27.152,30.602 C26.9679991,30.9660018 26.7240015,31.2639988 26.42,31.496 C26.1159985,31.7280012 25.7700019,31.8959995 25.382,32 C24.9939981,32.1040005 24.5920021,32.156 24.176,32.156 L23.984,32.156 C23.8959996,32.156 23.8040005,32.154 23.708,32.15 C23.6119995,32.146 23.5180005,32.14 23.426,32.132 C23.3339995,32.124 23.2680002,32.116 23.228,32.108 L23.228,35 L21.584,35 L21.584,26.684 Z M24.032,27.896 C23.8719992,27.896 23.7200007,27.9019999 23.576,27.914 C23.4319993,27.9260001 23.3160004,27.9399999 23.228,27.956 L23.228,30.68 C23.2600002,30.688 23.3079997,30.696 23.372,30.704 C23.4360003,30.712 23.5039996,30.718 23.576,30.722 C23.6480004,30.726 23.7179997,30.728 23.786,30.728 L23.936,30.728 C24.1520011,30.728 24.3659989,30.7080002 24.578,30.668 C24.7900011,30.6279998 24.9799992,30.5540005 25.148,30.446 C25.3160008,30.3379995 25.4499995,30.188001 25.55,29.996 C25.6500005,29.803999 25.7,29.5520016 25.7,29.24 C25.7,28.9759987 25.6520005,28.7580009 25.556,28.586 C25.4599995,28.4139991 25.3340008,28.2760005 25.178,28.172 C25.0219992,28.0679995 24.844001,27.9960002 24.644,27.956 C24.443999,27.9159998 24.240001,27.896 24.032,27.896 Z M34.316,28.064 L31.868,28.064 L31.868,35 L30.224,35 L30.224,28.064 L27.764,28.064 L27.764,26.6 L34.316,26.6 L34.316,28.064 Z M36.584,30.728 L34.244,26.6 L36.224,26.6 L37.52,29.024 L37.808,29.876 L38.084,29.024 L39.44,26.6 L41.228,26.6 L38.804,30.644 L41.348,35 L39.392,35 L37.916,32.408 L37.592,31.52 L37.28,32.408 L35.792,35 L34.004,35 L36.584,30.728 Z" id="PPTX" fill="#FFFFFF"></path>
        </g>
    </g>
</svg>