<?xml version="1.0" encoding="UTF-8"?>
<svg width="54px" height="54px" viewBox="0 0 54 54" version="1.1" xmlns="http://www.w3.org/2000/svg" xmlns:xlink="http://www.w3.org/1999/xlink">
    <!-- Generator: Sketch 47.1 (45422) - http://www.bohemiancoding.com/sketch -->
    <title>rar</title>
    <desc>Created with Sketch.</desc>
    <defs></defs>
    <g id="guidelines" stroke="none" stroke-width="1" fill="none" fill-rule="evenodd">
        <g id="rar">
            <path d="M33,6 L44,15 L44,46 L44,46 C44,47.1045695 43.1045695,48 42,48 L12,48 L12,48 C10.8954305,48 10,47.1045695 10,46 L10,8 L10,8 C10,6.8954305 10.8954305,6 12,6 L33,6 Z" id="Fill-1" fill="#EAEAEA"></path>
            <path d="M44,15 L35,15 L35,15 C33.8954305,15 33,14.1045695 33,13 L33,6 L44,15 Z" id="Fill-3" fill="#C6C6C6"></path>
            <polygon id="Fill-5" fill="#596D7E" points="10 39 44 39 44 23 10 23"></polygon>
            <path d="M16.78,25.991 C16.9793343,25.9563332 17.1938322,25.9238335 17.4235,25.8935 C17.6531678,25.8631665 17.8828322,25.8393334 18.1125,25.822 C18.3421678,25.8046666 18.5653323,25.7916667 18.782,25.783 C18.9986677,25.7743333 19.1979991,25.77 19.38,25.77 C19.8046688,25.77 20.2228313,25.8089996 20.6345,25.887 C21.0461687,25.9650004 21.4144984,26.0993324 21.7395,26.29 C22.0645016,26.4806676 22.324499,26.7428317 22.5195,27.0765 C22.714501,27.4101683 22.812,27.8283308 22.812,28.331 C22.812,29.0763371 22.6386684,29.6829977 22.292,30.151 C21.9453316,30.6190023 21.4816696,30.9439991 20.901,31.126 L21.538,31.529 L23.618,35 L21.564,35 L19.497,31.438 L18.561,31.269 L18.561,35 L16.78,35 L16.78,25.991 Z M19.51,27.356 C19.3279991,27.356 19.1481676,27.3603333 18.9705,27.369 C18.7928324,27.3776667 18.6563338,27.3949999 18.561,27.421 L18.561,30.06 L19.315,30.06 C19.8090025,30.06 20.2033319,29.9473345 20.498,29.722 C20.7926681,29.4966655 20.94,29.1240026 20.94,28.604 C20.94,28.2139981 20.8186679,27.9085011 20.576,27.6875 C20.3333321,27.4664989 19.9780023,27.356 19.51,27.356 Z M28.61,32.985 L25.815,32.985 L25.126,35 L23.345,35 L26.621,25.835 L27.934,25.835 L31.21,35 L29.338,35 L28.61,32.985 Z M26.27,31.555 L28.22,31.555 L27.544,29.527 L27.271,28.097 L27.206,28.097 L26.933,29.54 L26.27,31.555 Z M31.99,25.991 C32.1893343,25.9563332 32.4038322,25.9238335 32.6335,25.8935 C32.8631678,25.8631665 33.0928322,25.8393334 33.3225,25.822 C33.5521678,25.8046666 33.7753323,25.7916667 33.992,25.783 C34.2086678,25.7743333 34.4079991,25.77 34.59,25.77 C35.0146688,25.77 35.4328313,25.8089996 35.8445,25.887 C36.2561687,25.9650004 36.6244984,26.0993324 36.9495,26.29 C37.2745016,26.4806676 37.534499,26.7428317 37.7295,27.0765 C37.924501,27.4101683 38.022,27.8283308 38.022,28.331 C38.022,29.0763371 37.8486684,29.6829977 37.502,30.151 C37.1553316,30.6190023 36.6916696,30.9439991 36.111,31.126 L36.748,31.529 L38.828,35 L36.774,35 L34.707,31.438 L33.771,31.269 L33.771,35 L31.99,35 L31.99,25.991 Z M34.72,27.356 C34.5379991,27.356 34.3581676,27.3603333 34.1805,27.369 C34.0028324,27.3776667 33.8663338,27.3949999 33.771,27.421 L33.771,30.06 L34.525,30.06 C35.0190025,30.06 35.4133319,29.9473345 35.708,29.722 C36.0026681,29.4966655 36.15,29.1240026 36.15,28.604 C36.15,28.2139981 36.0286679,27.9085011 35.786,27.6875 C35.5433321,27.4664989 35.1880023,27.356 34.72,27.356 Z" id="RAR" fill="#FFFFFF"></path>
        </g>
    </g>
</svg>