<?xml version="1.0" encoding="UTF-8"?>
<svg width="32px" height="32px" viewBox="0 0 32 32" version="1.1" xmlns="http://www.w3.org/2000/svg" xmlns:xlink="http://www.w3.org/1999/xlink">
    <!-- Generator: Sketch 47.1 (45422) - http://www.bohemiancoding.com/sketch -->
    <title>Combined Shape</title>
    <desc>Created with Sketch.</desc>
    <defs></defs>
    <g id="Page-1" stroke="none" stroke-width="1" fill="none" fill-rule="evenodd">
        <g id="2.1_А_Руководство" transform="translate(-190.000000, -1278.000000)" fill-rule="nonzero" fill="#99B0C6">
            <g id="Group-34" transform="translate(180.000000, 939.000000)">
                <g id="Group-19" transform="translate(10.000000, 339.000000)">
                    <path d="M13.3333333,7.72413793 L18.6666667,7.72413793 C20.7466667,7.72413793 22.4,9.43448276 22.4,11.5862069 L22.4,19.3103448 L21.3333333,19.3103448 L21.3333333,11.5862069 C21.3333333,10.0413793 20.16,8.82758621 18.6666667,8.82758621 L16.5333333,8.82758621 L16.5333333,11.5862069 L15.4666667,11.5862069 L15.4666667,8.82758621 L13.3333333,8.82758621 C11.84,8.82758621 10.6666667,10.0413793 10.6666667,11.5862069 L10.6666667,19.3103448 L9.6,19.3103448 L9.6,11.5862069 C9.6,9.43448276 11.2533333,7.72413793 13.3333333,7.72413793 Z M15.4666667,7.17241379 C13.9733333,7.17241379 12.8,5.95862069 12.8,4.4137931 L12.8,2.75862069 C12.8,1.2137931 13.9733333,0 15.4666667,0 L16.5333333,0 C18.0266667,0 19.2,1.2137931 19.2,2.75862069 L19.2,4.4137931 C19.2,5.95862069 18.0266667,7.17241379 16.5333333,7.17241379 L15.4666667,7.17241379 Z M13.8666667,2.75862069 L13.8666667,4.4137931 C13.8666667,5.35172414 14.56,6.06896552 15.4666667,6.06896552 L16.5333333,6.06896552 C17.44,6.06896552 18.1333333,5.35172414 18.1333333,4.4137931 L18.1333333,2.75862069 C18.1333333,1.82068966 17.44,1.10344828 16.5333333,1.10344828 L15.4666667,1.10344828 C14.56,1.10344828 13.8666667,1.82068966 13.8666667,2.75862069 Z M15.4666667,17.1034483 L16.5333333,17.1034483 L16.5333333,18.2068966 L15.4666667,18.2068966 L15.4666667,17.1034483 Z M15.4666667,14.8965517 L16.5333333,14.8965517 L16.5333333,16 L15.4666667,16 L15.4666667,14.8965517 Z M15.4666667,12.6896552 L16.5333333,12.6896552 L16.5333333,13.7931034 L15.4666667,13.7931034 L15.4666667,12.6896552 Z M25.6,29.2413793 L25.6,30.8965517 L32,30.8965517 L32,32 L25.0666667,32 L6.93333333,32 L0,32 L0,30.8965517 L6.4,30.8965517 L6.4,29.2413793 C6.4,28.3034483 7.09333333,27.5862069 8,27.5862069 L9.06666667,27.5862069 L9.06666667,24.8275862 C9.06666667,24.4965517 9.28,24.2758621 9.6,24.2758621 L12.2666667,24.2758621 L12.2666667,12.137931 L13.3333333,12.137931 L13.3333333,24.2758621 L15.4666667,24.2758621 L15.4666667,19.862069 L16.5333333,19.862069 L16.5333333,24.2758621 L18.6666667,24.2758621 L18.6666667,12.137931 L19.7333333,12.137931 L19.7333333,24.2758621 L22.4,24.2758621 C22.72,24.2758621 22.9333333,24.4965517 22.9333333,24.8275862 L22.9333333,27.5862069 L24,27.5862069 C24.9066667,27.5862069 25.6,28.3034483 25.6,29.2413793 Z M7.46666667,30.8965517 L24.5333333,30.8965517 L24.5333333,29.2413793 C24.5333333,28.9103448 24.32,28.6896552 24,28.6896552 L22.4,28.6896552 C22.08,28.6896552 21.8666667,28.4689655 21.8666667,28.137931 L21.8666667,25.3793103 L10.1333333,25.3793103 L10.1333333,27.5862069 L17.6,27.5862069 L17.6,28.6896552 L9.6,28.6896552 L8,28.6896552 C7.68,28.6896552 7.46666667,28.9103448 7.46666667,29.2413793 L7.46666667,30.8965517 Z M1.76,5.35172414 L0.16,3.69655172 C-0.0533333333,3.47586207 -0.0533333333,3.14482759 0.16,2.92413793 L1.76,1.26896552 L2.50666667,2.04137931 L1.81333333,2.75862069 L11.2,2.75862069 L11.2,3.86206897 L1.81333333,3.86206897 L2.50666667,4.57931034 L1.76,5.35172414 Z M1.76,16.937931 L0.16,15.2827586 C-0.0533333333,15.062069 -0.0533333333,14.7310345 0.16,14.5103448 L1.76,12.8551724 L2.50666667,13.6275862 L1.81333333,14.3448276 L8,14.3448276 L8,15.4482759 L1.81333333,15.4482759 L2.50666667,16.1655172 L1.76,16.937931 Z M29.4933333,10.0965517 L30.1866667,9.37931034 L24,9.37931034 L24,8.27586207 L30.1866667,8.27586207 L29.4933333,7.55862069 L30.24,6.7862069 L31.84,8.44137931 C32.0533333,8.66206897 32.0533333,8.99310345 31.84,9.2137931 L30.24,10.8689655 L29.4933333,10.0965517 Z M30.24,20.0275862 L31.84,21.6827586 C32.0533333,21.9034483 32.0533333,22.2344828 31.84,22.4551724 L30.24,24.1103448 L29.4933333,23.337931 L30.1866667,22.6206897 L21.8666667,22.6206897 L21.8666667,21.5172414 L30.1866667,21.5172414 L29.4933333,20.8 L30.24,20.0275862 Z M24,14.3448276 L25.0666667,14.3448276 L25.0666667,15.4482759 L24,15.4482759 L24,14.3448276 Z M26.1333333,14.3448276 L27.2,14.3448276 L27.2,15.4482759 L26.1333333,15.4482759 L26.1333333,14.3448276 Z M28.2666667,14.3448276 L29.3333333,14.3448276 L29.3333333,15.4482759 L28.2666667,15.4482759 L28.2666667,14.3448276 Z M30.4,14.3448276 L31.4666667,14.3448276 L31.4666667,15.4482759 L30.4,15.4482759 L30.4,14.3448276 Z M0.533333333,19.862069 L1.6,19.862069 L1.6,20.9655172 L0.533333333,20.9655172 L0.533333333,19.862069 Z M2.66666667,19.862069 L3.73333333,19.862069 L3.73333333,20.9655172 L2.66666667,20.9655172 L2.66666667,19.862069 Z M4.8,19.862069 L5.86666667,19.862069 L5.86666667,20.9655172 L4.8,20.9655172 L4.8,19.862069 Z M6.93333333,19.862069 L8,19.862069 L8,20.9655172 L6.93333333,20.9655172 L6.93333333,19.862069 Z M0.533333333,7.72413793 L1.6,7.72413793 L1.6,8.82758621 L0.533333333,8.82758621 L0.533333333,7.72413793 Z M2.66666667,7.72413793 L3.73333333,7.72413793 L3.73333333,8.82758621 L2.66666667,8.82758621 L2.66666667,7.72413793 Z M4.8,7.72413793 L5.86666667,7.72413793 L5.86666667,8.82758621 L4.8,8.82758621 L4.8,7.72413793 Z M6.93333333,7.72413793 L8,7.72413793 L8,8.82758621 L6.93333333,8.82758621 L6.93333333,7.72413793 Z" id="Combined-Shape"></path>
                </g>
            </g>
        </g>
    </g>
</svg>