<?xml version="1.0" encoding="UTF-8"?>
<svg width="32px" height="32px" viewBox="0 0 32 32" version="1.1" xmlns="http://www.w3.org/2000/svg" xmlns:xlink="http://www.w3.org/1999/xlink">
    <!-- Generator: Sketch 47.1 (45422) - http://www.bohemiancoding.com/sketch -->
    <title>Shape</title>
    <desc>Created with Sketch.</desc>
    <defs></defs>
    <g id="Page-1" stroke="none" stroke-width="1" fill="none" fill-rule="evenodd">
        <g id="2.1_А_Руководство" transform="translate(-190.000000, -1871.000000)" fill-rule="nonzero" fill="#99B0C6">
            <g id="Group-35" transform="translate(180.000000, 1532.000000)">
                <g id="Group-14" transform="translate(10.000000, 339.000000)">
                    <path d="M27.2078679,27.2531613 L27.6377373,26.4010323 L24.517667,8.88774194 C24.8282151,8.40722581 25.0105839,7.83741935 25.0105839,7.22580645 C25.0105839,6.08258065 24.3801088,5.0843871 23.4474224,4.54812903 L23.4474224,0 L20.3210994,0 L20.3210994,4.54812903 C19.3884131,5.0843871 18.7579379,6.08258065 18.7579379,7.22580645 C18.7579379,7.83741935 18.9403068,8.40722581 19.2508549,8.88774194 L17.6632038,17.7987097 L0,0.302451613 L0,32 L32,32 L27.2078679,27.2531613 Z M26.5518611,26.2436129 L26.0526916,27.2330323 L25.5092324,26.1563871 L22.5006676,10.2611613 C22.9086528,10.180129 23.2879799,10.020129 23.6219754,9.79819355 L26.5518611,26.2436129 Z M24.0679975,24.1424516 L20.3903996,20.4996129 L21.8842609,12.6069677 L24.0679975,24.1424516 Z M21.3632071,1.03225806 L22.4053147,1.03225806 L22.4053147,4.17548387 C22.2354512,4.14709677 22.0619403,4.12903226 21.8842609,4.12903226 C21.7065816,4.12903226 21.5330706,4.14709677 21.3632071,4.17548387 L21.3632071,1.03225806 Z M21.8842609,5.16129032 C23.0337057,5.16129032 23.9684762,6.08722581 23.9684762,7.22580645 C23.9684762,8.3643871 23.0337057,9.29032258 21.8842609,9.29032258 C20.7348162,9.29032258 19.8000456,8.3643871 19.8000456,7.22580645 C19.8000456,6.08722581 20.7348162,5.16129032 21.8842609,5.16129032 Z M20.1465464,9.79870968 C20.4805419,10.0206452 20.8598691,10.1806452 21.2678542,10.2616774 L18.2592894,26.1569032 L17.7158303,27.2330323 L17.2166607,26.244129 L20.1465464,9.79870968 Z M25.0105839,29.4193548 L25.0105839,30.9677419 L22.9263686,30.9677419 L22.9263686,28.3870968 L21.8842609,28.3870968 L21.8842609,30.9677419 L19.8000456,30.9677419 L19.8000456,29.4193548 L18.7579379,29.4193548 L18.7579379,30.9677419 L16.6737226,30.9677419 L16.6737226,28.3870968 L15.6316149,28.3870968 L15.6316149,30.9677419 L13.5473996,30.9677419 L13.5473996,29.4193548 L12.505292,29.4193548 L12.505292,30.9677419 L10.4210766,30.9677419 L10.4210766,28.3870968 L9.37896896,28.3870968 L9.37896896,30.9677419 L7.29475364,30.9677419 L7.29475364,29.4193548 L6.25264598,29.4193548 L6.25264598,30.9677419 L4.16843065,30.9677419 L4.16843065,28.3870968 L3.12632299,28.3870968 L3.12632299,30.9677419 L1.04210766,30.9677419 L1.04210766,28.3870968 L2.60526916,28.3870968 L2.60526916,27.3548387 L1.04210766,27.3548387 L1.04210766,25.2903226 L3.64737682,25.2903226 L3.64737682,24.2580645 L1.04210766,24.2580645 L1.04210766,22.1935484 L2.60526916,22.1935484 L2.60526916,21.1612903 L1.04210766,21.1612903 L1.04210766,19.0967742 L3.64737682,19.0967742 L3.64737682,18.0645161 L1.04210766,18.0645161 L1.04210766,16 L2.60526916,16 L2.60526916,14.9677419 L1.04210766,14.9677419 L1.04210766,12.9032258 L3.64737682,12.9032258 L3.64737682,11.8709677 L1.04210766,11.8709677 L1.04210766,9.80645161 L2.60526916,9.80645161 L2.60526916,8.77419355 L1.04210766,8.77419355 L1.04210766,6.70967742 L3.64737682,6.70967742 L3.64737682,5.67741935 L1.04210766,5.67741935 L1.04210766,2.79432258 L17.442277,19.0394839 L16.5580487,24.0030968 L5.21053831,12.7628387 L5.21053831,26.8387097 L13.5473996,26.8387097 L13.5473996,25.8064516 L6.25264598,25.8064516 L6.25264598,15.2547097 L16.3371218,25.243871 L16.2365584,25.8064516 L14.5895073,25.8064516 L14.5895073,26.8387097 L16.3517113,26.8387097 L17.7158303,29.5411613 L19.2565864,26.4887742 L20.1574885,21.7290323 L24.4077246,25.9390968 L24.498388,26.4175484 L25.9922493,29.4193548 L25.0105839,29.4193548 Z M26.0526916,29.5411613 L26.7165141,28.2260645 L29.4843521,30.9677419 L26.0526916,30.9677419 L26.0526916,29.5411613 Z" id="Shape"></path>
                </g>
            </g>
        </g>
    </g>
</svg>