<?xml version="1.0" encoding="UTF-8"?>
<svg width="28px" height="30px" viewBox="0 0 28 30" version="1.1" xmlns="http://www.w3.org/2000/svg" xmlns:xlink="http://www.w3.org/1999/xlink">
    <!-- Generator: Sketch 47.1 (45422) - http://www.bohemiancoding.com/sketch -->
    <title>Combined Shape</title>
    <desc>Created with Sketch.</desc>
    <defs></defs>
    <g id="Page-1" stroke="none" stroke-width="1" fill="none" fill-rule="evenodd">
        <g id="2.1_А_Руководство" transform="translate(-192.000000, -828.000000)" fill-rule="nonzero" fill="#99B0C6">
            <g id="Group-33" transform="translate(180.000000, 426.000000)">
                <g id="Group-18" transform="translate(10.000000, 401.000000)">
                    <path d="M2.96296296,1.18518519 L2.96296296,30.8148148 L29.037037,30.8148148 L29.037037,1.18518519 L2.96296296,1.18518519 Z M27.5134608,2.14099911 L25.4763222,5.00834054 L18.3266021,5.00834054 C18.3065251,4.97150899 18.2918095,4.93096417 18.297285,4.88791039 C18.3559192,4.41722924 18.1017617,3.97605347 17.6345134,3.73760178 C17.1640711,3.4981465 16.5980345,3.5230354 16.1574796,3.8049423 C16.0640527,3.86375236 15.9342362,3.86325057 15.8424064,3.8049423 C15.4018515,3.52253361 14.8358149,3.49764471 14.3653725,3.73760178 C13.8982383,3.97605347 13.6439667,4.41712888 13.7026009,4.88841219 C13.7080764,4.93146596 13.6939312,4.97160935 13.6738542,5.00834054 L6.52322149,5.00834054 L4.48608286,2.14099911 L27.5134608,2.14099911 Z M21.9753823,15.0441861 L21.9753823,19.3452484 L20.345717,19.3452484 L20.345717,20.3010623 L21.9753823,20.3010623 L21.9753823,21.2568762 L10.0246177,21.2568762 L10.0246177,20.3010623 L11.654283,20.3010623 L11.654283,19.3452484 L10.0246177,19.3452484 L10.0246177,15.0441861 L11.654283,15.0441861 L11.654283,14.0883721 L10.0246177,14.0883721 L10.0246177,13.1325582 L13.2838342,13.1325582 L18.7159377,13.1325582 L21.9752682,13.1325582 L21.9752682,14.0883721 L20.345603,14.0883721 L20.345603,15.0441861 L21.9753823,15.0441861 Z M13.7141224,7.82650632 C13.7206246,7.86333788 13.732032,7.89816226 13.7424128,7.93399023 C13.7522232,7.96791139 13.7559876,8.00323756 13.7695625,8.0362555 C12.7873829,8.6594815 12.1975047,9.65533846 12.1975047,10.7430234 L12.1975047,12.1767443 L11.1110612,12.1767443 L11.1110612,10.7431238 C11.1110612,9.29555339 11.9388983,7.95366049 13.2963823,7.15982511 C13.3740669,7.20950254 13.4582538,7.25155273 13.5479161,7.28647748 C13.6527504,7.32712265 13.7152631,7.41985386 13.702715,7.51830551 C13.6898246,7.62348117 13.6968972,7.72614787 13.7141224,7.82650632 Z M14.7832266,4.78434047 C14.7674844,4.6576881 14.8565764,4.59225438 14.9108757,4.56455545 C14.9369987,4.55120778 14.9869633,4.53113609 15.0483353,4.53113609 C15.0951057,4.53113609 15.1488347,4.54257695 15.2037044,4.57800348 C15.6800787,4.88339426 16.3204917,4.88339426 16.79698,4.57800348 C16.9240588,4.49671314 17.044179,4.54117193 17.0898087,4.56505724 C17.1446784,4.59275618 17.2332001,4.65829025 17.2174578,4.78444083 C17.1527777,5.30008257 17.4743531,5.78752359 18.0165482,5.99636953 C18.1577722,6.05086417 18.1729441,6.15935166 18.1729441,6.20381046 C18.1729441,6.22338036 18.1680389,6.25639829 18.1522966,6.29122267 L18.1365544,6.31611157 C18.1078077,6.36057037 18.0697068,6.39017611 18.0165482,6.41074959 C17.4738968,6.62009733 17.1533481,7.10653477 17.2174578,7.62177508 C17.2212223,7.65087903 17.2180282,7.67677151 17.2119823,7.69965324 C17.2017156,7.73457798 17.1766192,7.77562459 17.1223199,7.81486474 L17.0766902,7.84738088 C17.0251286,7.8712662 16.9153891,7.90428413 16.7964096,7.829216 C16.3200354,7.52382522 15.6796224,7.52382522 15.2031341,7.829216 C15.084725,7.90468556 14.9744151,7.8712662 14.9228535,7.84738088 L14.8772238,7.81486474 C14.8229245,7.77572495 14.7979422,7.73457798 14.7875614,7.69965324 C14.7816296,7.67667115 14.7788918,7.65138082 14.7820859,7.62227687 C14.846766,7.10663512 14.5256469,6.6196959 13.9829955,6.41084995 C13.9824251,6.41084995 13.9824251,6.41034816 13.9818547,6.41034816 C13.9297228,6.38977468 13.891736,6.36016893 13.8634456,6.31621193 L13.847133,6.29132303 C13.8320752,6.25619757 13.82717,6.22317964 13.82717,6.20360974 C13.82717,6.15915095 13.8423419,6.05066346 13.9841362,5.99576738 C14.5262172,5.78641964 14.8473364,5.29948042 14.7832266,4.78434047 Z M18.7161658,10.7432241 L18.7161658,12.1768446 L16.5432788,12.1768446 L16.5432788,8.77087939 C16.8404423,8.85598336 17.1571125,8.8387217 17.4537057,8.73314461 C18.2364835,9.16990461 18.7161658,9.91787617 18.7161658,10.7432241 Z M14.5435565,8.73454963 C14.7075954,8.79335968 14.8765394,8.83249948 15.0470804,8.83249948 C15.1855666,8.83249948 15.3230261,8.81343137 15.4561508,8.7751948 L15.4561508,12.1768446 L13.2832638,12.1768446 L13.2832638,10.7431238 C13.2840623,9.9187794 13.762604,9.17130963 14.5435565,8.73454963 Z M20.8889388,12.1768446 L19.8024953,12.1768446 L19.8024953,10.7431238 C19.8024953,9.65543881 19.2126171,8.65897971 18.2304375,8.03585406 C18.243442,8.00283613 18.2477768,7.96750995 18.2575872,7.9335888 C18.2678539,7.89776083 18.2792613,7.86333788 18.2858776,7.82650632 C18.3032169,7.72614787 18.3102895,7.62338081 18.297285,7.51830551 C18.2847369,7.42035566 18.3472496,7.32762444 18.4520839,7.28697927 C18.4532246,7.28647748 18.4542513,7.28557425 18.455392,7.28507246 C18.5439137,7.25064951 18.6270738,7.20910111 18.704188,7.1603269 C20.0616721,7.95366049 20.8889388,9.29555339 20.8889388,10.7431238 L20.8889388,12.1768446 L20.8889388,12.1768446 Z M4.04940648,3.3295443 L5.92136555,5.96415447 L12.779968,5.96415447 C12.7620584,6.04253442 12.7408406,6.12041258 12.7408406,6.20360974 C12.7408406,6.25047714 12.7571532,6.29343056 12.763085,6.33889294 C11.0688537,7.30424092 10.0247318,8.95252819 10.0247318,10.7432241 L10.0247318,12.176945 L8.93828824,12.176945 L8.93828824,22.2127905 L15.4568353,22.2127905 L15.4568353,26.0359459 L5.92136555,26.0359459 L4.04940648,28.6705561 L4.04940648,3.3295443 L4.04940648,3.3295443 Z M4.48665323,29.8590009 L6.52322149,26.9916595 L25.4768926,26.9916595 L27.5139171,29.8590009 L4.48665323,29.8590009 Z M27.9507076,28.6704557 L26.0787485,26.0358455 L16.5432788,26.0358455 L16.5432788,22.2126902 L23.0618258,22.2126902 L23.0618258,12.1768446 L21.9753823,12.1768446 L21.9753823,10.7431238 C21.9753823,8.95242783 20.9313744,7.30414056 19.237029,6.33879258 C19.2429609,6.29343056 19.2592735,6.25037678 19.2592735,6.20350938 C19.2592735,6.12031223 19.2380557,6.04243406 19.220146,5.96405411 L26.0787485,5.96405411 L27.9507076,3.32944394 L27.9507076,28.6704557 Z M16.000057,14.0883721 C17.1984074,14.0883721 18.17283,14.9457344 18.17283,16 C18.17283,16.4616489 17.9773067,16.9085451 17.6296082,17.2568893 L17.6296082,20.3010623 L14.3703918,20.3010623 L14.3703918,17.2568893 C14.0226933,16.9084447 13.82717,16.4616489 13.82717,16 C13.82717,14.9457344 14.8017066,14.0883721 16.000057,14.0883721 Z M16.7224895,16.7068246 C16.9572544,16.5209607 17.0865006,16.2695628 17.0866146,16 C17.0866146,15.472817 16.5994033,15.0441861 16.0001711,15.0441861 C15.4009389,15.0441861 14.9137276,15.4729174 14.9137276,16 C14.9137276,16.2695628 15.0429738,16.5209607 15.2776246,16.7068246 L15.4568353,16.8492332 L15.4568353,19.3452484 L16.5432788,19.3452484 L16.5432788,16.8492332 L16.7224895,16.7068246 Z" id="Combined-Shape"></path>
                </g>
            </g>
        </g>
    </g>
</svg>