<?xml version="1.0" encoding="UTF-8"?>
<svg width="32px" height="32px" viewBox="0 0 32 32" version="1.1" xmlns="http://www.w3.org/2000/svg" xmlns:xlink="http://www.w3.org/1999/xlink">
    <!-- Generator: Sketch 47.1 (45422) - http://www.bohemiancoding.com/sketch -->
    <title>Combined Shape</title>
    <desc>Created with Sketch.</desc>
    <defs></defs>
    <g id="Page-1" stroke="none" stroke-width="1" fill="none" fill-rule="evenodd">
        <g id="2.1_А_Руководство" transform="translate(-190.000000, -1402.000000)" fill-rule="nonzero" fill="#99B0C6">
            <g id="Group-34" transform="translate(180.000000, 939.000000)">
                <g id="Group-21" transform="translate(10.000000, 463.000000)">
                    <path d="M8.73309499,5.34892871 C8.95359585,5.97719234 9.54791884,6.3995903 10.2121303,6.3995903 L14.2380319,6.3995903 C14.9022434,6.3995903 15.4965664,5.97719234 15.7170672,5.34892871 C15.9272745,4.74839828 16.5876935,3.4049381 17.1002091,2.97827349 C17.5493374,2.60334197 17.7600864,2.02254477 17.649565,1.46254748 C17.5412108,0.911616806 17.1505938,0.476418908 16.6050302,0.298819765 C14.9791749,-0.231844338 13.53698,-0.0531785347 12.4344757,0.814550608 C12.2367292,0.970283189 11.9712613,0.970283189 11.7735148,0.814550608 C10.6710105,-0.0526452039 9.22989916,-0.231311008 7.60296031,0.299353096 C7.05739673,0.476952238 6.66623794,0.911616806 6.5578837,1.46308081 C6.44736238,2.0230781 6.65811137,2.6038753 7.10723968,2.97880682 C7.68747661,3.46200449 8.57598134,4.90093087 8.73309499,5.34892871 Z M7.6219223,1.66627983 C7.64142606,1.56654698 7.70968923,1.3884145 7.94373438,1.3121482 C8.44758157,1.14788233 8.91729719,1.06628273 9.35179767,1.06628273 C10.0203433,1.06628273 10.6043726,1.26041512 11.0968426,1.64814658 C11.6900821,2.11587766 12.518992,2.114811 13.1111479,1.64814658 C13.9243464,1.00814967 14.9845926,0.895083552 16.2642561,1.3121482 C16.4983013,1.3884145 16.5660227,1.56708031 16.5855264,1.66627983 C16.6218251,1.8513456 16.5524784,2.03747804 16.3996989,2.16494409 C15.5718726,2.85507409 14.8318131,4.60546563 14.6931197,5.00173039 C14.623773,5.20012943 14.4406543,5.33346212 14.2385737,5.33346212 L10.2126721,5.33346212 C10.0100497,5.33346212 9.82747276,5.20012943 9.75812605,5.00173039 C9.53220747,4.35746683 8.52722194,2.76494119 7.80829158,2.16494409 C7.65497034,2.0369447 7.58508186,1.85081227 7.6219223,1.66627983 Z M16.830407,7.46625182 L16.830407,8.69664588 C17.4469426,9.29344299 18.5077306,9.291843 19.119932,8.68917924 C19.3317645,8.48064692 19.6741639,8.48064692 19.8859965,8.68917924 C20.097829,8.89771157 20.097829,9.23477661 19.8859965,9.44330894 C19.3740227,9.9473065 18.6935581,10.2251718 17.9702936,10.2251718 C17.3315454,10.2251718 16.73343,9.99743959 16.248003,9.59957485 L9.7873817,9.59957485 C9.48832401,9.59957485 9.24561052,9.36064267 9.24561052,9.06624409 C9.24561052,8.77184551 9.48832401,8.53291333 9.7873817,8.53291333 L15.7468647,8.53291333 L15.7468647,7.99958258 L9.24561052,7.99958258 C8.94655283,7.99958258 8.70383934,7.7606504 8.70383934,7.46625182 C8.70383934,7.17185324 8.94655283,6.93292106 9.24561052,6.93292106 L15.7468647,6.93292106 C15.8476341,6.93292106 15.9370263,6.96705423 16.0177502,7.01452067 C16.0984742,6.96758756 16.1878664,6.93292106 16.2886358,6.93292106 C16.5876935,6.93292106 16.830407,7.17185324 16.830407,7.46625182 Z M26.5822882,17.0662055 C28.5944264,17.0662055 32,17.4592702 32,18.9333964 L32,21.8667156 L32,25.0667002 C32,25.158433 31.9832051,25.2469659 31.9572001,25.3333655 L32,25.3333655 L32,28.2666847 C32,29.584545 29.1876658,30.4000077 26.5822882,30.4000077 C25.39906,30.4000077 24.2120393,30.2325419 23.2438942,29.9365433 C22.4832475,31.1706707 21.1093158,32 19.5392629,32 C18.1739995,32 16.9566397,31.3738697 16.1613196,30.4000077 L5.61899425,30.4000077 C5.46946541,30.4000077 5.32102011,30.3946744 5.17420012,30.3850745 C3.30075538,30.2602751 1.93061607,28.336551 1.11037451,26.7445587 C-1.14393536,22.3691132 0.121100338,16.9483394 4.11774632,13.855021 L7.95240272,11.1046342 C8.75639115,10.4822373 9.78142221,10.1329056 10.82379,10.1329056 L15.0371444,10.1329056 C16.217122,10.1329056 17.2340265,10.7131695 17.879276,11.2006338 L21.781112,13.8112878 C22.995763,14.7270168 23.9579486,15.8582113 24.6877144,17.1734049 C25.3584271,17.0982053 26.0237221,17.0662055 26.5822882,17.0662055 Z M30.875283,18.9280631 C30.5718912,18.6528645 29.13999,18.132867 26.5795794,18.1334003 C25.7078695,18.1334003 24.9770202,18.1963333 24.3664441,18.2869996 C24.2505051,18.3040661 24.1383584,18.3216661 24.0327131,18.3403326 C23.9368196,18.3573992 23.8463438,18.3755325 23.7580351,18.394199 C23.684896,18.4091323 23.6068809,18.4235322 23.5397013,18.4395322 C23.3939648,18.4741987 23.2612309,18.5099318 23.1398742,18.5461983 C23.085697,18.5621982 23.0385629,18.5787315 22.9898035,18.5947314 C22.9220821,18.6171313 22.8581531,18.6395312 22.7996419,18.6619311 C22.7503407,18.681131 22.7010395,18.6997976 22.6582396,18.7184641 C22.617065,18.7360641 22.5823916,18.7531306 22.5471765,18.7707306 C22.4827057,18.8027304 22.4279868,18.8325969 22.3841034,18.8608635 C22.3559313,18.8789967 22.3272174,18.8976633 22.3071719,18.9141965 C22.2995871,18.9200632 22.2952529,18.9253965 22.2887516,18.9307298 C22.2995871,18.9413964 22.3077136,18.9515297 22.3223414,18.9627296 C22.3434705,18.9797962 22.3689338,18.9968628 22.3976476,19.014996 C22.4334045,19.0368626 22.4767462,19.0603292 22.5238803,19.084329 C22.5623461,19.1035289 22.6024371,19.1232622 22.6484877,19.1429954 C22.7053737,19.168062 22.7725533,19.1931285 22.8413582,19.2187284 C22.8966189,19.238995 22.9524213,19.2597949 23.0152668,19.2800614 C23.0949071,19.3056613 23.1853829,19.3312612 23.2769423,19.3563277 C23.3489978,19.3765943 23.4188863,19.3963275 23.4979849,19.4155274 C23.6009214,19.4400607 23.7168605,19.4629939 23.8322577,19.4864604 C23.9194829,19.5040603 24.0023739,19.5221936 24.0966421,19.5387268 C24.2266671,19.5611267 24.3718618,19.5803266 24.5154312,19.5995266 C24.6134918,19.6128598 24.7050511,19.6277931 24.8096129,19.6395264 C24.9802708,19.6581929 25.1682654,19.6715262 25.3557183,19.6853928 C25.45107,19.6928594 25.5377534,19.7024594 25.6374393,19.7077927 C25.9332463,19.7237926 26.2463901,19.7333926 26.5806629,19.7333926 C26.9149357,19.7333926 27.2280795,19.7237926 27.5238865,19.7077927 C27.6235724,19.7019261 27.7102558,19.6923261 27.8056075,19.6853928 C27.9930604,19.6720595 28.181055,19.6587263 28.3517129,19.6395264 C28.4562747,19.6277931 28.5478341,19.6128598 28.6458946,19.5995266 C28.789464,19.5803266 28.9346587,19.5611267 29.0646838,19.5387268 C29.1589519,19.5221936 29.2418429,19.5040603 29.3290681,19.4864604 C29.4444654,19.4635272 29.5604044,19.440594 29.6633409,19.4155274 C29.7424395,19.3963275 29.8128698,19.376061 29.8843835,19.3563277 C29.9759429,19.3312612 30.0669604,19.3056613 30.146059,19.2800614 C30.2089045,19.2592615 30.2647069,19.238995 30.3199676,19.2187284 C30.3887725,19.1931285 30.4559521,19.168062 30.5128381,19.1429954 C30.5588887,19.1232622 30.5989797,19.1035289 30.6374455,19.084329 C30.6845796,19.0608625 30.7279213,19.0373959 30.7636782,19.014996 C30.792392,18.9968628 30.8178553,18.9792629 30.8389844,18.9627296 C30.8546957,18.950463 30.8639058,18.9392631 30.875283,18.9280631 Z M22.6138143,23.3157753 C22.5179208,23.2757755 22.4269033,23.2336423 22.337511,23.1904425 C22.3093389,23.1765759 22.2762909,23.1643093 22.2486606,23.1499094 C22.2481188,23.7328399 22.247577,24.1963044 22.247577,24.4048367 C22.2540783,24.4096367 22.259496,24.4155033 22.2659972,24.4208366 C22.3315516,24.4736363 22.3933135,24.5301694 22.4561589,24.5867025 C22.4940829,24.621369 22.5336322,24.6533688 22.5704726,24.689102 C22.6419864,24.758435 22.7091661,24.8315013 22.7758039,24.9056343 C22.7991001,24.9317675 22.8234798,24.9557674 22.8462342,24.9819006 C22.9215404,25.0693668 22.9914289,25.1605664 23.0591502,25.2538992 C23.0705274,25.2693658 23.0829882,25.2837658 23.0938236,25.2992324 C23.1669627,25.4026985 23.2346841,25.509898 23.2986131,25.6197641 C23.3018637,25.6250975 23.3056561,25.6304308 23.3089068,25.6357641 C24.2093305,25.9525625 25.3882245,26.1328283 26.5817464,26.1328283 C26.7957461,26.1328283 26.9875331,26.1232284 27.1858213,26.1162951 C29.3946224,26.0080289 30.7945591,25.3317655 30.9218754,25.0283003 L30.9186247,23.1488427 C30.8915362,23.1627093 30.8595717,23.1744426 30.8313996,23.1883092 C30.7420073,23.2320423 30.6493645,23.2747088 30.5518456,23.3152419 C30.5030862,23.3355085 30.4527015,23.3552417 30.4023168,23.3744417 C30.3085904,23.4101748 30.2121551,23.4448413 30.113011,23.4779078 C30.0599174,23.4955077 30.0073656,23.5131077 29.9526467,23.5301742 C29.8410419,23.5648407 29.7256446,23.5968406 29.6080802,23.6277738 C29.5631132,23.639507 29.5197715,23.652307 29.4742628,23.6635069 C29.3111896,23.7035067 29.1437823,23.7403066 28.9725827,23.7739064 C28.9341169,23.781373 28.8951094,23.7872397 28.8566436,23.794173 C28.7206591,23.8192395 28.5830492,23.8427061 28.4432722,23.8629726 C28.3809685,23.8720393 28.3181231,23.8800392 28.2552776,23.8880392 C28.1350044,23.9040391 28.0141894,23.918439 27.8922909,23.9307056 C27.8261948,23.9376389 27.759557,23.9440389 27.6929191,23.9499055 C27.5661447,23.9605722 27.4388285,23.9691055 27.3115122,23.9765721 C27.2530009,23.9797721 27.1944897,23.9840387 27.1359784,23.9867054 C26.9506926,23.9947053 26.7659486,24.0000386 26.5817464,24.0000386 C26.3975442,24.0000386 26.2128003,23.9947053 26.0275145,23.9867054 C25.9700868,23.9840387 25.912659,23.9797721 25.8552313,23.9765721 C25.7262898,23.9691055 25.59789,23.9605722 25.470032,23.9493722 C25.4050194,23.9435056 25.3400069,23.9371056 25.2749944,23.9307056 C25.1509288,23.9179057 25.0284885,23.9035058 24.90659,23.8875058 C24.8453698,23.8795059 24.7841497,23.8720393 24.7234713,23.8629726 C24.5815273,23.8421727 24.4417503,23.8187062 24.3035986,23.7931063 C24.2673,23.786173 24.2299178,23.7808397 24.1941609,23.7739064 C24.0218776,23.7408399 23.8539286,23.7035067 23.6897719,23.6629736 C23.646972,23.6528403 23.6063391,23.6405737 23.564081,23.6293738 C23.4438078,23.5979072 23.3262434,23.5653741 23.2119297,23.5301742 C23.1582944,23.513641 23.1068261,23.4965744 23.0542743,23.4789745 C22.9545884,23.4453746 22.8581531,23.4112415 22.763885,23.374975 C22.7129585,23.3552417 22.6625737,23.3360418 22.6138143,23.3157753 Z M11.4126952,13.8662209 C11.7117529,13.8662209 11.9544664,14.1051531 11.9544664,14.3995517 C11.9544664,14.6939502 11.7117529,14.9328824 11.4126952,14.9328824 C8.55701935,14.9328824 4.91144109,18.8208636 4.91144109,21.8661823 C4.91144109,22.1605809 4.66872761,22.399513 4.36966992,22.399513 C4.07061223,22.399513 3.82789874,22.1605809 3.82789874,21.8661823 C3.82789874,18.2027333 7.93940021,13.8662209 11.4126952,13.8662209 Z M15.4564753,29.3328129 C15.315073,28.9077483 15.2386833,28.4448172 15.2175542,27.9840194 C15.2126783,27.9008198 15.2045517,27.8181535 15.2045517,27.7333539 C15.2045517,27.7136207 15.2078023,27.6944208 15.2078023,27.6746876 C15.2083441,27.6282878 15.2126783,27.5829547 15.2148454,27.5370882 C15.2208048,27.4085555 15.2316403,27.2816228 15.2489769,27.1562901 C15.2527693,27.1274902 15.2527693,27.096557 15.2571035,27.0677572 C15.2608959,27.0442906 15.2695642,27.0218907 15.2738984,26.9984242 C15.3064047,26.8149584 15.3470375,26.6336259 15.40284,26.4586934 C15.4153007,26.4181603 15.4326374,26.3802938 15.4467234,26.340294 C15.4949411,26.2026947 15.5502017,26.069362 15.6119636,25.9386959 C15.6401357,25.8794962 15.6677661,25.8208298 15.6981053,25.7632301 C15.7766621,25.6154975 15.8617201,25.4714982 15.9570719,25.3344322 C15.9944541,25.2805658 16.0361705,25.230966 16.0757198,25.1786996 C16.1488589,25.0827001 16.2263321,24.9893672 16.3075978,24.8997676 C16.3552737,24.8469679 16.4013242,24.7936348 16.451709,24.7435017 C16.5665644,24.6283023 16.6879212,24.5200361 16.8152374,24.4187033 C16.8715816,24.3739035 16.9306347,24.332837 16.989146,24.2907039 C17.0882901,24.2187042 17.1912266,24.1520379 17.296872,24.0885715 C17.3521327,24.055505 17.4052262,24.0203052 17.4621122,23.9899054 C17.6132664,23.9083057 17.77038,23.8379061 17.931286,23.7744397 C17.9887138,23.7520398 18.0472251,23.7317733 18.1057364,23.7115067 C18.2671842,23.6549736 18.4324244,23.6064405 18.6019988,23.5696407 C18.6166266,23.5664407 18.6301709,23.5605741 18.6447987,23.5573741 C18.6485911,23.5563074 18.6518417,23.5563074 18.6556341,23.5557741 C18.8409199,23.5179076 19.0316233,23.4960411 19.2244938,23.4821745 C19.2705444,23.4789745 19.3165949,23.4768412 19.3626455,23.4752412 C19.4216986,23.4731078 19.4791263,23.4667079 19.5387211,23.4667079 C19.6519513,23.4667079 19.7635562,23.4747078 19.8746193,23.4832411 C19.8968319,23.4848411 19.9190445,23.4843078 19.9412571,23.4864411 C20.1390036,23.5045744 20.3324159,23.5376409 20.5220358,23.581374 C20.5474991,23.5872406 20.5729623,23.5941739 20.5984256,23.6005739 C20.7923796,23.6485737 20.9814578,23.70724 21.1640347,23.7803064 L21.1640347,21.8661823 L21.1640347,18.9328631 C21.1640347,18.8325969 21.1824549,18.7381974 21.2122523,18.6480645 C21.2257966,18.6064647 21.248551,18.5685982 21.267513,18.5291317 C21.2891838,18.4853986 21.3097711,18.4411321 21.3379432,18.4000657 C21.371533,18.3499326 21.4127076,18.3029995 21.4555076,18.2565997 C21.4777202,18.2325998 21.499391,18.2091333 21.5237707,18.1862 C21.5811985,18.1318003 21.6440439,18.0800672 21.7128489,18.0310008 C21.7253096,18.0224675 21.7377703,18.0139342 21.7502311,18.0054009 C22.2058606,17.6939358 22.8689886,17.4816701 23.5548709,17.3424708 C22.9237075,16.3019425 22.1159266,15.4070135 21.146698,14.6752837 L17.244862,12.0651629 C16.7068832,11.6603649 15.9126466,11.1995671 15.0366026,11.1995671 L10.8232482,11.1995671 C10.0230522,11.1995671 9.23531687,11.4678325 8.60577876,11.9547635 L4.77112236,14.7051502 C1.19543258,17.4731368 0.0550042541,22.3387133 2.07635252,26.2618944 C3.05587481,28.1632185 4.18167532,29.2496133 5.24625568,29.3205463 C5.36923774,29.3285462 5.49384511,29.3328129 5.61899425,29.3328129 L15.4564753,29.3328129 Z M19.5392629,30.9328052 C20.8514327,30.9328052 21.9821091,30.1616089 22.49625,29.0570809 C22.5428423,28.9562814 22.5840169,28.8544152 22.6197738,28.750949 C22.6213991,28.7466824 22.6230244,28.7424157 22.6246498,28.7381491 C22.6582396,28.6389496 22.6858699,28.5386834 22.7091661,28.4373505 C22.7113332,28.4266839 22.7151255,28.4165506 22.7172926,28.405884 C22.7384217,28.3114845 22.7530495,28.2154849 22.7649685,28.1189521 C22.7671356,28.1024188 22.770928,28.0869522 22.7725533,28.070419 C22.7844723,27.9584195 22.7909735,27.8458867 22.7909735,27.7328206 C22.7909735,27.6224211 22.785014,27.5130883 22.7736368,27.4042889 C22.7725533,27.3952222 22.7703862,27.3872223 22.7693027,27.3781557 C22.7579255,27.2784228 22.7427559,27.1792233 22.7221686,27.0810904 C22.7205433,27.0736238 22.7178344,27.0661572 22.7162091,27.0581572 C22.6945382,26.959491 22.669075,26.8613582 22.6376523,26.7648253 C22.6354852,26.757892 22.6322346,26.7509587 22.6300675,26.7440254 C22.598103,26.6485592 22.5623461,26.5541596 22.5211715,26.4608268 C22.4967918,26.4058937 22.4691614,26.3520273 22.4415311,26.2986942 C22.3223414,26.064562 22.1738961,25.8464297 22.0016129,25.6490973 C21.9940281,25.640564 21.9864433,25.6330974 21.9788585,25.6245641 C21.9046359,25.5413645 21.8255373,25.4624316 21.7426463,25.3866986 C21.7231425,25.3690987 21.7036388,25.3509654 21.6835932,25.3338989 C21.6007022,25.2618992 21.5145606,25.1946995 21.4246266,25.1312332 C21.4062064,25.1184332 21.3888697,25.1040333 21.3699077,25.0912334 L21.3482369,25.0763001 C21.2149612,24.9883005 21.0724753,24.9120342 20.9261971,24.8437679 C20.7669164,24.7696349 20.6038433,24.7083019 20.4375195,24.6608354 C20.4353524,24.6603021 20.4326436,24.6597688 20.4304765,24.6592355 C20.2690287,24.613369 20.104872,24.5808358 19.93909,24.5605693 C19.9304217,24.5589693 19.9217534,24.5573693 19.9125432,24.5563026 C19.7554296,24.5381694 19.5961489,24.5339027 19.4363264,24.5387027 C19.4059872,24.539236 19.3761898,24.5413694 19.3463924,24.5429693 C19.1898205,24.552036 19.0327069,24.5691026 18.876135,24.6005691 C18.8587983,24.6037691 18.8425452,24.6096357 18.8252085,24.613369 C18.6989758,24.6405689 18.5765355,24.6773687 18.4562623,24.7195018 C18.4210472,24.7317684 18.3852903,24.744035 18.3500752,24.7579016 C18.2146324,24.8112347 18.0813567,24.8709678 17.9545822,24.9419008 C17.9524151,24.9429674 17.9507898,24.9445674 17.9486227,24.9456341 C17.3900566,25.2597659 16.9290094,25.7365636 16.6369947,26.3008275 C16.6310352,26.3125608 16.6250757,26.3248274 16.6191163,26.337094 C16.555729,26.4634934 16.5010101,26.5941594 16.4555014,26.7280255 C16.4506254,26.7418921 16.4441242,26.7552253 16.43979,26.7696253 C16.3969901,26.9024246 16.3655673,27.0394906 16.3411876,27.1781566 C16.3325193,27.2266897 16.3249345,27.2757561 16.3184332,27.3253559 C16.3124738,27.373889 16.3065143,27.4224221 16.3027219,27.4714885 C16.2978459,27.5296216 16.2951371,27.5877546 16.2935118,27.646421 C16.2918865,27.6880208 16.2908029,27.7290873 16.2908029,27.7706871 C16.3113902,29.5173453 17.7595446,30.9328052 19.5392629,30.9328052 Z M26.5822882,29.3328129 C29.1389064,29.3328129 30.7831819,28.5584166 30.9218754,28.2282849 L30.9186247,26.5280264 C29.7489408,27.036824 27.8771213,27.1994899 26.5822882,27.1994899 C25.5805533,27.1994899 24.6259525,27.1200236 23.8040856,26.970691 C23.8165464,27.038424 23.8230476,27.107757 23.8322577,27.1765566 C23.838759,27.2250897 23.8474273,27.2725562 23.8523033,27.3216226 C23.8658475,27.4576219 23.8734323,27.5946879 23.8734323,27.7328206 C23.8734323,27.9226864 23.8560957,28.1077521 23.8317159,28.2912179 C23.8257565,28.334951 23.8187134,28.3776175 23.8116704,28.4208173 C23.7813312,28.6021497 23.7428655,28.7802822 23.6903137,28.9530814 C23.6903137,28.954148 23.6903137,28.9552147 23.6897719,28.9562814 C24.5306008,29.1978802 25.5540065,29.3328129 26.5822882,29.3328129 Z M26.5822882,22.9328438 C29.1389064,22.9328438 30.7831819,22.1584475 30.9224171,21.8272491 L30.9191665,20.1269907 C30.9039969,20.1333906 30.8861185,20.1387239 30.8709489,20.1451239 C30.7436326,20.198457 30.6098152,20.2491234 30.4684129,20.2949899 C30.4608281,20.2971232 30.4543268,20.2997898 30.446742,20.3024565 C30.2966714,20.3504563 30.1384742,20.3931227 29.9764846,20.4331225 C29.9244746,20.4459225 29.871381,20.4571224 29.8182875,20.469389 C29.7018067,20.4960556 29.5842423,20.5205888 29.4645109,20.543522 C29.4065414,20.5541886 29.3491136,20.5653886 29.2900606,20.5755218 C29.1589519,20.5984551 29.0267598,20.619255 28.8934841,20.6379215 C28.8506841,20.6437882 28.808426,20.6507215 28.7656261,20.6565881 C28.590634,20.6800547 28.4156419,20.6997879 28.2411916,20.7168545 C28.1978499,20.7211211 28.1555917,20.7243211 28.11225,20.7280544 C27.9784325,20.740321 27.8456986,20.7509877 27.71459,20.759521 C27.6571622,20.7632543 27.6013598,20.7664543 27.5444738,20.7696542 C27.4236589,20.7765875 27.3060945,20.7819208 27.1901555,20.7861875 C27.1403125,20.7877875 27.0904696,20.7899208 27.0411684,20.7915208 C26.8824295,20.7957874 26.7274829,20.7984541 26.5817464,20.7984541 C26.4354682,20.7984541 26.2805217,20.7957874 26.1217827,20.7915208 C26.0735651,20.7899208 26.0242639,20.7877875 25.9749627,20.7861875 C25.8579402,20.7819208 25.739834,20.7765875 25.6184773,20.7696542 C25.5626749,20.7664543 25.5074142,20.7632543 25.4505282,20.759521 C25.3194196,20.7509877 25.1872274,20.740321 25.05341,20.7285878 C25.0095265,20.7248545 24.9667266,20.7216545 24.9228431,20.7173878 C24.7489346,20.7008546 24.5739425,20.680588 24.3989504,20.6576548 C24.3566922,20.6517881 24.3149758,20.6448548 24.2727177,20.6389882 C24.1389002,20.6197883 24.006708,20.5995217 23.8750576,20.5765885 C23.8165464,20.5664552 23.7591186,20.5557886 23.7011491,20.5445887 C23.5814177,20.5221888 23.4643951,20.4971222 23.3484561,20.470989 C23.2953625,20.4592557 23.2417271,20.4475225 23.1897171,20.4347225 C23.0309781,20.3957894 22.8754898,20.3536562 22.7281281,20.3067231 C22.7200015,20.3045898 22.7124167,20.3019232 22.7048319,20.2992565 C22.5607208,20.2523234 22.425278,20.2011236 22.2957947,20.1467239 C22.2817086,20.1408573 22.2654555,20.1360573 22.2519112,20.1301907 C22.2519112,20.6443215 22.2513694,21.2613852 22.2508276,21.8693823 C22.3938552,22.1643142 24.0343384,22.9328438 26.5822882,22.9328438 Z" id="Combined-Shape"></path>
                </g>
            </g>
        </g>
    </g>
</svg>