<?xml version="1.0" encoding="UTF-8"?>
<svg width="32px" height="32px" viewBox="0 0 32 32" version="1.1" xmlns="http://www.w3.org/2000/svg" xmlns:xlink="http://www.w3.org/1999/xlink">
    <!-- Generator: Sketch 47.1 (45422) - http://www.bohemiancoding.com/sketch -->
    <title>Combined Shape</title>
    <desc>Created with Sketch.</desc>
    <defs></defs>
    <g id="Page-1" stroke="none" stroke-width="1" fill="none" fill-rule="evenodd">
        <g id="2.1_А_Руководство" transform="translate(-190.000000, -2714.000000)" fill-rule="nonzero" fill="#99B0C6">
            <g id="Group-36" transform="translate(180.000000, 2081.000000)">
                <g id="Group-29" transform="translate(10.000000, 633.000000)">
                    <path d="M27.9893203,23.979 C30.200816,23.979 31.9999375,25.778 32,27.9894375 C32,30.200875 30.2008785,32 27.9893828,32 C25.7780747,32 23.9790157,30.200875 23.9790157,27.9894375 C23.9790157,27.0654375 24.2938901,26.2141875 24.8208265,25.535375 L22.5626434,23.27725 C22.3653313,23.079875 22.3653313,22.76 22.5626434,22.562625 C22.760018,22.365375 23.0798924,22.365375 23.277267,22.562625 L25.5353876,24.8208125 C26.2141363,24.293875 27.0654471,23.979 27.9893203,23.979 Z M27.9893203,30.9895 C29.6435046,30.9895 30.9894395,29.6435625 30.9894395,27.9894375 C30.9894395,26.3353125 29.6436296,24.9895 27.9893203,24.9895 C26.3351986,24.9895 24.9894512,26.33525 24.9894512,27.9894375 C24.9894512,29.643625 26.3351361,30.9895 27.9893203,30.9895 Z M29.0177558,26.8883125 C29.2188179,26.694625 29.5386923,26.70075 29.7321294,26.9015625 C29.9257541,27.1024375 29.9198166,27.4223125 29.718942,27.6159375 L27.9894453,29.2824375 C27.891633,29.37675 27.7652583,29.4239375 27.6388835,29.4239375 C27.5127588,29.4239375 27.3866965,29.377 27.2889467,29.283125 L26.2605112,28.295625 C26.0591991,28.1023125 26.0527616,27.7825 26.2459487,27.58125 C26.4391984,27.379875 26.7590102,27.3734375 26.9603223,27.5666875 L27.6382585,28.217625 L29.0177558,26.8883125 Z M4.01036717,8.0210625 C1.79905899,8.0210625 0,6.221875 0,4.0104375 C0,1.7990625 1.79905899,0 4.01036717,0 C6.22186285,0 8.02104683,1.7990625 8.02104683,4.0105 C8.02104683,4.9345 7.70617245,5.7858125 7.17923598,6.464625 L10.8142289,10.0996875 C11.011541,10.297 11.011541,10.616875 10.8142289,10.81425 C10.7155416,10.912875 10.5861668,10.9621875 10.4569171,10.9621875 C10.3276673,10.9621875 10.1982926,10.912875 10.0996053,10.81425 L6.46461237,7.1791875 C5.7856762,7.7061875 4.93430286,8.0210625 4.01036717,8.0210625 Z M4.01036717,1.0105 C2.3562454,1.0105 1.01049803,2.356375 1.01049803,4.0104375 C1.01049803,5.6646875 2.3562454,7.0105625 4.01036717,7.0105 C5.66461394,7.0105 7.01048631,5.6646875 7.01048631,4.0104375 C7.01048631,2.3563125 5.66467644,1.0105 4.01036717,1.0105 Z M3.31005604,5.304125 L2.28162054,4.3166875 C2.08030844,4.123375 2.07387095,3.8035 2.26705807,3.60225 C2.46024519,3.4008125 2.78018207,3.394375 2.98143168,3.5876875 L3.65936785,4.238625 L5.03886516,2.909375 C5.23986477,2.7156875 5.55973914,2.72175 5.75323876,2.9225625 C5.94686339,3.1234375 5.9409259,3.4433125 5.74005129,3.6369375 L4.01055467,5.3034375 C3.91274236,5.39775 3.7863676,5.4449375 3.65999285,5.4449375 C3.5338681,5.4449375 3.40780584,5.3980625 3.31005604,5.304125 Z M21.3112084,11.194 C21.1819586,11.194 21.0525839,11.1446875 20.9539591,11.046 C20.756647,10.8486875 20.756647,10.5288125 20.9539591,10.3314375 L24.820764,6.464625 C24.2938276,5.78575 23.9789532,4.934375 23.9789532,4.0104375 C23.9789532,1.7990625 25.7780122,0 27.9893203,0 C30.200816,0 31.9999375,1.7990625 31.999875,4.0105 C31.999875,6.2219375 30.2007535,8.0210625 27.9892578,8.0210625 C27.0653846,8.0210625 26.2141363,7.7061875 25.5353251,7.17925 L21.6685202,11.0460625 C21.5698329,11.1446875 21.4405206,11.194 21.3112084,11.194 Z M27.2889467,5.304125 L26.2605112,4.3166875 C26.0591991,4.123375 26.0527616,3.8035 26.2459487,3.60225 C26.4392609,3.4008125 26.7590102,3.394375 26.9603223,3.5876875 L27.6382585,4.238625 L29.0177558,2.909375 C29.2187554,2.7156875 29.5386298,2.72175 29.7321294,2.9225625 C29.9257541,3.1234375 29.9198166,3.4433125 29.718942,3.6369375 L27.9894453,5.3034375 C27.891633,5.39775 27.7652583,5.4449375 27.6388835,5.4449375 C27.5127588,5.4449375 27.3866965,5.3980625 27.2889467,5.304125 Z M27.9893203,1.0105 C26.3351361,1.0105 24.9894512,2.356375 24.9894512,4.0104375 C24.9894512,5.664625 26.3351361,7.0105 27.9893203,7.0105 C29.6435671,7.0105 30.9894395,5.6646875 30.9894395,4.0104375 C30.9894395,2.3563125 29.6435671,1.0105 27.9893203,1.0105 Z M8.72279546,22.562625 C8.92010758,22.365375 9.23998195,22.365375 9.43735657,22.5626875 C9.63466868,22.7600625 9.63466868,23.0799375 9.43735657,23.2773125 L7.17917348,25.5354375 C7.70610995,26.2141875 8.02098433,27.0655 8.02098433,27.9894375 C8.02098433,30.200875 6.22186285,32 4.01036717,32 C1.79905899,32 0,30.200875 0,27.9894375 C0,25.778 1.79905899,23.979 4.01036717,23.979 C4.93442786,23.979 5.7857387,24.293875 6.46461237,24.8208125 L8.72279546,22.562625 Z M5.03886516,26.8883125 C5.23992727,26.694625 5.55973914,26.70075 5.75323876,26.9015625 C5.94686339,27.1024375 5.9409259,27.4223125 5.74005129,27.6159375 L4.01055467,29.2824375 C3.91274236,29.37675 3.7863676,29.4239375 3.65999285,29.4239375 C3.5338681,29.4239375 3.40780584,29.377 3.31005604,29.283125 L2.28162054,28.295625 C2.08030844,28.1023125 2.07387095,27.7825 2.26705807,27.58125 C2.46024519,27.379875 2.78018207,27.3734375 2.98143168,27.5666875 L3.65936785,28.217625 L5.03886516,26.8883125 Z M4.01036717,30.9895 C5.66467644,30.9895 7.01054881,29.6435625 7.01048631,27.9894375 C7.01048631,26.3353125 5.66467644,24.9895 4.01036717,24.9895 C2.3562454,24.9895 1.01049803,26.33525 1.01049803,27.9894375 C1.01049803,29.643625 2.3562454,30.9895 4.01036717,30.9895 Z M19.9106486,17.31475 C20.1195857,17.390375 21.8649573,18.08925 21.8649573,20.31475 L21.8649573,22.29125 C21.8649573,22.570375 21.6388327,22.8004375 21.3597083,22.8004375 L17.6864655,22.8004375 L14.358722,22.8004375 L14.1243474,22.8004375 C13.845223,22.8004375 13.6190984,22.5743125 13.6190984,22.2951875 C13.6190984,22.0160625 13.845223,21.7899375 14.1243474,21.7899375 L14.358722,21.7899375 L17.6864655,21.7899375 L20.8544593,21.7899375 L20.8544593,20.3148125 C20.8544593,18.7163125 19.5838368,18.27075 19.5709618,18.2665 C19.5619618,18.2634375 19.5528368,18.260125 19.5439618,18.2565 L17.4349034,17.41075 L16.366843,18.5191875 C16.2735307,18.616 16.1454685,18.67175 16.0110312,18.6738125 C16.0083437,18.673875 16.0056562,18.673875 16.0030312,18.673875 C15.8714065,18.673875 15.7448442,18.6224375 15.6504694,18.5305 L14.5214716,17.4306875 L12.4091008,18.258 C12.4013508,18.2610625 12.3936008,18.263875 12.3857883,18.2665 C12.3369134,18.2838125 11.1024158,18.7390625 11.1024158,20.3148125 L11.1024158,21.7899375 L12.3567259,21.7899375 C12.6357878,21.7899375 12.8619749,22.0160625 12.8619749,22.2951875 C12.8619749,22.5743125 12.6358503,22.8004375 12.3567259,22.8004375 L10.5971043,22.8004375 C10.3179798,22.8004375 10.0918553,22.57375 10.0918553,22.2946875 L10.0918553,20.31475 C10.0918553,18.0809375 11.8501644,17.385125 12.048289,17.313875 L14.3542845,16.4108125 L14.3542845,16.0401875 C13.7423482,15.6890625 13.2731616,15.1164375 13.0580995,14.4318125 C12.2550386,14.39475 11.6131648,13.730125 11.6131648,12.91825 C11.6131648,12.4348125 11.8409769,12.0038125 12.1946637,11.7261875 L12.1946637,10.7258125 C12.1946637,8.6986875 13.843848,7.0495625 15.870969,7.0495625 L16.135281,7.0495625 C18.1623395,7.0495625 19.8114613,8.6986875 19.8114613,10.7258125 L19.8114613,11.7306875 C20.1617731,12.0085 20.3872102,12.437375 20.3872102,12.91825 C20.3872102,13.724 19.7548989,14.384625 18.9604005,14.43075 C18.7455259,15.1158125 18.2761518,15.688875 17.663903,16.0401875 L17.663903,16.4138125 L19.9106486,17.31475 Z M19.0894002,12.5171875 L19.0894002,13.373125 C19.2590249,13.291625 19.3766497,13.1186875 19.3766497,12.9183125 C19.3766497,12.7781875 19.3192123,12.6513125 19.2267124,12.55975 C19.178275,12.5520625 19.1322126,12.537625 19.0894002,12.5171875 Z M12.9287872,13.381625 L12.9287872,12.5218125 C12.8773498,12.548 12.8210375,12.56575 12.7612876,12.5729375 C12.6762877,12.6633125 12.6237253,12.784625 12.6237253,12.91825 C12.6237253,13.125625 12.7495376,13.304 12.9287872,13.381625 Z M13.4357238,11.1020625 C13.4633487,11.1020625 15.7189068,11.0874375 16.7345923,9.683625 C16.8508421,9.5226875 17.0507167,9.4448125 17.2452163,9.48475 C17.4397159,9.5245 17.5929031,9.6745 17.6367156,9.868125 C17.638778,9.8765625 17.8966525,10.9329375 18.696276,11.11475 C18.700776,11.1158125 18.7050885,11.1173125 18.709526,11.1185 C18.7203384,11.12125 18.7310884,11.124 18.7415884,11.1275 C18.7477134,11.1295625 18.7536509,11.131875 18.7596509,11.134125 C18.7691508,11.137625 18.7784633,11.141125 18.7876508,11.1451875 C18.7920883,11.147125 18.7965883,11.1493125 18.8009633,11.151375 L18.8009633,10.726 C18.8009633,9.2561875 17.6051531,8.0603125 16.1353435,8.0603125 L15.8710315,8.0603125 C14.4011594,8.0603125 13.2052867,9.2560625 13.2052242,10.7260625 L13.2052242,11.1574375 C13.2061617,11.1569375 13.2070367,11.1565625 13.2079742,11.1560625 C13.2177867,11.151125 13.2275367,11.146 13.2377866,11.1416875 C13.2443491,11.1388125 13.2512241,11.13675 13.2580366,11.13425 C13.2666616,11.131 13.2751616,11.1275 13.2839741,11.12475 C13.292474,11.1220625 13.301224,11.1201875 13.3099115,11.1180625 C13.3174115,11.116125 13.324724,11.113875 13.332349,11.1123125 C13.3434739,11.11 13.3548489,11.108625 13.3662239,11.107125 C13.3716614,11.106375 13.3769114,11.10525 13.3824114,11.1046875 C13.3994113,11.103 13.4165363,11.1020625 13.4339738,11.1020625 L13.4357238,11.1020625 Z M16.65328,16.763625 L16.6533425,16.763625 L16.6533425,16.3863125 C16.5250302,16.40425 16.3942805,16.414125 16.2610932,16.414125 L15.7571567,16.414125 C15.624032,16.414125 15.4930947,16.40425 15.3647825,16.3863125 L15.3647825,16.8415 L15.9915938,17.4520625 L16.65328,16.7651875 L16.65328,16.763625 Z M16.2611557,15.403625 C17.2634663,15.403625 18.0789022,14.58825 18.0788397,13.5858125 L18.0788397,11.9681875 C17.5435907,11.72675 17.1947789,11.292125 16.9760293,10.9014375 C15.9781563,11.760125 14.6545339,12.0101875 13.9392853,12.0828125 L13.9393478,12.0828125 L13.9393478,13.585875 C13.9393478,14.588125 14.7548462,15.403625 15.7572192,15.403625 L16.2611557,15.403625 Z" id="Combined-Shape"></path>
                </g>
            </g>
        </g>
    </g>
</svg>