<?xml version="1.0" encoding="UTF-8"?>
<svg width="32px" height="32px" viewBox="0 0 32 32" version="1.1" xmlns="http://www.w3.org/2000/svg" xmlns:xlink="http://www.w3.org/1999/xlink">
    <!-- Generator: Sketch 47.1 (45422) - http://www.bohemiancoding.com/sketch -->
    <title>Group 13</title>
    <desc>Created with Sketch.</desc>
    <defs></defs>
    <g id="Page-1" stroke="none" stroke-width="1" fill="none" fill-rule="evenodd">
        <g id="2.1_А_Руководство" transform="translate(-190.000000, -765.000000)">
            <g id="Group-33" transform="translate(180.000000, 426.000000)">
                <g id="Group-13" transform="translate(10.000000, 339.000000)">
                    <rect id="Rectangle-20" x="0" y="0" width="32" height="32"></rect>
                    <path d="M31.4666667,27.2 L30.4,27.2 L30.4,21.8666667 L30.4,4.26666667 C30.4,4.1248 30.344,3.98933333 30.2437333,3.8896 L26.5104,0.156266667 C26.4106667,0.056 26.2752,0 26.1333333,0 L14.4,0 C14.1050667,0 13.8666667,0.2384 13.8666667,0.533333333 L13.8666667,7.46666667 L4.26666667,7.46666667 C2.79626667,7.46666667 1.6,8.66293333 1.6,10.1333333 L1.6,27.2 L0.533333333,27.2 C0.2384,27.2 0,27.4384 0,27.7333333 L0,29.3333333 C0,30.8037333 1.19626667,32 2.66666667,32 L29.3333333,32 C30.8037333,32 32,30.8037333 32,29.3333333 L32,27.7333333 C32,27.4384 31.7616,27.2 31.4666667,27.2 Z M26.6666667,1.8208 L28.5792,3.73333333 L26.6666667,3.73333333 L26.6666667,1.8208 Z M14.9333333,10.6666667 L14.9333333,8 L14.9333333,1.06666667 L25.6,1.06666667 L25.6,4.26666667 C25.6,4.5616 25.8384,4.8 26.1333333,4.8 L29.3333333,4.8 L29.3333333,21.3333333 L27.2,21.3333333 L14.9333333,21.3333333 L14.9333333,10.6666667 Z M14.4,22.4 L26.6666667,22.4 L26.6666667,25.0666667 L5.33333333,25.0666667 L5.33333333,11.2 L13.8666667,11.2 L13.8666667,21.8666667 C13.8666667,22.1616 14.1050667,22.4 14.4,22.4 Z M2.66666667,10.1333333 C2.66666667,9.2512 3.38453333,8.53333333 4.26666667,8.53333333 L13.8666667,8.53333333 L13.8666667,10.1333333 L4.8,10.1333333 C4.50506667,10.1333333 4.26666667,10.3717333 4.26666667,10.6666667 L4.26666667,25.6 C4.26666667,25.8949333 4.50506667,26.1333333 4.8,26.1333333 L27.2,26.1333333 C27.4949333,26.1333333 27.7333333,25.8949333 27.7333333,25.6 L27.7333333,22.4 L29.3333333,22.4 L29.3333333,27.2 L20.2666667,27.2 C20.1248,27.2 19.9893333,27.256 19.8896,27.3562667 L19.5125333,27.7333333 L12.4874667,27.7333333 L12.1104,27.3562667 C12.0106667,27.256 11.8752,27.2 11.7333333,27.2 L2.66666667,27.2 L2.66666667,10.1333333 Z M30.9333333,29.3333333 C30.9333333,30.2154667 30.2154667,30.9333333 29.3333333,30.9333333 L2.66666667,30.9333333 C1.78453333,30.9333333 1.06666667,30.2154667 1.06666667,29.3333333 L1.06666667,28.2666667 L11.5125333,28.2666667 L11.8896,28.6437333 C11.9893333,28.744 12.1248,28.8 12.2666667,28.8 L19.7333333,28.8 C19.8752,28.8 20.0106667,28.744 20.1104,28.6437333 L20.4874667,28.2666667 L30.9333333,28.2666667 L30.9333333,29.3333333 Z M6.4,12.8 L9.06666667,12.8 L9.06666667,13.8666667 L6.4,13.8666667 L6.4,12.8 Z M10.1333333,12.8 L12.8,12.8 L12.8,13.8666667 L10.1333333,13.8666667 L10.1333333,12.8 Z M6.4,14.9333333 L12.8,14.9333333 L12.8,16 L6.4,16 L6.4,14.9333333 Z M6.4,17.0666667 L8,17.0666667 L8,18.1333333 L6.4,18.1333333 L6.4,17.0666667 Z M9.06666667,17.0666667 L12.8,17.0666667 L12.8,18.1333333 L9.06666667,18.1333333 L9.06666667,17.0666667 Z M6.4,19.2 L9.6,19.2 L9.6,20.2666667 L6.4,20.2666667 L6.4,19.2 Z M10.6666667,19.2 L12.8,19.2 L12.8,20.2666667 L10.6666667,20.2666667 L10.6666667,19.2 Z M6.4,21.3333333 L7.46666667,21.3333333 L7.46666667,22.4 L6.4,22.4 L6.4,21.3333333 Z M8.53333333,21.3333333 L12.8,21.3333333 L12.8,22.4 L8.53333333,22.4 L8.53333333,21.3333333 Z M19.7333333,4.26666667 C20.0282667,4.26666667 20.2666667,4.50506667 20.2666667,4.8 L20.2666667,8 C20.2666667,8.29493333 20.0282667,8.53333333 19.7333333,8.53333333 L16.5333333,8.53333333 C16.2384,8.53333333 16,8.29493333 16,8 L16,4.8 C16,4.50506667 16.2384,4.26666667 16.5333333,4.26666667 L19.7333333,4.26666667 Z M19.2,7.46666667 L19.2,5.33333333 L17.0666667,5.33333333 L17.0666667,7.46666667 L19.2,7.46666667 Z M19.7333333,9.6 C20.0282667,9.6 20.2666667,9.8384 20.2666667,10.1333333 L20.2666667,13.3333333 C20.2666667,13.6282667 20.0282667,13.8666667 19.7333333,13.8666667 L16.5333333,13.8666667 C16.2384,13.8666667 16,13.6282667 16,13.3333333 L16,10.1333333 C16,9.8384 16.2384,9.6 16.5333333,9.6 L19.7333333,9.6 Z M19.2,12.8 L19.2,10.6666667 L17.0666667,10.6666667 L17.0666667,12.8 L19.2,12.8 Z M19.7333333,14.9333333 C20.0282667,14.9333333 20.2666667,15.1717333 20.2666667,15.4666667 L20.2666667,18.6666667 C20.2666667,18.9616 20.0282667,19.2 19.7333333,19.2 L16.5333333,19.2 C16.2384,19.2 16,18.9616 16,18.6666667 L16,15.4666667 C16,15.1717333 16.2384,14.9333333 16.5333333,14.9333333 L19.7333333,14.9333333 Z M19.2,18.1333333 L19.2,16 L17.0666667,16 L17.0666667,18.1333333 L19.2,18.1333333 Z M24.1562667,4.95626667 L24.9104,5.7104 L22.7770667,7.84373333 C22.6730667,7.94773333 22.5365333,8 22.4,8 C22.2634667,8 22.1269333,7.94773333 22.0229333,7.84373333 L20.9562667,6.77706667 L21.7104,6.02293333 L22.4,6.71253333 L24.1562667,4.95626667 Z M24.1562667,10.2896 L24.9104,11.0437333 L22.7770667,13.1770667 C22.6730667,13.2810667 22.5365333,13.3333333 22.4,13.3333333 C22.2634667,13.3333333 22.1269333,13.2810667 22.0229333,13.1770667 L20.9562667,12.1104 L21.7104,11.3562667 L22.4,12.0458667 L24.1562667,10.2896 Z M24.1562667,15.6229333 L24.9104,16.3770667 L22.7770667,18.5104 C22.6730667,18.6144 22.5365333,18.6666667 22.4,18.6666667 C22.2634667,18.6666667 22.1269333,18.6144 22.0229333,18.5104 L20.9562667,17.4437333 L21.7104,16.6896 L22.4,17.3792 L24.1562667,15.6229333 Z M5.33333333,5.33333333 L6.4,5.33333333 L6.4,6.4 L5.33333333,6.4 L5.33333333,5.33333333 Z M5.33333333,3.2 L6.4,3.2 L6.4,4.26666667 L5.33333333,4.26666667 L5.33333333,3.2 Z M5.33333333,1.06666667 L6.4,1.06666667 L6.4,2.13333333 L5.33333333,2.13333333 L5.33333333,1.06666667 Z M7.46666667,1.06666667 L8.53333333,1.06666667 L8.53333333,2.13333333 L7.46666667,2.13333333 L7.46666667,1.06666667 Z M9.6,1.06666667 L10.6666667,1.06666667 L10.6666667,2.13333333 L9.6,2.13333333 L9.6,1.06666667 Z M11.7333333,1.06666667 L12.8,1.06666667 L12.8,2.13333333 L11.7333333,2.13333333 L11.7333333,1.06666667 Z" id="Combined-Shape" fill="#99B0C6" fill-rule="nonzero"></path>
                </g>
            </g>
        </g>
    </g>
</svg>