<?xml version="1.0" encoding="UTF-8"?>
<svg width="32px" height="32px" viewBox="0 0 32 32" version="1.1" xmlns="http://www.w3.org/2000/svg" xmlns:xlink="http://www.w3.org/1999/xlink">
    <!-- Generator: Sketch 47.1 (45422) - http://www.bohemiancoding.com/sketch -->
    <title>Combined Shape</title>
    <desc>Created with Sketch.</desc>
    <defs></defs>
    <g id="Page-1" stroke="none" stroke-width="1" fill="none" fill-rule="evenodd">
        <g id="2.1_А_Руководство" transform="translate(-190.000000, -1340.000000)" fill-rule="nonzero" fill="#99B0C6">
            <g id="Group-34" transform="translate(180.000000, 939.000000)">
                <g id="Group-20" transform="translate(10.000000, 401.000000)">
                    <path d="M29.3333125,6.3999875 L19.7333125,6.3999875 C19.438375,6.3999875 19.2,6.63892453 19.2,6.93329896 L19.2,9.06660729 C19.2,9.36098172 19.438375,9.59991875 19.7333125,9.59991875 L29.3333125,9.59991875 C29.62825,9.59991875 29.866625,9.36098172 29.866625,9.06660729 L29.866625,6.93329896 C29.8666875,6.63892453 29.62825,6.3999875 29.3333125,6.3999875 Z M29.3333125,0 C30.80375,0 32,1.19624766 32,2.66668229 L32,4.79999063 L32,27.1999469 L32,29.3332552 C32,30.8036898 30.80375,31.9999375 29.333375,32 L19.733375,32 L10.6666875,32 C10.078375,32 9.6,31.5215634 9.6,30.9333146 L9.6,29.8666292 C9.6,29.2783178 10.0784375,28.7999438 10.6666875,28.7999438 L12.8964375,28.7999438 L13.7498125,24.5333271 L2.6666875,24.5333271 C1.19625,24.5333271 0,23.3370169 0,21.8666448 L0,19.7333365 L0,2.66668229 C0,1.19624766 1.19625,0 2.6666875,0 L19.7333125,0 L29.3333125,0 Z M5.3333125,7.99998438 C5.1968125,7.99998438 5.06025,7.94773448 4.95625,7.84373468 C4.7476875,7.63523509 4.7476875,7.29817325 4.95625,7.08961115 L7.089625,4.95624032 C7.298125,4.74767823 7.6351875,4.74767823 7.84375,4.95624032 C8.05225,5.16473991 8.05225,5.50180175 7.84375,5.71036385 L5.710375,7.84373468 C5.606375,7.94773448 5.469875,7.99998438 5.3333125,7.99998438 Z M5.3333125,10.6666667 C5.1968125,10.6666667 5.06025,10.6143543 4.95625,10.5103545 C4.7476875,10.3018549 4.7476875,9.96479304 4.95625,9.75623094 L6.0229375,8.68960803 C6.2314375,8.48104594 6.5685625,8.48104594 6.7770625,8.68960803 C6.985625,8.89810762 6.985625,9.23516946 6.7770625,9.44373156 L5.710375,10.510417 C5.606375,10.6144168 5.469875,10.6666667 5.3333125,10.6666667 Z M7.088,7.62129761 C7.2853125,7.4239855 7.6426875,7.4239855 7.845375,7.62129761 C7.941375,7.72267242 8.0000625,7.86129715 8.0000625,7.99998438 C8.0000625,8.1386716 7.941375,8.27735883 7.845375,8.37867114 C7.81875,8.39998359 7.7915,8.42667104 7.7600625,8.44267101 C7.733375,8.46398347 7.7008125,8.47998344 7.669375,8.49067092 C7.6368125,8.50667089 7.605375,8.51735836 7.5675,8.52267085 C7.536,8.52804584 7.4986875,8.53335833 7.4666875,8.53335833 C7.328,8.53335833 7.1888125,8.47467095 7.088,8.37867114 C6.9914375,8.27729633 6.9333125,8.1386716 6.9333125,7.99998438 C6.9333125,7.86129715 6.9914375,7.72260992 7.088,7.62129761 Z M8.15625,7.31036072 C7.94775,7.10186113 7.94775,6.76479929 8.15625,6.55623719 L9.75625,4.95624032 C9.96475,4.74767823 10.3018125,4.74767823 10.510375,4.95624032 C10.718875,5.16473991 10.718875,5.50180175 10.510375,5.71036385 L8.910375,7.31036072 C8.806375,7.41436052 8.669875,7.46661042 8.5333125,7.46661042 C8.3968125,7.46661042 8.26025,7.41436052 8.15625,7.31036072 Z M5.3333125,13.3332865 C5.1968125,13.3332865 5.06025,13.2810366 4.95625,13.1770368 C4.7476875,12.9685372 4.7476875,12.6314128 4.95625,12.4229132 L9.75625,7.62292261 C9.96475,7.41442302 10.3018125,7.41442302 10.510375,7.62292261 C10.718875,7.8314222 10.718875,8.16848405 10.510375,8.37704614 L5.710375,13.1770368 C5.606375,13.2810366 5.469875,13.3332865 5.3333125,13.3332865 Z M10.7093125,7.13598606 C10.6773125,7.07198619 10.6666875,7.00267382 10.6666875,6.93329896 C10.6666875,6.79461173 10.7248125,6.6559245 10.821375,6.5546122 C10.970125,6.40529999 11.205375,6.35730008 11.4026875,6.44261242 C11.4666875,6.46929986 11.5248125,6.50661229 11.5786875,6.5546122 C11.6746875,6.655987 11.733375,6.79461173 11.733375,6.93329896 C11.733375,7.00267382 11.717375,7.07198619 11.6906875,7.13598606 C11.664,7.19998594 11.6266875,7.25867332 11.5786875,7.31198572 C11.5248125,7.35998563 11.4666875,7.39729805 11.4026875,7.4239855 C11.3386875,7.45598544 11.2693125,7.46667292 11.2,7.46667292 C11.0613125,7.46667292 10.922125,7.40798553 10.8213125,7.31198572 C10.7733125,7.25867332 10.736,7.19998594 10.7093125,7.13598606 Z M12.2666875,6.3999875 C12.130125,6.3999875 11.993625,6.3477376 11.889625,6.24373781 C11.681125,6.03523821 11.681125,5.69817637 11.889625,5.48961428 L12.4229375,4.95630282 C12.6314375,4.74774073 12.9685,4.74774073 13.1770625,4.95630282 C13.385625,5.16480241 13.385625,5.50186425 13.1770625,5.71042635 L12.64375,6.24373781 C12.53975,6.3477376 12.40325,6.3999875 12.2666875,6.3999875 Z M17.0666875,4.79999063 L17.066625,4.79999063 L17.066625,3.19999375 L3.7333125,3.19999375 C3.4389375,3.19999375 3.2,3.43943078 3.2,3.73330521 L3.2,19.1999625 L17.0666875,19.1999625 L17.0666875,4.79999063 Z M28.8,8.53329583 L20.2666875,8.53329583 L20.2666875,7.46661042 L28.8,7.46661042 L28.8,8.53329583 Z M29.3333125,10.6666667 C29.62825,10.6666667 29.8666875,10.9056037 29.866625,11.1999781 L29.866625,13.3332865 C29.866625,13.6276609 29.62825,13.8665979 29.3333125,13.8665979 L19.7333125,13.8665979 C19.438375,13.8665979 19.2,13.6276609 19.2,13.3332865 L19.2,11.1999781 C19.2,10.9056037 19.438375,10.6666667 19.7333125,10.6666667 L29.3333125,10.6666667 Z M28.8,12.799975 L28.8,11.7332896 L20.2666875,11.7332896 L20.2666875,12.799975 L28.8,12.799975 Z M21.8666875,17.5999656 C22.161625,17.5999656 22.4,17.8389027 22.4,18.1332771 L22.4,22.3999563 C22.4,22.6943307 22.161625,22.9332677 21.8666875,22.9332677 L19.733375,22.9332677 C19.4384375,22.9332677 19.2000625,22.6943307 19.2000625,22.3999563 L19.2000625,18.1332771 C19.2000625,17.8389027 19.4384375,17.5999656 19.733375,17.5999656 L21.8666875,17.5999656 Z M21.3333125,21.8666448 L21.3333125,18.666651 L20.266625,18.666651 L20.266625,21.8666448 L21.3333125,21.8666448 Z M26.1333125,21.3332708 C26.42825,21.3332708 26.666625,21.5722079 26.666625,21.8665823 C26.666625,22.1609567 26.42825,22.3998938 26.1333125,22.3998938 C25.838375,22.3998938 25.6,22.1609567 25.6,21.8665823 C25.6,21.5722079 25.838375,21.3332708 26.1333125,21.3332708 Z M28.8,21.3332708 C29.0949375,21.3332708 29.3333125,21.5722079 29.3333125,21.8665823 C29.3333125,22.1609567 29.0949375,22.3998938 28.8,22.3998938 C28.5050625,22.3998938 28.2666875,22.1609567 28.2666875,21.8665823 C28.2666875,21.5722079 28.5050625,21.3332708 28.8,21.3332708 Z M18.1333125,5.33330208 L18.1333125,26.6665729 L30.9333125,26.6665729 L30.9333125,5.33330208 L18.1333125,5.33330208 Z M30.9333125,2.66668229 C30.9333125,1.78455901 30.2155,1.06668542 29.3333125,1.06668542 L19.7333125,1.06668542 C18.8511875,1.06668542 18.1333125,1.78455901 18.1333125,2.66668229 L18.1333125,4.26667917 L30.9333125,4.26667917 L30.9333125,2.66668229 Z M2.6666875,1.06668542 C1.7845625,1.06668542 1.0666875,1.78455901 1.0666875,2.66668229 L1.0666875,19.1999625 L2.1333125,19.1999625 L2.1333125,3.73336771 C2.1333125,2.85124443 2.8511875,2.13337083 3.7333125,2.13337083 L17.120375,2.13337083 C17.200625,1.7394341 17.3680625,1.37693481 17.6015,1.06668542 L2.6666875,1.06668542 Z M1.0666875,21.8666448 C1.0666875,22.7487681 1.7845625,23.4666417 2.6666875,23.4666417 L14.4,23.4666417 L17.0666875,23.4666417 L17.0666875,22.3999563 L14.4,22.3999563 C14.1050625,22.3999563 13.8666875,22.1610192 13.8666875,21.8666448 C13.8666875,21.5722704 14.1050625,21.3333333 14.4,21.3333333 L17.0666875,21.3333333 L17.0666875,20.2666479 L1.0666875,20.2666479 L1.0666875,21.8666448 Z M14.8368125,24.5332646 L13.984,28.7999438 L17.0666875,28.7999438 L17.0666875,27.1999469 L17.0666875,24.5332646 L14.8368125,24.5332646 Z M10.6666875,29.8666292 L10.6666875,30.9333146 L17.6015,30.9333146 C17.3680625,30.6230652 17.200625,30.2605034 17.120375,29.8666292 L13.333375,29.8666292 L10.6666875,29.8666292 Z M30.9333125,29.3332552 L30.9333125,29.3332552 L30.9333125,27.7332583 L18.1333125,27.7332583 L18.1333125,29.3332552 C18.1333125,30.2153785 18.8511875,30.9332521 19.7333125,30.9332521 L29.3333125,30.9332521 C30.2154375,30.9332521 30.9333125,30.2153785 30.9333125,29.3332552 Z" id="Combined-Shape"></path>
                </g>
            </g>
        </g>
    </g>
</svg>