<?xml version="1.0" encoding="UTF-8"?>
<svg width="54px" height="54px" viewBox="0 0 54 54" version="1.1" xmlns="http://www.w3.org/2000/svg" xmlns:xlink="http://www.w3.org/1999/xlink">
    <!-- Generator: Sketch 47.1 (45422) - http://www.bohemiancoding.com/sketch -->
    <title>tif</title>
    <desc>Created with Sketch.</desc>
    <defs></defs>
    <g id="guidelines" stroke="none" stroke-width="1" fill="none" fill-rule="evenodd">
        <g id="tif">
            <path d="M33,6 L44,15 L44,46 L44,46 C44,47.1045695 43.1045695,48 42,48 L12,48 L12,48 C10.8954305,48 10,47.1045695 10,46 L10,8 L10,8 C10,6.8954305 10.8954305,6 12,6 L33,6 Z" id="Fill-1" fill="#EAEAEA"></path>
            <path d="M44,15 L35,15 L35,15 C33.8954305,15 33,14.1045695 33,13 L33,6 L44,15 Z" id="Fill-3" fill="#C6C6C6"></path>
            <polygon id="Fill-5" fill="#864297" points="10 39 44 39 44 23 10 23"></polygon>
            <path d="M25.241,27.486 L22.589,27.486 L22.589,35 L20.808,35 L20.808,27.486 L18.143,27.486 L18.143,25.9 L25.241,25.9 L25.241,27.486 Z M26.346,25.9 L28.127,25.9 L28.127,35 L26.346,35 L26.346,25.9 Z M29.869,25.9 L35.264,25.9 L35.264,27.486 L31.65,27.486 L31.65,29.735 L34.978,29.735 L34.978,31.321 L31.65,31.321 L31.65,35 L29.869,35 L29.869,25.9 Z" id="TIF" fill="#FFFFFF"></path>
        </g>
    </g>
</svg>