<?xml version="1.0" encoding="UTF-8"?>
<svg width="54px" height="54px" viewBox="0 0 54 54" version="1.1" xmlns="http://www.w3.org/2000/svg" xmlns:xlink="http://www.w3.org/1999/xlink">
    <!-- Generator: Sketch 47.1 (45422) - http://www.bohemiancoding.com/sketch -->
    <title>tiff</title>
    <desc>Created with Sketch.</desc>
    <defs></defs>
    <g id="guidelines" stroke="none" stroke-width="1" fill="none" fill-rule="evenodd">
        <g id="tiff">
            <path d="M33,6 L44,15 L44,46 L44,46 C44,47.1045695 43.1045695,48 42,48 L12,48 L12,48 C10.8954305,48 10,47.1045695 10,46 L10,8 L10,8 C10,6.8954305 10.8954305,6 12,6 L33,6 Z" id="Fill-1" fill="#EAEAEA"></path>
            <path d="M44,15 L35,15 L35,15 C33.8954305,15 33,14.1045695 33,13 L33,6 L44,15 Z" id="Fill-3" fill="#C6C6C6"></path>
            <polygon id="Fill-5" fill="#864297" points="10 39 44 39 44 23 10 23"></polygon>
            <path d="M22.684,28.064 L20.236,28.064 L20.236,35 L18.592,35 L18.592,28.064 L16.132,28.064 L16.132,26.6 L22.684,26.6 L22.684,28.064 Z M23.704,26.6 L25.348,26.6 L25.348,35 L23.704,35 L23.704,26.6 Z M26.956,26.6 L31.936,26.6 L31.936,28.064 L28.6,28.064 L28.6,30.14 L31.672,30.14 L31.672,31.604 L28.6,31.604 L28.6,35 L26.956,35 L26.956,26.6 Z M33.052,26.6 L38.032,26.6 L38.032,28.064 L34.696,28.064 L34.696,30.14 L37.768,30.14 L37.768,31.604 L34.696,31.604 L34.696,35 L33.052,35 L33.052,26.6 Z" id="TIFF" fill="#FFFFFF"></path>
        </g>
    </g>
</svg>