<?xml version="1.0" encoding="utf-8"?>
<!-- Generator: Adobe Illustrator 16.0.0, SVG Export Plug-In . SVG Version: 6.00 Build 0)  -->
<!DOCTYPE svg PUBLIC "-//W3C//DTD SVG 1.1//EN" "http://www.w3.org/Graphics/SVG/1.1/DTD/svg11.dtd">
<svg version="1.1" id="Layer_1" xmlns="http://www.w3.org/2000/svg" xmlns:xlink="http://www.w3.org/1999/xlink" x="0px" y="0px"
	 width="54px" height="54px" viewBox="0 0 54 54" enable-background="new 0 0 54 54" xml:space="preserve">
<g>
	<g>
		<g>
			<path fill="#28AC4A" d="M35.904,3.123c-1.51-1.611-3.557-2.498-5.764-2.498H23.86c-2.208,0-4.254,0.887-5.764,2.498
				c-1.509,1.611-2.261,3.711-2.118,5.914l0.279,4.28l0.652,9.995c0.226,3.463,2.176,6.53,5.217,8.202
				c1.526,0.84,3.199,1.259,4.873,1.259s3.348-0.419,4.873-1.259c3.041-1.672,4.992-4.739,5.218-8.202l0.745-11.42v0l0.186-2.854
				C38.165,6.834,37.413,4.734,35.904,3.123z M18.125,8.897c-0.104-1.603,0.443-3.131,1.541-4.303
				c1.098-1.172,2.588-1.818,4.194-1.818h6.281c0.139,0,0.277,0.007,0.414,0.017L28.891,7.23c-0.139,0.224-0.805,1.213-2.327,2.241
				c-1.486,1.003-4.089,2.232-8.23,2.623L18.125,8.897z M34.943,23.171c-0.178,2.727-1.713,5.141-4.107,6.458
				c-2.402,1.32-5.27,1.321-7.672,0c-2.394-1.316-3.93-3.731-4.107-6.457l-0.583-8.932c6.059-0.556,9.363-2.77,10.991-4.36
				c0.436,0.499,1.058,0.959,1.861,1.374c0.868,0.449,2.313,0.92,4.303,1.405L34.943,23.171z M35.875,8.897l-0.104,1.582
				c-1.994-0.501-2.977-0.886-3.457-1.135c-1.174-0.606-1.438-1.107-1.445-1.261c0.001-0.002,0.002-0.004,0.002-0.006
				c0.001-0.002,0.002-0.003,0.002-0.005l1.771-4.724c0.625,0.303,1.197,0.722,1.689,1.248C35.432,5.766,35.979,7.294,35.875,8.897z
				"/>
		</g>
	</g>
	<g>
		<g>
			<path fill="#28AC4A" d="M53.982,52.732l-1.039-5.741c-0.584-3.218-2.113-6.138-4.424-8.446c-2.285-2.281-5.163-3.802-8.324-4.396
				c0,0,0-0.001-0.001-0.001c-0.974-0.183-1.971-0.276-2.962-0.276H34.1c-0.285,0-0.559,0.113-0.761,0.314L27,40.525l-6.339-6.34
				c-0.202-0.201-0.476-0.314-0.761-0.314h-3.132c-0.992,0-1.988,0.093-2.962,0.276c0,0,0,0,0,0
				c-3.162,0.595-6.041,2.116-8.324,4.397c-2.311,2.308-3.841,5.229-4.424,8.446l-1.04,5.741c-0.057,0.314,0.028,0.637,0.233,0.881
				C0.455,53.858,0.757,54,1.076,54h51.848c0.319,0,0.621-0.142,0.826-0.387C53.954,53.369,54.039,53.047,53.982,52.732z
				 M27.761,42.807l6.784-6.784h2.688c0.139,0,0.278,0.002,0.418,0.007l-5.325,5.324L27,46.679l-1.556-1.556L27.761,42.807z
				 M16.768,36.022h2.687l0,0l6.023,6.024l-1.555,1.555l-2.248-2.248l-5.325-5.324C16.49,36.024,16.629,36.022,16.768,36.022z
				 M2.364,51.849l0.811-4.474c0.98-5.412,5.158-9.767,10.481-10.998l12.583,12.584c0.21,0.209,0.485,0.314,0.761,0.314
				s0.551-0.105,0.761-0.314l12.583-12.584c5.324,1.232,9.502,5.586,10.482,10.998l0.811,4.474H2.364z"/>
		</g>
	</g>
</g>
</svg>
