<?xml version="1.0" encoding="UTF-8"?>
<svg width="54px" height="54px" viewBox="0 0 54 54" version="1.1" xmlns="http://www.w3.org/2000/svg" xmlns:xlink="http://www.w3.org/1999/xlink">
    <!-- Generator: Sketch 47.1 (45422) - http://www.bohemiancoding.com/sketch -->
    <title>vsd</title>
    <desc>Created with Sketch.</desc>
    <defs></defs>
    <g id="guidelines" stroke="none" stroke-width="1" fill="none" fill-rule="evenodd">
        <g id="vsd">
            <path d="M33,6 L44,15 L44,46 L44,46 C44,47.1045695 43.1045695,48 42,48 L12,48 L12,48 C10.8954305,48 10,47.1045695 10,46 L10,8 L10,8 C10,6.8954305 10.8954305,6 12,6 L33,6 Z" id="Fill-1" fill="#EAEAEA"></path>
            <path d="M44,15 L35,15 L35,15 C33.8954305,15 33,14.1045695 33,13 L33,6 L44,15 Z" id="Fill-3" fill="#C6C6C6"></path>
            <polygon id="Fill-5" fill="#092AA2" points="10 39 44 39 44 23 10 23"></polygon>
            <path d="M19.77,31.243 L20.004,32.79 L20.069,32.79 L20.329,31.23 L22.071,25.9 L23.943,25.9 L20.563,35.065 L19.289,35.065 L15.883,25.9 L17.95,25.9 L19.77,31.243 Z M28.532,32.556 C28.532,32.2786653 28.4301677,32.0533342 28.2265,31.88 C28.0228323,31.7066658 27.7671682,31.5485007 27.4595,31.4055 C27.1518318,31.2624993 26.8181685,31.1151674 26.4585,30.9635 C26.0988315,30.8118326 25.7651682,30.6255011 25.4575,30.4045 C25.1498318,30.1834989 24.8941677,29.908335 24.6905,29.579 C24.4868323,29.249665 24.385,28.8293359 24.385,28.318 C24.385,27.8759978 24.4586659,27.4925016 24.606,27.1675 C24.7533341,26.8424984 24.9634986,26.5716677 25.2365,26.355 C25.5095014,26.1383323 25.8323315,25.9780005 26.205,25.874 C26.5776685,25.7699995 26.9936644,25.718 27.453,25.718 C27.9816693,25.718 28.4799977,25.7634995 28.948,25.8545 C29.4160023,25.9455005 29.8016652,26.0776658 30.105,26.251 L29.546,27.746 C29.3553324,27.6246661 29.0693352,27.5141672 28.688,27.4145 C28.3066648,27.3148328 27.8950022,27.265 27.453,27.265 C27.0369979,27.265 26.7185011,27.3473325 26.4975,27.512 C26.2764989,27.6766675 26.166,27.8976653 26.166,28.175 C26.166,28.4350013 26.2678323,28.6516658 26.4715,28.825 C26.6751677,28.9983342 26.9308318,29.1586659 27.2385,29.306 C27.5461682,29.4533341 27.8798315,29.6049992 28.2395,29.761 C28.5991685,29.9170008 28.9328318,30.1054989 29.2405,30.3265 C29.5481682,30.5475011 29.8038323,30.8204984 30.0075,31.1455 C30.2111677,31.4705016 30.313,31.8756642 30.313,32.361 C30.313,32.8463358 30.2328341,33.2644982 30.0725,33.6155 C29.9121659,33.9665018 29.6868348,34.2589988 29.3965,34.493 C29.1061652,34.7270012 28.7551687,34.9003328 28.3435,35.013 C27.9318313,35.1256672 27.4790025,35.182 26.985,35.182 C26.3349968,35.182 25.7630025,35.1213339 25.269,35 C24.7749975,34.8786661 24.4110012,34.7573339 24.177,34.636 L24.749,33.115 C24.8443338,33.1670003 24.9678326,33.223333 25.1195,33.284 C25.2711674,33.344667 25.4423324,33.4009997 25.633,33.453 C25.8236676,33.5050003 26.0251656,33.5483332 26.2375,33.583 C26.4498344,33.6176668 26.6686655,33.635 26.894,33.635 C27.4226693,33.635 27.8278319,33.5461676 28.1095,33.3685 C28.3911681,33.1908324 28.532,32.9200018 28.532,32.556 Z M31.496,25.9 C31.6780009,25.8739999 31.8838322,25.8523334 32.1135,25.835 C32.3431678,25.8176666 32.5793321,25.8046667 32.822,25.796 C33.0646679,25.7873333 33.3008322,25.7808334 33.5305,25.7765 C33.7601678,25.7721666 33.9659991,25.77 34.148,25.77 C34.954004,25.77 35.6429971,25.8826655 36.215,26.108 C36.7870029,26.3333345 37.2506649,26.6496646 37.606,27.057 C37.9613351,27.4643354 38.2213325,27.9496639 38.386,28.513 C38.5506675,29.0763361 38.633,29.6959966 38.633,30.372 C38.633,30.9873364 38.5550008,31.5809971 38.399,32.153 C38.2429992,32.7250029 37.9830018,33.2319978 37.619,33.674 C37.2549982,34.1160022 36.7761696,34.471332 36.1825,34.74 C35.5888304,35.008668 34.8543377,35.143 33.979,35.143 C33.8403326,35.143 33.6561678,35.1386667 33.4265,35.13 C33.1968322,35.1213333 32.9585012,35.1105001 32.7115,35.0975 C32.4644988,35.0844999 32.2283345,35.0715001 32.003,35.0585 C31.7776655,35.0454999 31.6086672,35.0303334 31.496,35.013 L31.496,25.9 Z M34.291,27.356 C34.1003324,27.356 33.907501,27.3603333 33.7125,27.369 C33.517499,27.3776667 33.3723338,27.3906666 33.277,27.408 L33.277,33.505 C33.3116668,33.5136667 33.3701663,33.5201666 33.4525,33.5245 C33.5348337,33.5288334 33.6236662,33.5331666 33.719,33.5375 C33.8143338,33.5418334 33.9053329,33.5461666 33.992,33.5505 C34.0786671,33.5548334 34.1436664,33.557 34.187,33.557 C34.6896692,33.557 35.1078317,33.4681676 35.4415,33.2905 C35.7751683,33.1128324 36.039499,32.8766681 36.2345,32.582 C36.429501,32.2873319 36.5659996,31.9471686 36.644,31.5615 C36.7220004,31.1758314 36.761,30.7793354 36.761,30.372 C36.761,30.0166649 36.7263337,29.6591685 36.657,29.2995 C36.5876663,28.9398315 36.4598343,28.6170014 36.2735,28.331 C36.0871657,28.0449986 35.8336683,27.8110009 35.513,27.629 C35.1923317,27.4469991 34.7850025,27.356 34.291,27.356 Z" id="VSD" fill="#FFFFFF"></path>
        </g>
    </g>
</svg>