<?xml version="1.0" encoding="UTF-8"?>
<svg width="54px" height="54px" viewBox="0 0 54 54" version="1.1" xmlns="http://www.w3.org/2000/svg" xmlns:xlink="http://www.w3.org/1999/xlink">
    <!-- Generator: Sketch 47.1 (45422) - http://www.bohemiancoding.com/sketch -->
    <title>wma</title>
    <desc>Created with Sketch.</desc>
    <defs></defs>
    <g id="guidelines" stroke="none" stroke-width="1" fill="none" fill-rule="evenodd">
        <g id="wma">
            <path d="M33,6 L44,15 L44,46 L44,46 C44,47.1045695 43.1045695,48 42,48 L12,48 L12,48 C10.8954305,48 10,47.1045695 10,46 L10,8 L10,8 C10,6.8954305 10.8954305,6 12,6 L33,6 Z" id="Fill-1" fill="#EAEAEA"></path>
            <path d="M44,15 L35,15 L35,15 C33.8954305,15 33,14.1045695 33,13 L33,6 L44,15 Z" id="Fill-3" fill="#C6C6C6"></path>
            <polygon id="Fill-5" fill="#606CE8" points="10 39 44 39 44 23 10 23"></polygon>
            <path d="M15.146,30.983 L15.315,32.595 L15.367,32.595 L15.549,30.957 L17.135,25.9 L18.305,25.9 L19.865,30.983 L20.047,32.595 L20.099,32.595 L20.294,30.957 L21.399,25.9 L23.206,25.9 L20.697,35.065 L19.501,35.065 L17.876,30.008 L17.655,28.617 L17.59,28.617 L17.369,30.021 L15.757,35.065 L14.496,35.065 L12,25.9 L13.937,25.9 L15.146,30.983 Z M31.045,30.281 L31.24,28.474 L31.162,28.474 L30.603,29.93 L28.666,33.323 L28.094,33.323 L26.053,29.917 L25.481,28.474 L25.416,28.474 L25.676,30.268 L25.676,35 L23.986,35 L23.986,25.9 L25.611,25.9 L28.042,30.06 L28.471,31.1 L28.523,31.1 L28.913,30.034 L31.214,25.9 L32.826,25.9 L32.826,35 L31.045,35 L31.045,30.281 Z M38.871,32.985 L36.076,32.985 L35.387,35 L33.606,35 L36.882,25.835 L38.195,25.835 L41.471,35 L39.599,35 L38.871,32.985 Z M36.531,31.555 L38.481,31.555 L37.805,29.527 L37.532,28.097 L37.467,28.097 L37.194,29.54 L36.531,31.555 Z" id="WMA" fill="#FFFFFF"></path>
        </g>
    </g>
</svg>