<?xml version="1.0" encoding="UTF-8"?>
<svg width="54px" height="54px" viewBox="0 0 54 54" version="1.1" xmlns="http://www.w3.org/2000/svg" xmlns:xlink="http://www.w3.org/1999/xlink">
    <!-- Generator: Sketch 47.1 (45422) - http://www.bohemiancoding.com/sketch -->
    <title>xls</title>
    <desc>Created with Sketch.</desc>
    <defs></defs>
    <g id="guidelines" stroke="none" stroke-width="1" fill="none" fill-rule="evenodd">
        <g id="xls">
            <path d="M33,6 L44,15 L44,46 L44,46 C44,47.1045695 43.1045695,48 42,48 L12,48 L12,48 C10.8954305,48 10,47.1045695 10,46 L10,8 L10,8 C10,6.8954305 10.8954305,6 12,6 L33,6 Z" id="Fill-1" fill="#EAEAEA"></path>
            <path d="M44,15 L35,15 L35,15 C33.8954305,15 33,14.1045695 33,13 L33,6 L44,15 Z" id="Fill-3" fill="#C6C6C6"></path>
            <polygon id="Fill-5" fill="#5C9C22" points="10 39 44 39 44 23 10 23"></polygon>
            <path d="M18.925,30.372 L16.39,25.9 L18.535,25.9 L19.939,28.526 L20.251,29.449 L20.55,28.526 L22.019,25.9 L23.956,25.9 L21.33,30.281 L24.086,35 L21.967,35 L20.368,32.192 L20.017,31.23 L19.679,32.192 L18.067,35 L16.13,35 L18.925,30.372 Z M30.768,35 L25.009,35 L25.009,25.9 L26.79,25.9 L26.79,33.414 L30.768,33.414 L30.768,35 Z M35.617,32.556 C35.617,32.2786653 35.5151677,32.0533342 35.3115,31.88 C35.1078323,31.7066658 34.8521682,31.5485007 34.5445,31.4055 C34.2368318,31.2624993 33.9031685,31.1151674 33.5435,30.9635 C33.1838315,30.8118326 32.8501682,30.6255011 32.5425,30.4045 C32.2348318,30.1834989 31.9791677,29.908335 31.7755,29.579 C31.5718323,29.249665 31.47,28.8293359 31.47,28.318 C31.47,27.8759978 31.5436659,27.4925016 31.691,27.1675 C31.8383341,26.8424984 32.0484986,26.5716677 32.3215,26.355 C32.5945014,26.1383323 32.9173315,25.9780005 33.29,25.874 C33.6626685,25.7699995 34.0786644,25.718 34.538,25.718 C35.0666693,25.718 35.5649977,25.7634995 36.033,25.8545 C36.5010023,25.9455005 36.8866651,26.0776658 37.19,26.251 L36.631,27.746 C36.4403324,27.6246661 36.1543352,27.5141672 35.773,27.4145 C35.3916648,27.3148328 34.9800022,27.265 34.538,27.265 C34.1219979,27.265 33.8035011,27.3473325 33.5825,27.512 C33.3614989,27.6766675 33.251,27.8976653 33.251,28.175 C33.251,28.4350013 33.3528323,28.6516658 33.5565,28.825 C33.7601677,28.9983342 34.0158318,29.1586659 34.3235,29.306 C34.6311682,29.4533341 34.9648315,29.6049992 35.3245,29.761 C35.6841685,29.9170008 36.0178318,30.1054989 36.3255,30.3265 C36.6331682,30.5475011 36.8888323,30.8204984 37.0925,31.1455 C37.2961677,31.4705016 37.398,31.8756642 37.398,32.361 C37.398,32.8463358 37.3178341,33.2644982 37.1575,33.6155 C36.9971659,33.9665018 36.7718348,34.2589988 36.4815,34.493 C36.1911652,34.7270012 35.8401687,34.9003328 35.4285,35.013 C35.0168313,35.1256672 34.5640025,35.182 34.07,35.182 C33.4199968,35.182 32.8480025,35.1213339 32.354,35 C31.8599975,34.8786661 31.4960012,34.7573339 31.262,34.636 L31.834,33.115 C31.9293338,33.1670003 32.0528326,33.223333 32.2045,33.284 C32.3561674,33.344667 32.5273324,33.4009997 32.718,33.453 C32.9086676,33.5050003 33.1101656,33.5483332 33.3225,33.583 C33.5348344,33.6176668 33.7536655,33.635 33.979,33.635 C34.5076693,33.635 34.9128319,33.5461676 35.1945,33.3685 C35.4761681,33.1908324 35.617,32.9200018 35.617,32.556 Z" id="XLS" fill="#FFFFFF"></path>
        </g>
    </g>
</svg>