<?xml version="1.0" encoding="UTF-8"?>
<svg width="54px" height="54px" viewBox="0 0 54 54" version="1.1" xmlns="http://www.w3.org/2000/svg" xmlns:xlink="http://www.w3.org/1999/xlink">
    <!-- Generator: Sketch 47.1 (45422) - http://www.bohemiancoding.com/sketch -->
    <title>xlsx</title>
    <desc>Created with Sketch.</desc>
    <defs></defs>
    <g id="guidelines" stroke="none" stroke-width="1" fill="none" fill-rule="evenodd">
        <g id="xlsx">
            <path d="M33,6 L44,15 L44,46 L44,46 C44,47.1045695 43.1045695,48 42,48 L12,48 L12,48 C10.8954305,48 10,47.1045695 10,46 L10,8 L10,8 C10,6.8954305 10.8954305,6 12,6 L33,6 Z" id="Fill-1" fill="#EAEAEA"></path>
            <path d="M44,15 L35,15 L35,15 C33.8954305,15 33,14.1045695 33,13 L33,6 L44,15 Z" id="Fill-3" fill="#C6C6C6"></path>
            <polygon id="Fill-5" fill="#5C9C22" points="10 39 44 39 44 23 10 23"></polygon>
            <path d="M16.7,30.728 L14.36,26.6 L16.34,26.6 L17.636,29.024 L17.924,29.876 L18.2,29.024 L19.556,26.6 L21.344,26.6 L18.92,30.644 L21.464,35 L19.508,35 L18.032,32.408 L17.708,31.52 L17.396,32.408 L15.908,35 L14.12,35 L16.7,30.728 Z M27.632,35 L22.316,35 L22.316,26.6 L23.96,26.6 L23.96,33.536 L27.632,33.536 L27.632,35 Z M32.108,32.744 C32.108,32.4879987 32.0140009,32.2800008 31.826,32.12 C31.6379991,31.9599992 31.4020014,31.8140007 31.118,31.682 C30.8339986,31.5499993 30.5260017,31.4140007 30.194,31.274 C29.8619983,31.1339993 29.5540014,30.962001 29.27,30.758 C28.9859986,30.553999 28.7500009,30.3000015 28.562,29.996 C28.3739991,29.6919985 28.28,29.3040024 28.28,28.832 C28.28,28.423998 28.3479993,28.0700015 28.484,27.77 C28.6200007,27.4699985 28.8139987,27.220001 29.066,27.02 C29.3180013,26.819999 29.6159983,26.6720005 29.96,26.576 C30.3040017,26.4799995 30.6879979,26.432 31.112,26.432 C31.6000024,26.432 32.0599978,26.4739996 32.492,26.558 C32.9240022,26.6420004 33.2799986,26.7639992 33.56,26.924 L33.044,28.304 C32.8679991,28.1919994 32.6040018,28.0900005 32.252,27.998 C31.8999982,27.9059995 31.520002,27.86 31.112,27.86 C30.7279981,27.86 30.434001,27.9359992 30.23,28.088 C30.025999,28.2400008 29.924,28.4439987 29.924,28.7 C29.924,28.9400012 30.0179991,29.1399992 30.206,29.3 C30.3940009,29.4600008 30.6299986,29.6079993 30.914,29.744 C31.1980014,29.8800007 31.5059983,30.0199993 31.838,30.164 C32.1700017,30.3080007 32.4779986,30.481999 32.762,30.686 C33.0460014,30.890001 33.2819991,31.1419985 33.47,31.442 C33.6580009,31.7420015 33.752,32.1159978 33.752,32.564 C33.752,33.0120022 33.6780007,33.3979984 33.53,33.722 C33.3819993,34.0460016 33.1740013,34.3159989 32.906,34.532 C32.6379987,34.7480011 32.3140019,34.9079995 31.934,35.012 C31.5539981,35.1160005 31.1360023,35.168 30.68,35.168 C30.079997,35.168 29.5520023,35.1120006 29.096,35 C28.6399977,34.8879994 28.3040011,34.7760006 28.088,34.664 L28.616,33.26 C28.7040004,33.3080002 28.8179993,33.3599997 28.958,33.416 C29.0980007,33.4720003 29.2559991,33.5239998 29.432,33.572 C29.6080009,33.6200002 29.793999,33.6599998 29.99,33.692 C30.186001,33.7240002 30.387999,33.74 30.596,33.74 C31.0840024,33.74 31.4579987,33.6580008 31.718,33.494 C31.9780013,33.3299992 32.108,33.0800017 32.108,32.744 Z M36.824,30.728 L34.484,26.6 L36.464,26.6 L37.76,29.024 L38.048,29.876 L38.324,29.024 L39.68,26.6 L41.468,26.6 L39.044,30.644 L41.588,35 L39.632,35 L38.156,32.408 L37.832,31.52 L37.52,32.408 L36.032,35 L34.244,35 L36.824,30.728 Z" id="XLSX" fill="#FFFFFF"></path>
        </g>
    </g>
</svg>