<?xml version="1.0" encoding="UTF-8"?>
<svg width="54px" height="54px" viewBox="0 0 54 54" version="1.1" xmlns="http://www.w3.org/2000/svg" xmlns:xlink="http://www.w3.org/1999/xlink">
    <!-- Generator: Sketch 47.1 (45422) - http://www.bohemiancoding.com/sketch -->
    <title>zip</title>
    <desc>Created with Sketch.</desc>
    <defs></defs>
    <g id="guidelines" stroke="none" stroke-width="1" fill="none" fill-rule="evenodd">
        <g id="zip">
            <path d="M33,6 L44,15 L44,46 L44,46 C44,47.1045695 43.1045695,48 42,48 L12,48 L12,48 C10.8954305,48 10,47.1045695 10,46 L10,8 L10,8 C10,6.8954305 10.8954305,6 12,6 L33,6 Z" id="Fill-1" fill="#EAEAEA"></path>
            <path d="M44,15 L35,15 L35,15 C33.8954305,15 33,14.1045695 33,13 L33,6 L44,15 Z" id="Fill-3" fill="#C6C6C6"></path>
            <polygon id="Fill-5" fill="#596D7E" points="10 39 44 39 44 23 10 23"></polygon>
            <path d="M18.351,33.414 L22.199,28.032 L22.875,27.486 L18.351,27.486 L18.351,25.9 L24.656,25.9 L24.656,27.486 L20.782,32.92 L20.119,33.414 L24.656,33.414 L24.656,35 L18.351,35 L18.351,33.414 Z M25.969,25.9 L27.75,25.9 L27.75,35 L25.969,35 L25.969,25.9 Z M29.492,25.991 C29.8560018,25.9216663 30.2568311,25.8675002 30.6945,25.8285 C31.1321689,25.7894998 31.5676645,25.77 32.001,25.77 C32.4516689,25.77 32.9044977,25.806833 33.3595,25.8805 C33.8145023,25.954167 34.2239982,26.1014989 34.588,26.3225 C34.9520018,26.5435011 35.2488322,26.8511647 35.4785,27.2455 C35.7081678,27.6398353 35.823,28.1533302 35.823,28.786 C35.823,29.3580029 35.7233343,29.8411647 35.524,30.2355 C35.3246657,30.6298353 35.060335,30.9526654 34.731,31.204 C34.401665,31.4553346 34.0268354,31.6373328 33.6065,31.75 C33.1861646,31.8626672 32.7506689,31.919 32.3,31.919 L32.092,31.919 C31.9966662,31.919 31.8970005,31.9168334 31.793,31.9125 C31.6889995,31.9081666 31.5871672,31.9016667 31.4875,31.893 C31.3878328,31.8843333 31.3163336,31.8756667 31.273,31.867 L31.273,35 L29.492,35 L29.492,25.991 Z M32.144,27.304 C31.9706658,27.304 31.8060008,27.3104999 31.65,27.3235 C31.4939992,27.3365001 31.3683338,27.3516666 31.273,27.369 L31.273,30.32 C31.3076668,30.3286667 31.3596663,30.3373333 31.429,30.346 C31.4983337,30.3546667 31.5719996,30.3611666 31.65,30.3655 C31.7280004,30.3698334 31.803833,30.372 31.8775,30.372 L32.04,30.372 C32.2740012,30.372 32.5058322,30.3503335 32.7355,30.307 C32.9651678,30.2636664 33.1709991,30.1835006 33.353,30.0665 C33.5350009,29.9494994 33.6801661,29.787001 33.7885,29.579 C33.8968339,29.370999 33.951,29.0980017 33.951,28.76 C33.951,28.4739986 33.8990005,28.2378343 33.795,28.0515 C33.6909995,27.8651657 33.5545008,27.7156672 33.3855,27.603 C33.2164992,27.4903328 33.0236678,27.4123335 32.807,27.369 C32.5903323,27.3256664 32.3693345,27.304 32.144,27.304 Z" id="ZIP" fill="#FFFFFF"></path>
        </g>
    </g>
</svg>